M48
; DRILL file {KiCad 9.0.2} date 2025-05-20T20:50:07+0530
; FORMAT={-:-/ absolute / metric / decimal}
; #@! TF.CreationDate,2025-05-20T20:50:07+05:30
; #@! TF.GenerationSoftware,Kicad,Pcbnew,9.0.2
; #@! TF.FileFunction,Plated,1,2,PTH
FMAT,2
METRIC
; #@! TA.AperFunction,Plated,PTH,ViaDrill
T1C0.300
; #@! TA.AperFunction,Plated,PTH,ComponentDrill
T2C0.600
; #@! TA.AperFunction,Plated,PTH,ComponentDrill
T3C0.800
; #@! TA.AperFunction,Plated,PTH,ComponentDrill
T4C0.900
; #@! TA.AperFunction,Plated,PTH,ComponentDrill
T5C1.000
%
G90
G05
T1
X74.87Y-88.59
X123.0Y-74.5
X123.08Y-80.92
X138.0Y-73.5
X138.2Y-78.74
X142.648Y-102.5
T2
X98.5Y-66.0
X98.5Y-68.0
X125.0Y-65.5
X125.0Y-67.5
T3
X85.0Y-80.5
X85.25Y-86.5
X87.0Y-94.0
X87.0Y-97.5
X87.75Y-86.5
X88.5Y-80.5
X93.0Y-94.5
X93.0Y-97.0
X93.0Y-99.96
X93.0Y-102.5
X93.5Y-67.69
X93.5Y-75.31
X93.5Y-78.69
X93.5Y-86.31
X98.683Y-83.3
X98.686Y-108.696
X101.223Y-83.3
X101.226Y-108.696
X101.5Y-72.0
X101.5Y-74.0
X101.5Y-76.0
X101.5Y-78.0
X103.763Y-83.3
X103.763Y-108.7
X105.0Y-64.5
X105.0Y-66.5
X105.0Y-68.5
X105.0Y-70.5
X105.0Y-72.5
X105.0Y-74.5
X105.0Y-76.5
X105.0Y-78.5
X106.303Y-83.3
X106.303Y-108.7
X108.843Y-83.3
X108.843Y-108.7
X111.383Y-83.3
X111.383Y-108.7
X113.923Y-83.3
X113.923Y-108.7
X116.463Y-83.3
X116.463Y-108.7
X119.003Y-83.3
X119.003Y-108.7
X120.0Y-64.5
X120.0Y-66.5
X120.0Y-68.5
X120.0Y-70.5
X120.0Y-72.5
X120.0Y-74.5
X120.0Y-76.5
X120.0Y-78.5
X121.543Y-83.3
X121.543Y-108.7
X124.083Y-83.3
X124.083Y-108.7
X126.5Y-72.0
X126.5Y-74.0
X126.5Y-76.0
X126.5Y-78.0
X126.623Y-83.3
X126.623Y-108.7
X129.163Y-83.3
X129.163Y-108.7
X130.5Y-64.5
X130.5Y-66.5
X130.5Y-68.5
X130.5Y-70.5
X130.5Y-72.5
X130.5Y-74.5
X130.5Y-76.5
X130.5Y-78.5
X131.703Y-83.3
X131.703Y-108.7
X134.243Y-83.3
X134.243Y-108.7
X136.783Y-83.3
X136.783Y-108.7
X139.323Y-83.3
X139.323Y-108.7
X141.863Y-83.3
X141.863Y-108.7
X144.403Y-83.3
X144.403Y-108.7
X145.5Y-64.5
X145.5Y-66.5
X145.5Y-68.5
X145.5Y-70.5
X145.5Y-72.5
X145.5Y-74.5
X145.5Y-76.5
X145.5Y-78.5
T4
X87.0Y-105.0
X89.0Y-66.69
X89.0Y-74.31
X89.54Y-105.0
T5
X96.01Y-112.49
X98.55Y-112.49
X101.09Y-112.49
X103.63Y-112.49
X106.17Y-112.49
X108.71Y-112.49
X118.67Y-112.39
X121.21Y-112.39
X123.75Y-112.39
X126.29Y-112.39
X128.83Y-112.39
T5
G00X78.35Y-68.46
M15
G01X78.35Y-70.46
M16
G05
G00X80.35Y-74.16
M15
G01X82.35Y-74.16
M16
G05
G00X84.35Y-68.46
M15
G01X84.35Y-70.46
M16
G05
M30
