%TF.GenerationSoftware,KiCad,Pcbnew,9.0.2*%
%TF.CreationDate,2025-05-21T14:28:12+05:30*%
%TF.ProjectId,esp32 master,65737033-3220-46d6-9173-7465722e6b69,rev?*%
%TF.SameCoordinates,Original*%
%TF.FileFunction,Soldermask,Top*%
%TF.FilePolarity,Negative*%
%FSLAX46Y46*%
G04 Gerber Fmt 4.6, Leading zero omitted, Abs format (unit mm)*
G04 Created by KiCad (PCBNEW 9.0.2) date 2025-05-21 14:28:12*
%MOMM*%
%LPD*%
G01*
G04 APERTURE LIST*
G04 Aperture macros list*
%AMRoundRect*
0 Rectangle with rounded corners*
0 $1 Rounding radius*
0 $2 $3 $4 $5 $6 $7 $8 $9 X,Y pos of 4 corners*
0 Add a 4 corners polygon primitive as box body*
4,1,4,$2,$3,$4,$5,$6,$7,$8,$9,$2,$3,0*
0 Add four circle primitives for the rounded corners*
1,1,$1+$1,$2,$3*
1,1,$1+$1,$4,$5*
1,1,$1+$1,$6,$7*
1,1,$1+$1,$8,$9*
0 Add four rect primitives between the rounded corners*
20,1,$1+$1,$2,$3,$4,$5,0*
20,1,$1+$1,$4,$5,$6,$7,0*
20,1,$1+$1,$6,$7,$8,$9,0*
20,1,$1+$1,$8,$9,$2,$3,0*%
G04 Aperture macros list end*
%ADD10R,1.600000X1.600000*%
%ADD11C,1.600000*%
%ADD12RoundRect,0.200000X-0.275000X0.200000X-0.275000X-0.200000X0.275000X-0.200000X0.275000X0.200000X0*%
%ADD13RoundRect,0.250000X0.300000X-2.050000X0.300000X2.050000X-0.300000X2.050000X-0.300000X-2.050000X0*%
%ADD14RoundRect,0.250002X5.149998X-4.449998X5.149998X4.449998X-5.149998X4.449998X-5.149998X-4.449998X0*%
%ADD15R,1.700000X1.700000*%
%ADD16C,1.700000*%
%ADD17R,1.350000X1.350000*%
%ADD18C,1.350000*%
%ADD19RoundRect,0.250000X-0.650000X-1.020000X0.650000X-1.020000X0.650000X1.020000X-0.650000X1.020000X0*%
%ADD20O,1.600000X1.600000*%
%ADD21C,3.100000*%
%ADD22O,2.000000X1.500000*%
%ADD23R,2.900000X5.400000*%
%ADD24RoundRect,0.112500X-0.187500X-0.112500X0.187500X-0.112500X0.187500X0.112500X-0.187500X0.112500X0*%
%ADD25C,1.200000*%
%ADD26RoundRect,0.112500X-0.112500X0.187500X-0.112500X-0.187500X0.112500X-0.187500X0.112500X0.187500X0*%
%ADD27R,1.800000X1.800000*%
%ADD28C,1.800000*%
%ADD29R,3.500000X3.500000*%
%ADD30RoundRect,0.750000X-0.750000X-1.000000X0.750000X-1.000000X0.750000X1.000000X-0.750000X1.000000X0*%
%ADD31RoundRect,0.875000X-0.875000X-0.875000X0.875000X-0.875000X0.875000X0.875000X-0.875000X0.875000X0*%
%ADD32R,1.200000X2.000000*%
%ADD33O,1.200000X2.000000*%
%ADD34RoundRect,0.250000X0.650000X-0.650000X0.650000X0.650000X-0.650000X0.650000X-0.650000X-0.650000X0*%
%ADD35RoundRect,0.200000X0.275000X-0.200000X0.275000X0.200000X-0.275000X0.200000X-0.275000X-0.200000X0*%
G04 APERTURE END LIST*
D10*
%TO.C,C5*%
X87000000Y-97500000D03*
D11*
X87000000Y-94000000D03*
%TD*%
D12*
%TO.C,R5*%
X96180000Y-97790000D03*
X96180000Y-99440000D03*
%TD*%
D13*
%TO.C,U1*%
X72825000Y-92075000D03*
X74525000Y-92075000D03*
X76225000Y-92075000D03*
D14*
X76225000Y-82925000D03*
D13*
X77925000Y-92075000D03*
X79625000Y-92075000D03*
%TD*%
D11*
%TO.C,C6*%
X96260000Y-83400000D03*
X96260000Y-80900000D03*
%TD*%
D15*
%TO.C,J2*%
X108710000Y-112490000D03*
D16*
X106170000Y-112490000D03*
X103630000Y-112490000D03*
X101090000Y-112490000D03*
X98550000Y-112490000D03*
X96010000Y-112490000D03*
%TD*%
D17*
%TO.C,J5*%
X101500000Y-78000000D03*
D18*
X101500000Y-76000000D03*
X101500000Y-74000000D03*
X101500000Y-72000000D03*
%TD*%
D19*
%TO.C,D2*%
X74720000Y-98000000D03*
X79280000Y-98000000D03*
%TD*%
D11*
%TO.C,R1*%
X93180000Y-67640000D03*
D20*
X93180000Y-75260000D03*
%TD*%
D15*
%TO.C,J3*%
X118670000Y-112390000D03*
D16*
X121210000Y-112390000D03*
X123750000Y-112390000D03*
X126290000Y-112390000D03*
X128830000Y-112390000D03*
%TD*%
D21*
%TO.C,ST1*%
X87420000Y-111780000D03*
%TD*%
D22*
%TO.C,Driver1*%
X105000000Y-64500000D03*
X105000000Y-66500000D03*
X105000000Y-68500000D03*
X105000000Y-70500000D03*
X105000000Y-72500000D03*
X105000000Y-74500000D03*
X105000000Y-76500000D03*
X105000000Y-78500000D03*
X120000000Y-64500000D03*
X120000000Y-66500000D03*
X120000000Y-68500000D03*
X120000000Y-70500000D03*
X120000000Y-72500000D03*
X120000000Y-74500000D03*
X120000000Y-76500000D03*
X120000000Y-78500000D03*
%TD*%
D21*
%TO.C,ST3*%
X149690000Y-65110000D03*
%TD*%
D10*
%TO.C,C1*%
X88500000Y-80500000D03*
D11*
X85000000Y-80500000D03*
%TD*%
D23*
%TO.C,L1*%
X72550000Y-107000000D03*
X82450000Y-107000000D03*
%TD*%
D11*
%TO.C,R3*%
X93000000Y-99960000D03*
X93000000Y-102500000D03*
%TD*%
D24*
%TO.C,D4*%
X91980000Y-90240000D03*
X94080000Y-90240000D03*
%TD*%
D25*
%TO.C,C2*%
X98500000Y-66000000D03*
X98500000Y-68000000D03*
%TD*%
D26*
%TO.C,D5*%
X147440000Y-81142500D03*
X147440000Y-83242500D03*
%TD*%
D22*
%TO.C,Driver2*%
X130500000Y-64500000D03*
X130500000Y-66500000D03*
X130500000Y-68500000D03*
X130500000Y-70500000D03*
X130500000Y-72500000D03*
X130500000Y-74500000D03*
X130500000Y-76500000D03*
X130500000Y-78500000D03*
X145500000Y-64500000D03*
X145500000Y-66500000D03*
X145500000Y-68500000D03*
X145500000Y-70500000D03*
X145500000Y-72500000D03*
X145500000Y-74500000D03*
X145500000Y-76500000D03*
X145500000Y-78500000D03*
%TD*%
D21*
%TO.C,ST2*%
X149250000Y-109980000D03*
%TD*%
D27*
%TO.C,D3*%
X87000000Y-105000000D03*
D28*
X89540000Y-105000000D03*
%TD*%
D25*
%TO.C,C4*%
X125000000Y-65500000D03*
X125000000Y-67500000D03*
%TD*%
D29*
%TO.C,J1*%
X84350000Y-69460000D03*
D30*
X78350000Y-69460000D03*
D31*
X81350000Y-74160000D03*
%TD*%
D32*
%TO.C,U2*%
X144403440Y-83300000D03*
D33*
X141863440Y-83300000D03*
X139323440Y-83300000D03*
X136783440Y-83300000D03*
X134243440Y-83300000D03*
X131703440Y-83300000D03*
X129163440Y-83300000D03*
X126623440Y-83300000D03*
X124083440Y-83300000D03*
X121543440Y-83300000D03*
X119003440Y-83300000D03*
X116463440Y-83300000D03*
X113923440Y-83300000D03*
X111383440Y-83300000D03*
X108843440Y-83300000D03*
X106303440Y-83300000D03*
X103763440Y-83300000D03*
X101223440Y-83300000D03*
X98683440Y-83300000D03*
X98686160Y-108696320D03*
X101226160Y-108696320D03*
X103763440Y-108700000D03*
X106303440Y-108700000D03*
X108843440Y-108700000D03*
X111383440Y-108700000D03*
X113923440Y-108700000D03*
X116463440Y-108700000D03*
X119003440Y-108700000D03*
X121543440Y-108700000D03*
X124083440Y-108700000D03*
X126623440Y-108700000D03*
X129163440Y-108700000D03*
X131703440Y-108700000D03*
X134243440Y-108700000D03*
X136783440Y-108700000D03*
X139323440Y-108700000D03*
X141863440Y-108700000D03*
X144403440Y-108700000D03*
%TD*%
D34*
%TO.C,D1*%
X89000000Y-74310000D03*
D28*
X89000000Y-66690000D03*
%TD*%
D15*
%TO.C,J4*%
X97290000Y-76580000D03*
D16*
X97290000Y-74040000D03*
%TD*%
D35*
%TO.C,R4*%
X93480000Y-109825000D03*
X93480000Y-108175000D03*
%TD*%
D17*
%TO.C,J6*%
X126500000Y-78000000D03*
D18*
X126500000Y-76000000D03*
X126500000Y-74000000D03*
X126500000Y-72000000D03*
%TD*%
D11*
%TO.C,C3*%
X87750000Y-86500000D03*
X85250000Y-86500000D03*
%TD*%
%TO.C,R2*%
X93210000Y-78780000D03*
D20*
X93210000Y-86400000D03*
%TD*%
M02*
