%TF.GenerationSoftware,KiCad,Pcbnew,9.0.2*%
%TF.CreationDate,2025-05-20T20:50:19+05:30*%
%TF.ProjectId,esp32 master,65737033-3220-46d6-9173-7465722e6b69,rev?*%
%TF.SameCoordinates,Original*%
%TF.FileFunction,Legend,Top*%
%TF.FilePolarity,Positive*%
%FSLAX46Y46*%
G04 Gerber Fmt 4.6, Leading zero omitted, Abs format (unit mm)*
G04 Created by KiCad (PCBNEW 9.0.2) date 2025-05-20 20:50:19*
%MOMM*%
%LPD*%
G01*
G04 APERTURE LIST*
%ADD10C,0.200000*%
%ADD11C,0.150000*%
%ADD12C,0.120000*%
G04 APERTURE END LIST*
D10*
X125937768Y-114081695D02*
X126394911Y-114081695D01*
X126166339Y-114881695D02*
X126166339Y-114081695D01*
X127080625Y-114881695D02*
X126623482Y-114881695D01*
X126852054Y-114881695D02*
X126852054Y-114081695D01*
X126852054Y-114081695D02*
X126775863Y-114195980D01*
X126775863Y-114195980D02*
X126699673Y-114272171D01*
X126699673Y-114272171D02*
X126623482Y-114310266D01*
X108267768Y-114131695D02*
X108724911Y-114131695D01*
X108496339Y-114931695D02*
X108496339Y-114131695D01*
X108953482Y-114207885D02*
X108991578Y-114169790D01*
X108991578Y-114169790D02*
X109067768Y-114131695D01*
X109067768Y-114131695D02*
X109258244Y-114131695D01*
X109258244Y-114131695D02*
X109334435Y-114169790D01*
X109334435Y-114169790D02*
X109372530Y-114207885D01*
X109372530Y-114207885D02*
X109410625Y-114284076D01*
X109410625Y-114284076D02*
X109410625Y-114360266D01*
X109410625Y-114360266D02*
X109372530Y-114474552D01*
X109372530Y-114474552D02*
X108915387Y-114931695D01*
X108915387Y-114931695D02*
X109410625Y-114931695D01*
X123832054Y-75881695D02*
X123832054Y-75081695D01*
X123832054Y-75081695D02*
X124098720Y-75653123D01*
X124098720Y-75653123D02*
X124365387Y-75081695D01*
X124365387Y-75081695D02*
X124365387Y-75881695D01*
X124708244Y-75157885D02*
X124746340Y-75119790D01*
X124746340Y-75119790D02*
X124822530Y-75081695D01*
X124822530Y-75081695D02*
X125013006Y-75081695D01*
X125013006Y-75081695D02*
X125089197Y-75119790D01*
X125089197Y-75119790D02*
X125127292Y-75157885D01*
X125127292Y-75157885D02*
X125165387Y-75234076D01*
X125165387Y-75234076D02*
X125165387Y-75310266D01*
X125165387Y-75310266D02*
X125127292Y-75424552D01*
X125127292Y-75424552D02*
X124670149Y-75881695D01*
X124670149Y-75881695D02*
X125165387Y-75881695D01*
X120952054Y-114893740D02*
X120952054Y-114093740D01*
X121294910Y-114169930D02*
X121333006Y-114131835D01*
X121333006Y-114131835D02*
X121409196Y-114093740D01*
X121409196Y-114093740D02*
X121599672Y-114093740D01*
X121599672Y-114093740D02*
X121675863Y-114131835D01*
X121675863Y-114131835D02*
X121713958Y-114169930D01*
X121713958Y-114169930D02*
X121752053Y-114246121D01*
X121752053Y-114246121D02*
X121752053Y-114322311D01*
X121752053Y-114322311D02*
X121713958Y-114436597D01*
X121713958Y-114436597D02*
X121256815Y-114893740D01*
X121256815Y-114893740D02*
X121752053Y-114893740D01*
X128562054Y-114452647D02*
X128828720Y-114452647D01*
X128943006Y-114871695D02*
X128562054Y-114871695D01*
X128562054Y-114871695D02*
X128562054Y-114071695D01*
X128562054Y-114071695D02*
X128943006Y-114071695D01*
X129704911Y-114871695D02*
X129247768Y-114871695D01*
X129476340Y-114871695D02*
X129476340Y-114071695D01*
X129476340Y-114071695D02*
X129400149Y-114185980D01*
X129400149Y-114185980D02*
X129323959Y-114262171D01*
X129323959Y-114262171D02*
X129247768Y-114300266D01*
X98852054Y-73131695D02*
X98852054Y-72331695D01*
X98852054Y-72331695D02*
X99118720Y-72903123D01*
X99118720Y-72903123D02*
X99385387Y-72331695D01*
X99385387Y-72331695D02*
X99385387Y-73131695D01*
X100185387Y-73131695D02*
X99728244Y-73131695D01*
X99956816Y-73131695D02*
X99956816Y-72331695D01*
X99956816Y-72331695D02*
X99880625Y-72445980D01*
X99880625Y-72445980D02*
X99804435Y-72522171D01*
X99804435Y-72522171D02*
X99728244Y-72560266D01*
X97302054Y-114596933D02*
X97911578Y-114596933D01*
X97606816Y-114901695D02*
X97606816Y-114292171D01*
X98673482Y-114101695D02*
X98292530Y-114101695D01*
X98292530Y-114101695D02*
X98254434Y-114482647D01*
X98254434Y-114482647D02*
X98292530Y-114444552D01*
X98292530Y-114444552D02*
X98368720Y-114406457D01*
X98368720Y-114406457D02*
X98559196Y-114406457D01*
X98559196Y-114406457D02*
X98635387Y-114444552D01*
X98635387Y-114444552D02*
X98673482Y-114482647D01*
X98673482Y-114482647D02*
X98711577Y-114558838D01*
X98711577Y-114558838D02*
X98711577Y-114749314D01*
X98711577Y-114749314D02*
X98673482Y-114825504D01*
X98673482Y-114825504D02*
X98635387Y-114863600D01*
X98635387Y-114863600D02*
X98559196Y-114901695D01*
X98559196Y-114901695D02*
X98368720Y-114901695D01*
X98368720Y-114901695D02*
X98292530Y-114863600D01*
X98292530Y-114863600D02*
X98254434Y-114825504D01*
X98978244Y-114368361D02*
X99168720Y-114901695D01*
X99168720Y-114901695D02*
X99359197Y-114368361D01*
X98862054Y-75801695D02*
X98862054Y-75001695D01*
X98862054Y-75001695D02*
X99128720Y-75573123D01*
X99128720Y-75573123D02*
X99395387Y-75001695D01*
X99395387Y-75001695D02*
X99395387Y-75801695D01*
X99738244Y-75077885D02*
X99776340Y-75039790D01*
X99776340Y-75039790D02*
X99852530Y-75001695D01*
X99852530Y-75001695D02*
X100043006Y-75001695D01*
X100043006Y-75001695D02*
X100119197Y-75039790D01*
X100119197Y-75039790D02*
X100157292Y-75077885D01*
X100157292Y-75077885D02*
X100195387Y-75154076D01*
X100195387Y-75154076D02*
X100195387Y-75230266D01*
X100195387Y-75230266D02*
X100157292Y-75344552D01*
X100157292Y-75344552D02*
X99700149Y-75801695D01*
X99700149Y-75801695D02*
X100195387Y-75801695D01*
X96161101Y-114129790D02*
X96084911Y-114091695D01*
X96084911Y-114091695D02*
X95970625Y-114091695D01*
X95970625Y-114091695D02*
X95856339Y-114129790D01*
X95856339Y-114129790D02*
X95780149Y-114205980D01*
X95780149Y-114205980D02*
X95742054Y-114282171D01*
X95742054Y-114282171D02*
X95703958Y-114434552D01*
X95703958Y-114434552D02*
X95703958Y-114548838D01*
X95703958Y-114548838D02*
X95742054Y-114701219D01*
X95742054Y-114701219D02*
X95780149Y-114777409D01*
X95780149Y-114777409D02*
X95856339Y-114853600D01*
X95856339Y-114853600D02*
X95970625Y-114891695D01*
X95970625Y-114891695D02*
X96046816Y-114891695D01*
X96046816Y-114891695D02*
X96161101Y-114853600D01*
X96161101Y-114853600D02*
X96199197Y-114815504D01*
X96199197Y-114815504D02*
X96199197Y-114548838D01*
X96199197Y-114548838D02*
X96046816Y-114548838D01*
X105712054Y-114482647D02*
X105978720Y-114482647D01*
X106093006Y-114901695D02*
X105712054Y-114901695D01*
X105712054Y-114901695D02*
X105712054Y-114101695D01*
X105712054Y-114101695D02*
X106093006Y-114101695D01*
X106397768Y-114177885D02*
X106435864Y-114139790D01*
X106435864Y-114139790D02*
X106512054Y-114101695D01*
X106512054Y-114101695D02*
X106702530Y-114101695D01*
X106702530Y-114101695D02*
X106778721Y-114139790D01*
X106778721Y-114139790D02*
X106816816Y-114177885D01*
X106816816Y-114177885D02*
X106854911Y-114254076D01*
X106854911Y-114254076D02*
X106854911Y-114330266D01*
X106854911Y-114330266D02*
X106816816Y-114444552D01*
X106816816Y-114444552D02*
X106359673Y-114901695D01*
X106359673Y-114901695D02*
X106854911Y-114901695D01*
X118422054Y-114881695D02*
X118422054Y-114081695D01*
X119222053Y-114881695D02*
X118764910Y-114881695D01*
X118993482Y-114881695D02*
X118993482Y-114081695D01*
X118993482Y-114081695D02*
X118917291Y-114195980D01*
X118917291Y-114195980D02*
X118841101Y-114272171D01*
X118841101Y-114272171D02*
X118764910Y-114310266D01*
X123472054Y-114901695D02*
X123472054Y-114101695D01*
X123776815Y-114101695D02*
X124272053Y-114101695D01*
X124272053Y-114101695D02*
X124005387Y-114406457D01*
X124005387Y-114406457D02*
X124119672Y-114406457D01*
X124119672Y-114406457D02*
X124195863Y-114444552D01*
X124195863Y-114444552D02*
X124233958Y-114482647D01*
X124233958Y-114482647D02*
X124272053Y-114558838D01*
X124272053Y-114558838D02*
X124272053Y-114749314D01*
X124272053Y-114749314D02*
X124233958Y-114825504D01*
X124233958Y-114825504D02*
X124195863Y-114863600D01*
X124195863Y-114863600D02*
X124119672Y-114901695D01*
X124119672Y-114901695D02*
X123891101Y-114901695D01*
X123891101Y-114901695D02*
X123814910Y-114863600D01*
X123814910Y-114863600D02*
X123776815Y-114825504D01*
X123762054Y-72491695D02*
X123762054Y-71691695D01*
X123762054Y-71691695D02*
X124028720Y-72263123D01*
X124028720Y-72263123D02*
X124295387Y-71691695D01*
X124295387Y-71691695D02*
X124295387Y-72491695D01*
X125095387Y-72491695D02*
X124638244Y-72491695D01*
X124866816Y-72491695D02*
X124866816Y-71691695D01*
X124866816Y-71691695D02*
X124790625Y-71805980D01*
X124790625Y-71805980D02*
X124714435Y-71882171D01*
X124714435Y-71882171D02*
X124638244Y-71920266D01*
X100513958Y-114853600D02*
X100628244Y-114891695D01*
X100628244Y-114891695D02*
X100818720Y-114891695D01*
X100818720Y-114891695D02*
X100894911Y-114853600D01*
X100894911Y-114853600D02*
X100933006Y-114815504D01*
X100933006Y-114815504D02*
X100971101Y-114739314D01*
X100971101Y-114739314D02*
X100971101Y-114663123D01*
X100971101Y-114663123D02*
X100933006Y-114586933D01*
X100933006Y-114586933D02*
X100894911Y-114548838D01*
X100894911Y-114548838D02*
X100818720Y-114510742D01*
X100818720Y-114510742D02*
X100666339Y-114472647D01*
X100666339Y-114472647D02*
X100590149Y-114434552D01*
X100590149Y-114434552D02*
X100552054Y-114396457D01*
X100552054Y-114396457D02*
X100513958Y-114320266D01*
X100513958Y-114320266D02*
X100513958Y-114244076D01*
X100513958Y-114244076D02*
X100552054Y-114167885D01*
X100552054Y-114167885D02*
X100590149Y-114129790D01*
X100590149Y-114129790D02*
X100666339Y-114091695D01*
X100666339Y-114091695D02*
X100856816Y-114091695D01*
X100856816Y-114091695D02*
X100971101Y-114129790D01*
X101275863Y-114167885D02*
X101313959Y-114129790D01*
X101313959Y-114129790D02*
X101390149Y-114091695D01*
X101390149Y-114091695D02*
X101580625Y-114091695D01*
X101580625Y-114091695D02*
X101656816Y-114129790D01*
X101656816Y-114129790D02*
X101694911Y-114167885D01*
X101694911Y-114167885D02*
X101733006Y-114244076D01*
X101733006Y-114244076D02*
X101733006Y-114320266D01*
X101733006Y-114320266D02*
X101694911Y-114434552D01*
X101694911Y-114434552D02*
X101237768Y-114891695D01*
X101237768Y-114891695D02*
X101733006Y-114891695D01*
X103083958Y-114863600D02*
X103198244Y-114901695D01*
X103198244Y-114901695D02*
X103388720Y-114901695D01*
X103388720Y-114901695D02*
X103464911Y-114863600D01*
X103464911Y-114863600D02*
X103503006Y-114825504D01*
X103503006Y-114825504D02*
X103541101Y-114749314D01*
X103541101Y-114749314D02*
X103541101Y-114673123D01*
X103541101Y-114673123D02*
X103503006Y-114596933D01*
X103503006Y-114596933D02*
X103464911Y-114558838D01*
X103464911Y-114558838D02*
X103388720Y-114520742D01*
X103388720Y-114520742D02*
X103236339Y-114482647D01*
X103236339Y-114482647D02*
X103160149Y-114444552D01*
X103160149Y-114444552D02*
X103122054Y-114406457D01*
X103122054Y-114406457D02*
X103083958Y-114330266D01*
X103083958Y-114330266D02*
X103083958Y-114254076D01*
X103083958Y-114254076D02*
X103122054Y-114177885D01*
X103122054Y-114177885D02*
X103160149Y-114139790D01*
X103160149Y-114139790D02*
X103236339Y-114101695D01*
X103236339Y-114101695D02*
X103426816Y-114101695D01*
X103426816Y-114101695D02*
X103541101Y-114139790D01*
X104303006Y-114901695D02*
X103845863Y-114901695D01*
X104074435Y-114901695D02*
X104074435Y-114101695D01*
X104074435Y-114101695D02*
X103998244Y-114215980D01*
X103998244Y-114215980D02*
X103922054Y-114292171D01*
X103922054Y-114292171D02*
X103845863Y-114330266D01*
D11*
X70954819Y-77261904D02*
X71764342Y-77261904D01*
X71764342Y-77261904D02*
X71859580Y-77214285D01*
X71859580Y-77214285D02*
X71907200Y-77166666D01*
X71907200Y-77166666D02*
X71954819Y-77071428D01*
X71954819Y-77071428D02*
X71954819Y-76880952D01*
X71954819Y-76880952D02*
X71907200Y-76785714D01*
X71907200Y-76785714D02*
X71859580Y-76738095D01*
X71859580Y-76738095D02*
X71764342Y-76690476D01*
X71764342Y-76690476D02*
X70954819Y-76690476D01*
X71954819Y-75690476D02*
X71954819Y-76261904D01*
X71954819Y-75976190D02*
X70954819Y-75976190D01*
X70954819Y-75976190D02*
X71097676Y-76071428D01*
X71097676Y-76071428D02*
X71192914Y-76166666D01*
X71192914Y-76166666D02*
X71240533Y-76261904D01*
X92863333Y-92909580D02*
X92815714Y-92957200D01*
X92815714Y-92957200D02*
X92672857Y-93004819D01*
X92672857Y-93004819D02*
X92577619Y-93004819D01*
X92577619Y-93004819D02*
X92434762Y-92957200D01*
X92434762Y-92957200D02*
X92339524Y-92861961D01*
X92339524Y-92861961D02*
X92291905Y-92766723D01*
X92291905Y-92766723D02*
X92244286Y-92576247D01*
X92244286Y-92576247D02*
X92244286Y-92433390D01*
X92244286Y-92433390D02*
X92291905Y-92242914D01*
X92291905Y-92242914D02*
X92339524Y-92147676D01*
X92339524Y-92147676D02*
X92434762Y-92052438D01*
X92434762Y-92052438D02*
X92577619Y-92004819D01*
X92577619Y-92004819D02*
X92672857Y-92004819D01*
X92672857Y-92004819D02*
X92815714Y-92052438D01*
X92815714Y-92052438D02*
X92863333Y-92100057D01*
X93720476Y-92004819D02*
X93530000Y-92004819D01*
X93530000Y-92004819D02*
X93434762Y-92052438D01*
X93434762Y-92052438D02*
X93387143Y-92100057D01*
X93387143Y-92100057D02*
X93291905Y-92242914D01*
X93291905Y-92242914D02*
X93244286Y-92433390D01*
X93244286Y-92433390D02*
X93244286Y-92814342D01*
X93244286Y-92814342D02*
X93291905Y-92909580D01*
X93291905Y-92909580D02*
X93339524Y-92957200D01*
X93339524Y-92957200D02*
X93434762Y-93004819D01*
X93434762Y-93004819D02*
X93625238Y-93004819D01*
X93625238Y-93004819D02*
X93720476Y-92957200D01*
X93720476Y-92957200D02*
X93768095Y-92909580D01*
X93768095Y-92909580D02*
X93815714Y-92814342D01*
X93815714Y-92814342D02*
X93815714Y-92576247D01*
X93815714Y-92576247D02*
X93768095Y-92481009D01*
X93768095Y-92481009D02*
X93720476Y-92433390D01*
X93720476Y-92433390D02*
X93625238Y-92385771D01*
X93625238Y-92385771D02*
X93434762Y-92385771D01*
X93434762Y-92385771D02*
X93339524Y-92433390D01*
X93339524Y-92433390D02*
X93291905Y-92481009D01*
X93291905Y-92481009D02*
X93244286Y-92576247D01*
X110544819Y-112823333D02*
X111259104Y-112823333D01*
X111259104Y-112823333D02*
X111401961Y-112870952D01*
X111401961Y-112870952D02*
X111497200Y-112966190D01*
X111497200Y-112966190D02*
X111544819Y-113109047D01*
X111544819Y-113109047D02*
X111544819Y-113204285D01*
X110640057Y-112394761D02*
X110592438Y-112347142D01*
X110592438Y-112347142D02*
X110544819Y-112251904D01*
X110544819Y-112251904D02*
X110544819Y-112013809D01*
X110544819Y-112013809D02*
X110592438Y-111918571D01*
X110592438Y-111918571D02*
X110640057Y-111870952D01*
X110640057Y-111870952D02*
X110735295Y-111823333D01*
X110735295Y-111823333D02*
X110830533Y-111823333D01*
X110830533Y-111823333D02*
X110973390Y-111870952D01*
X110973390Y-111870952D02*
X111544819Y-112442380D01*
X111544819Y-112442380D02*
X111544819Y-111823333D01*
X101166666Y-79564819D02*
X101166666Y-80279104D01*
X101166666Y-80279104D02*
X101119047Y-80421961D01*
X101119047Y-80421961D02*
X101023809Y-80517200D01*
X101023809Y-80517200D02*
X100880952Y-80564819D01*
X100880952Y-80564819D02*
X100785714Y-80564819D01*
X102119047Y-79564819D02*
X101642857Y-79564819D01*
X101642857Y-79564819D02*
X101595238Y-80041009D01*
X101595238Y-80041009D02*
X101642857Y-79993390D01*
X101642857Y-79993390D02*
X101738095Y-79945771D01*
X101738095Y-79945771D02*
X101976190Y-79945771D01*
X101976190Y-79945771D02*
X102071428Y-79993390D01*
X102071428Y-79993390D02*
X102119047Y-80041009D01*
X102119047Y-80041009D02*
X102166666Y-80136247D01*
X102166666Y-80136247D02*
X102166666Y-80374342D01*
X102166666Y-80374342D02*
X102119047Y-80469580D01*
X102119047Y-80469580D02*
X102071428Y-80517200D01*
X102071428Y-80517200D02*
X101976190Y-80564819D01*
X101976190Y-80564819D02*
X101738095Y-80564819D01*
X101738095Y-80564819D02*
X101642857Y-80517200D01*
X101642857Y-80517200D02*
X101595238Y-80469580D01*
X115744819Y-112723333D02*
X116459104Y-112723333D01*
X116459104Y-112723333D02*
X116601961Y-112770952D01*
X116601961Y-112770952D02*
X116697200Y-112866190D01*
X116697200Y-112866190D02*
X116744819Y-113009047D01*
X116744819Y-113009047D02*
X116744819Y-113104285D01*
X115744819Y-112342380D02*
X115744819Y-111723333D01*
X115744819Y-111723333D02*
X116125771Y-112056666D01*
X116125771Y-112056666D02*
X116125771Y-111913809D01*
X116125771Y-111913809D02*
X116173390Y-111818571D01*
X116173390Y-111818571D02*
X116221009Y-111770952D01*
X116221009Y-111770952D02*
X116316247Y-111723333D01*
X116316247Y-111723333D02*
X116554342Y-111723333D01*
X116554342Y-111723333D02*
X116649580Y-111770952D01*
X116649580Y-111770952D02*
X116697200Y-111818571D01*
X116697200Y-111818571D02*
X116744819Y-111913809D01*
X116744819Y-111913809D02*
X116744819Y-112199523D01*
X116744819Y-112199523D02*
X116697200Y-112294761D01*
X116697200Y-112294761D02*
X116649580Y-112342380D01*
X85133333Y-108994819D02*
X84657143Y-108994819D01*
X84657143Y-108994819D02*
X84657143Y-107994819D01*
X85990476Y-108994819D02*
X85419048Y-108994819D01*
X85704762Y-108994819D02*
X85704762Y-107994819D01*
X85704762Y-107994819D02*
X85609524Y-108137676D01*
X85609524Y-108137676D02*
X85514286Y-108232914D01*
X85514286Y-108232914D02*
X85419048Y-108280533D01*
X95824819Y-101396666D02*
X95348628Y-101729999D01*
X95824819Y-101968094D02*
X94824819Y-101968094D01*
X94824819Y-101968094D02*
X94824819Y-101587142D01*
X94824819Y-101587142D02*
X94872438Y-101491904D01*
X94872438Y-101491904D02*
X94920057Y-101444285D01*
X94920057Y-101444285D02*
X95015295Y-101396666D01*
X95015295Y-101396666D02*
X95158152Y-101396666D01*
X95158152Y-101396666D02*
X95253390Y-101444285D01*
X95253390Y-101444285D02*
X95301009Y-101491904D01*
X95301009Y-101491904D02*
X95348628Y-101587142D01*
X95348628Y-101587142D02*
X95348628Y-101968094D01*
X94824819Y-101063332D02*
X94824819Y-100444285D01*
X94824819Y-100444285D02*
X95205771Y-100777618D01*
X95205771Y-100777618D02*
X95205771Y-100634761D01*
X95205771Y-100634761D02*
X95253390Y-100539523D01*
X95253390Y-100539523D02*
X95301009Y-100491904D01*
X95301009Y-100491904D02*
X95396247Y-100444285D01*
X95396247Y-100444285D02*
X95634342Y-100444285D01*
X95634342Y-100444285D02*
X95729580Y-100491904D01*
X95729580Y-100491904D02*
X95777200Y-100539523D01*
X95777200Y-100539523D02*
X95824819Y-100634761D01*
X95824819Y-100634761D02*
X95824819Y-100920475D01*
X95824819Y-100920475D02*
X95777200Y-101015713D01*
X95777200Y-101015713D02*
X95729580Y-101063332D01*
X98859580Y-71166666D02*
X98907200Y-71214285D01*
X98907200Y-71214285D02*
X98954819Y-71357142D01*
X98954819Y-71357142D02*
X98954819Y-71452380D01*
X98954819Y-71452380D02*
X98907200Y-71595237D01*
X98907200Y-71595237D02*
X98811961Y-71690475D01*
X98811961Y-71690475D02*
X98716723Y-71738094D01*
X98716723Y-71738094D02*
X98526247Y-71785713D01*
X98526247Y-71785713D02*
X98383390Y-71785713D01*
X98383390Y-71785713D02*
X98192914Y-71738094D01*
X98192914Y-71738094D02*
X98097676Y-71690475D01*
X98097676Y-71690475D02*
X98002438Y-71595237D01*
X98002438Y-71595237D02*
X97954819Y-71452380D01*
X97954819Y-71452380D02*
X97954819Y-71357142D01*
X97954819Y-71357142D02*
X98002438Y-71214285D01*
X98002438Y-71214285D02*
X98050057Y-71166666D01*
X98050057Y-70785713D02*
X98002438Y-70738094D01*
X98002438Y-70738094D02*
X97954819Y-70642856D01*
X97954819Y-70642856D02*
X97954819Y-70404761D01*
X97954819Y-70404761D02*
X98002438Y-70309523D01*
X98002438Y-70309523D02*
X98050057Y-70261904D01*
X98050057Y-70261904D02*
X98145295Y-70214285D01*
X98145295Y-70214285D02*
X98240533Y-70214285D01*
X98240533Y-70214285D02*
X98383390Y-70261904D01*
X98383390Y-70261904D02*
X98954819Y-70833332D01*
X98954819Y-70833332D02*
X98954819Y-70214285D01*
X87531905Y-102494819D02*
X87531905Y-101494819D01*
X87531905Y-101494819D02*
X87770000Y-101494819D01*
X87770000Y-101494819D02*
X87912857Y-101542438D01*
X87912857Y-101542438D02*
X88008095Y-101637676D01*
X88008095Y-101637676D02*
X88055714Y-101732914D01*
X88055714Y-101732914D02*
X88103333Y-101923390D01*
X88103333Y-101923390D02*
X88103333Y-102066247D01*
X88103333Y-102066247D02*
X88055714Y-102256723D01*
X88055714Y-102256723D02*
X88008095Y-102351961D01*
X88008095Y-102351961D02*
X87912857Y-102447200D01*
X87912857Y-102447200D02*
X87770000Y-102494819D01*
X87770000Y-102494819D02*
X87531905Y-102494819D01*
X88436667Y-101494819D02*
X89055714Y-101494819D01*
X89055714Y-101494819D02*
X88722381Y-101875771D01*
X88722381Y-101875771D02*
X88865238Y-101875771D01*
X88865238Y-101875771D02*
X88960476Y-101923390D01*
X88960476Y-101923390D02*
X89008095Y-101971009D01*
X89008095Y-101971009D02*
X89055714Y-102066247D01*
X89055714Y-102066247D02*
X89055714Y-102304342D01*
X89055714Y-102304342D02*
X89008095Y-102399580D01*
X89008095Y-102399580D02*
X88960476Y-102447200D01*
X88960476Y-102447200D02*
X88865238Y-102494819D01*
X88865238Y-102494819D02*
X88579524Y-102494819D01*
X88579524Y-102494819D02*
X88484286Y-102447200D01*
X88484286Y-102447200D02*
X88436667Y-102399580D01*
X127479580Y-69736666D02*
X127527200Y-69784285D01*
X127527200Y-69784285D02*
X127574819Y-69927142D01*
X127574819Y-69927142D02*
X127574819Y-70022380D01*
X127574819Y-70022380D02*
X127527200Y-70165237D01*
X127527200Y-70165237D02*
X127431961Y-70260475D01*
X127431961Y-70260475D02*
X127336723Y-70308094D01*
X127336723Y-70308094D02*
X127146247Y-70355713D01*
X127146247Y-70355713D02*
X127003390Y-70355713D01*
X127003390Y-70355713D02*
X126812914Y-70308094D01*
X126812914Y-70308094D02*
X126717676Y-70260475D01*
X126717676Y-70260475D02*
X126622438Y-70165237D01*
X126622438Y-70165237D02*
X126574819Y-70022380D01*
X126574819Y-70022380D02*
X126574819Y-69927142D01*
X126574819Y-69927142D02*
X126622438Y-69784285D01*
X126622438Y-69784285D02*
X126670057Y-69736666D01*
X126908152Y-68879523D02*
X127574819Y-68879523D01*
X126527200Y-69117618D02*
X127241485Y-69355713D01*
X127241485Y-69355713D02*
X127241485Y-68736666D01*
X75566666Y-74664819D02*
X75566666Y-75379104D01*
X75566666Y-75379104D02*
X75519047Y-75521961D01*
X75519047Y-75521961D02*
X75423809Y-75617200D01*
X75423809Y-75617200D02*
X75280952Y-75664819D01*
X75280952Y-75664819D02*
X75185714Y-75664819D01*
X76566666Y-75664819D02*
X75995238Y-75664819D01*
X76280952Y-75664819D02*
X76280952Y-74664819D01*
X76280952Y-74664819D02*
X76185714Y-74807676D01*
X76185714Y-74807676D02*
X76090476Y-74902914D01*
X76090476Y-74902914D02*
X75995238Y-74950533D01*
X86894819Y-66708094D02*
X85894819Y-66708094D01*
X85894819Y-66708094D02*
X85894819Y-66469999D01*
X85894819Y-66469999D02*
X85942438Y-66327142D01*
X85942438Y-66327142D02*
X86037676Y-66231904D01*
X86037676Y-66231904D02*
X86132914Y-66184285D01*
X86132914Y-66184285D02*
X86323390Y-66136666D01*
X86323390Y-66136666D02*
X86466247Y-66136666D01*
X86466247Y-66136666D02*
X86656723Y-66184285D01*
X86656723Y-66184285D02*
X86751961Y-66231904D01*
X86751961Y-66231904D02*
X86847200Y-66327142D01*
X86847200Y-66327142D02*
X86894819Y-66469999D01*
X86894819Y-66469999D02*
X86894819Y-66708094D01*
X86894819Y-65184285D02*
X86894819Y-65755713D01*
X86894819Y-65469999D02*
X85894819Y-65469999D01*
X85894819Y-65469999D02*
X86037676Y-65565237D01*
X86037676Y-65565237D02*
X86132914Y-65660475D01*
X86132914Y-65660475D02*
X86180533Y-65755713D01*
X87554819Y-74571904D02*
X86554819Y-74571904D01*
X87554819Y-74000476D02*
X86983390Y-74429047D01*
X86554819Y-74000476D02*
X87126247Y-74571904D01*
X96126666Y-76944819D02*
X96126666Y-77659104D01*
X96126666Y-77659104D02*
X96079047Y-77801961D01*
X96079047Y-77801961D02*
X95983809Y-77897200D01*
X95983809Y-77897200D02*
X95840952Y-77944819D01*
X95840952Y-77944819D02*
X95745714Y-77944819D01*
X96602857Y-77944819D02*
X96602857Y-76944819D01*
X96602857Y-76944819D02*
X96983809Y-76944819D01*
X96983809Y-76944819D02*
X97079047Y-76992438D01*
X97079047Y-76992438D02*
X97126666Y-77040057D01*
X97126666Y-77040057D02*
X97174285Y-77135295D01*
X97174285Y-77135295D02*
X97174285Y-77278152D01*
X97174285Y-77278152D02*
X97126666Y-77373390D01*
X97126666Y-77373390D02*
X97079047Y-77421009D01*
X97079047Y-77421009D02*
X96983809Y-77468628D01*
X96983809Y-77468628D02*
X96602857Y-77468628D01*
X98126666Y-77944819D02*
X97555238Y-77944819D01*
X97840952Y-77944819D02*
X97840952Y-76944819D01*
X97840952Y-76944819D02*
X97745714Y-77087676D01*
X97745714Y-77087676D02*
X97650476Y-77182914D01*
X97650476Y-77182914D02*
X97555238Y-77230533D01*
X126166666Y-79564819D02*
X126166666Y-80279104D01*
X126166666Y-80279104D02*
X126119047Y-80421961D01*
X126119047Y-80421961D02*
X126023809Y-80517200D01*
X126023809Y-80517200D02*
X125880952Y-80564819D01*
X125880952Y-80564819D02*
X125785714Y-80564819D01*
X127071428Y-79564819D02*
X126880952Y-79564819D01*
X126880952Y-79564819D02*
X126785714Y-79612438D01*
X126785714Y-79612438D02*
X126738095Y-79660057D01*
X126738095Y-79660057D02*
X126642857Y-79802914D01*
X126642857Y-79802914D02*
X126595238Y-79993390D01*
X126595238Y-79993390D02*
X126595238Y-80374342D01*
X126595238Y-80374342D02*
X126642857Y-80469580D01*
X126642857Y-80469580D02*
X126690476Y-80517200D01*
X126690476Y-80517200D02*
X126785714Y-80564819D01*
X126785714Y-80564819D02*
X126976190Y-80564819D01*
X126976190Y-80564819D02*
X127071428Y-80517200D01*
X127071428Y-80517200D02*
X127119047Y-80469580D01*
X127119047Y-80469580D02*
X127166666Y-80374342D01*
X127166666Y-80374342D02*
X127166666Y-80136247D01*
X127166666Y-80136247D02*
X127119047Y-80041009D01*
X127119047Y-80041009D02*
X127071428Y-79993390D01*
X127071428Y-79993390D02*
X126976190Y-79945771D01*
X126976190Y-79945771D02*
X126785714Y-79945771D01*
X126785714Y-79945771D02*
X126690476Y-79993390D01*
X126690476Y-79993390D02*
X126642857Y-80041009D01*
X126642857Y-80041009D02*
X126595238Y-80136247D01*
X86333333Y-88909580D02*
X86285714Y-88957200D01*
X86285714Y-88957200D02*
X86142857Y-89004819D01*
X86142857Y-89004819D02*
X86047619Y-89004819D01*
X86047619Y-89004819D02*
X85904762Y-88957200D01*
X85904762Y-88957200D02*
X85809524Y-88861961D01*
X85809524Y-88861961D02*
X85761905Y-88766723D01*
X85761905Y-88766723D02*
X85714286Y-88576247D01*
X85714286Y-88576247D02*
X85714286Y-88433390D01*
X85714286Y-88433390D02*
X85761905Y-88242914D01*
X85761905Y-88242914D02*
X85809524Y-88147676D01*
X85809524Y-88147676D02*
X85904762Y-88052438D01*
X85904762Y-88052438D02*
X86047619Y-88004819D01*
X86047619Y-88004819D02*
X86142857Y-88004819D01*
X86142857Y-88004819D02*
X86285714Y-88052438D01*
X86285714Y-88052438D02*
X86333333Y-88100057D01*
X86666667Y-88004819D02*
X87285714Y-88004819D01*
X87285714Y-88004819D02*
X86952381Y-88385771D01*
X86952381Y-88385771D02*
X87095238Y-88385771D01*
X87095238Y-88385771D02*
X87190476Y-88433390D01*
X87190476Y-88433390D02*
X87238095Y-88481009D01*
X87238095Y-88481009D02*
X87285714Y-88576247D01*
X87285714Y-88576247D02*
X87285714Y-88814342D01*
X87285714Y-88814342D02*
X87238095Y-88909580D01*
X87238095Y-88909580D02*
X87190476Y-88957200D01*
X87190476Y-88957200D02*
X87095238Y-89004819D01*
X87095238Y-89004819D02*
X86809524Y-89004819D01*
X86809524Y-89004819D02*
X86714286Y-88957200D01*
X86714286Y-88957200D02*
X86666667Y-88909580D01*
X83859580Y-91666666D02*
X83907200Y-91714285D01*
X83907200Y-91714285D02*
X83954819Y-91857142D01*
X83954819Y-91857142D02*
X83954819Y-91952380D01*
X83954819Y-91952380D02*
X83907200Y-92095237D01*
X83907200Y-92095237D02*
X83811961Y-92190475D01*
X83811961Y-92190475D02*
X83716723Y-92238094D01*
X83716723Y-92238094D02*
X83526247Y-92285713D01*
X83526247Y-92285713D02*
X83383390Y-92285713D01*
X83383390Y-92285713D02*
X83192914Y-92238094D01*
X83192914Y-92238094D02*
X83097676Y-92190475D01*
X83097676Y-92190475D02*
X83002438Y-92095237D01*
X83002438Y-92095237D02*
X82954819Y-91952380D01*
X82954819Y-91952380D02*
X82954819Y-91857142D01*
X82954819Y-91857142D02*
X83002438Y-91714285D01*
X83002438Y-91714285D02*
X83050057Y-91666666D01*
X82954819Y-90761904D02*
X82954819Y-91238094D01*
X82954819Y-91238094D02*
X83431009Y-91285713D01*
X83431009Y-91285713D02*
X83383390Y-91238094D01*
X83383390Y-91238094D02*
X83335771Y-91142856D01*
X83335771Y-91142856D02*
X83335771Y-90904761D01*
X83335771Y-90904761D02*
X83383390Y-90809523D01*
X83383390Y-90809523D02*
X83431009Y-90761904D01*
X83431009Y-90761904D02*
X83526247Y-90714285D01*
X83526247Y-90714285D02*
X83764342Y-90714285D01*
X83764342Y-90714285D02*
X83859580Y-90761904D01*
X83859580Y-90761904D02*
X83907200Y-90809523D01*
X83907200Y-90809523D02*
X83954819Y-90904761D01*
X83954819Y-90904761D02*
X83954819Y-91142856D01*
X83954819Y-91142856D02*
X83907200Y-91238094D01*
X83907200Y-91238094D02*
X83859580Y-91285713D01*
X96324819Y-71666666D02*
X95848628Y-71999999D01*
X96324819Y-72238094D02*
X95324819Y-72238094D01*
X95324819Y-72238094D02*
X95324819Y-71857142D01*
X95324819Y-71857142D02*
X95372438Y-71761904D01*
X95372438Y-71761904D02*
X95420057Y-71714285D01*
X95420057Y-71714285D02*
X95515295Y-71666666D01*
X95515295Y-71666666D02*
X95658152Y-71666666D01*
X95658152Y-71666666D02*
X95753390Y-71714285D01*
X95753390Y-71714285D02*
X95801009Y-71761904D01*
X95801009Y-71761904D02*
X95848628Y-71857142D01*
X95848628Y-71857142D02*
X95848628Y-72238094D01*
X96324819Y-70714285D02*
X96324819Y-71285713D01*
X96324819Y-70999999D02*
X95324819Y-70999999D01*
X95324819Y-70999999D02*
X95467676Y-71095237D01*
X95467676Y-71095237D02*
X95562914Y-71190475D01*
X95562914Y-71190475D02*
X95610533Y-71285713D01*
X110095238Y-65454819D02*
X110095238Y-64454819D01*
X110095238Y-64454819D02*
X110333333Y-64454819D01*
X110333333Y-64454819D02*
X110476190Y-64502438D01*
X110476190Y-64502438D02*
X110571428Y-64597676D01*
X110571428Y-64597676D02*
X110619047Y-64692914D01*
X110619047Y-64692914D02*
X110666666Y-64883390D01*
X110666666Y-64883390D02*
X110666666Y-65026247D01*
X110666666Y-65026247D02*
X110619047Y-65216723D01*
X110619047Y-65216723D02*
X110571428Y-65311961D01*
X110571428Y-65311961D02*
X110476190Y-65407200D01*
X110476190Y-65407200D02*
X110333333Y-65454819D01*
X110333333Y-65454819D02*
X110095238Y-65454819D01*
X111095238Y-65454819D02*
X111095238Y-64788152D01*
X111095238Y-64978628D02*
X111142857Y-64883390D01*
X111142857Y-64883390D02*
X111190476Y-64835771D01*
X111190476Y-64835771D02*
X111285714Y-64788152D01*
X111285714Y-64788152D02*
X111380952Y-64788152D01*
X111714286Y-65454819D02*
X111714286Y-64788152D01*
X111714286Y-64454819D02*
X111666667Y-64502438D01*
X111666667Y-64502438D02*
X111714286Y-64550057D01*
X111714286Y-64550057D02*
X111761905Y-64502438D01*
X111761905Y-64502438D02*
X111714286Y-64454819D01*
X111714286Y-64454819D02*
X111714286Y-64550057D01*
X112095238Y-64788152D02*
X112333333Y-65454819D01*
X112333333Y-65454819D02*
X112571428Y-64788152D01*
X113333333Y-65407200D02*
X113238095Y-65454819D01*
X113238095Y-65454819D02*
X113047619Y-65454819D01*
X113047619Y-65454819D02*
X112952381Y-65407200D01*
X112952381Y-65407200D02*
X112904762Y-65311961D01*
X112904762Y-65311961D02*
X112904762Y-64931009D01*
X112904762Y-64931009D02*
X112952381Y-64835771D01*
X112952381Y-64835771D02*
X113047619Y-64788152D01*
X113047619Y-64788152D02*
X113238095Y-64788152D01*
X113238095Y-64788152D02*
X113333333Y-64835771D01*
X113333333Y-64835771D02*
X113380952Y-64931009D01*
X113380952Y-64931009D02*
X113380952Y-65026247D01*
X113380952Y-65026247D02*
X112904762Y-65121485D01*
X113809524Y-65454819D02*
X113809524Y-64788152D01*
X113809524Y-64978628D02*
X113857143Y-64883390D01*
X113857143Y-64883390D02*
X113904762Y-64835771D01*
X113904762Y-64835771D02*
X114000000Y-64788152D01*
X114000000Y-64788152D02*
X114095238Y-64788152D01*
X114952381Y-65454819D02*
X114380953Y-65454819D01*
X114666667Y-65454819D02*
X114666667Y-64454819D01*
X114666667Y-64454819D02*
X114571429Y-64597676D01*
X114571429Y-64597676D02*
X114476191Y-64692914D01*
X114476191Y-64692914D02*
X114380953Y-64740533D01*
X89680682Y-76359580D02*
X89633063Y-76407200D01*
X89633063Y-76407200D02*
X89490206Y-76454819D01*
X89490206Y-76454819D02*
X89394968Y-76454819D01*
X89394968Y-76454819D02*
X89252111Y-76407200D01*
X89252111Y-76407200D02*
X89156873Y-76311961D01*
X89156873Y-76311961D02*
X89109254Y-76216723D01*
X89109254Y-76216723D02*
X89061635Y-76026247D01*
X89061635Y-76026247D02*
X89061635Y-75883390D01*
X89061635Y-75883390D02*
X89109254Y-75692914D01*
X89109254Y-75692914D02*
X89156873Y-75597676D01*
X89156873Y-75597676D02*
X89252111Y-75502438D01*
X89252111Y-75502438D02*
X89394968Y-75454819D01*
X89394968Y-75454819D02*
X89490206Y-75454819D01*
X89490206Y-75454819D02*
X89633063Y-75502438D01*
X89633063Y-75502438D02*
X89680682Y-75550057D01*
X90633063Y-76454819D02*
X90061635Y-76454819D01*
X90347349Y-76454819D02*
X90347349Y-75454819D01*
X90347349Y-75454819D02*
X90252111Y-75597676D01*
X90252111Y-75597676D02*
X90156873Y-75692914D01*
X90156873Y-75692914D02*
X90061635Y-75740533D01*
X135595238Y-65454819D02*
X135595238Y-64454819D01*
X135595238Y-64454819D02*
X135833333Y-64454819D01*
X135833333Y-64454819D02*
X135976190Y-64502438D01*
X135976190Y-64502438D02*
X136071428Y-64597676D01*
X136071428Y-64597676D02*
X136119047Y-64692914D01*
X136119047Y-64692914D02*
X136166666Y-64883390D01*
X136166666Y-64883390D02*
X136166666Y-65026247D01*
X136166666Y-65026247D02*
X136119047Y-65216723D01*
X136119047Y-65216723D02*
X136071428Y-65311961D01*
X136071428Y-65311961D02*
X135976190Y-65407200D01*
X135976190Y-65407200D02*
X135833333Y-65454819D01*
X135833333Y-65454819D02*
X135595238Y-65454819D01*
X136595238Y-65454819D02*
X136595238Y-64788152D01*
X136595238Y-64978628D02*
X136642857Y-64883390D01*
X136642857Y-64883390D02*
X136690476Y-64835771D01*
X136690476Y-64835771D02*
X136785714Y-64788152D01*
X136785714Y-64788152D02*
X136880952Y-64788152D01*
X137214286Y-65454819D02*
X137214286Y-64788152D01*
X137214286Y-64454819D02*
X137166667Y-64502438D01*
X137166667Y-64502438D02*
X137214286Y-64550057D01*
X137214286Y-64550057D02*
X137261905Y-64502438D01*
X137261905Y-64502438D02*
X137214286Y-64454819D01*
X137214286Y-64454819D02*
X137214286Y-64550057D01*
X137595238Y-64788152D02*
X137833333Y-65454819D01*
X137833333Y-65454819D02*
X138071428Y-64788152D01*
X138833333Y-65407200D02*
X138738095Y-65454819D01*
X138738095Y-65454819D02*
X138547619Y-65454819D01*
X138547619Y-65454819D02*
X138452381Y-65407200D01*
X138452381Y-65407200D02*
X138404762Y-65311961D01*
X138404762Y-65311961D02*
X138404762Y-64931009D01*
X138404762Y-64931009D02*
X138452381Y-64835771D01*
X138452381Y-64835771D02*
X138547619Y-64788152D01*
X138547619Y-64788152D02*
X138738095Y-64788152D01*
X138738095Y-64788152D02*
X138833333Y-64835771D01*
X138833333Y-64835771D02*
X138880952Y-64931009D01*
X138880952Y-64931009D02*
X138880952Y-65026247D01*
X138880952Y-65026247D02*
X138404762Y-65121485D01*
X139309524Y-65454819D02*
X139309524Y-64788152D01*
X139309524Y-64978628D02*
X139357143Y-64883390D01*
X139357143Y-64883390D02*
X139404762Y-64835771D01*
X139404762Y-64835771D02*
X139500000Y-64788152D01*
X139500000Y-64788152D02*
X139595238Y-64788152D01*
X139880953Y-64550057D02*
X139928572Y-64502438D01*
X139928572Y-64502438D02*
X140023810Y-64454819D01*
X140023810Y-64454819D02*
X140261905Y-64454819D01*
X140261905Y-64454819D02*
X140357143Y-64502438D01*
X140357143Y-64502438D02*
X140404762Y-64550057D01*
X140404762Y-64550057D02*
X140452381Y-64645295D01*
X140452381Y-64645295D02*
X140452381Y-64740533D01*
X140452381Y-64740533D02*
X140404762Y-64883390D01*
X140404762Y-64883390D02*
X139833334Y-65454819D01*
X139833334Y-65454819D02*
X140452381Y-65454819D01*
X145958259Y-96761904D02*
X146767782Y-96761904D01*
X146767782Y-96761904D02*
X146863020Y-96714285D01*
X146863020Y-96714285D02*
X146910640Y-96666666D01*
X146910640Y-96666666D02*
X146958259Y-96571428D01*
X146958259Y-96571428D02*
X146958259Y-96380952D01*
X146958259Y-96380952D02*
X146910640Y-96285714D01*
X146910640Y-96285714D02*
X146863020Y-96238095D01*
X146863020Y-96238095D02*
X146767782Y-96190476D01*
X146767782Y-96190476D02*
X145958259Y-96190476D01*
X146053497Y-95761904D02*
X146005878Y-95714285D01*
X146005878Y-95714285D02*
X145958259Y-95619047D01*
X145958259Y-95619047D02*
X145958259Y-95380952D01*
X145958259Y-95380952D02*
X146005878Y-95285714D01*
X146005878Y-95285714D02*
X146053497Y-95238095D01*
X146053497Y-95238095D02*
X146148735Y-95190476D01*
X146148735Y-95190476D02*
X146243973Y-95190476D01*
X146243973Y-95190476D02*
X146386830Y-95238095D01*
X146386830Y-95238095D02*
X146958259Y-95809523D01*
X146958259Y-95809523D02*
X146958259Y-95190476D01*
X114678202Y-95931009D02*
X115011535Y-95931009D01*
X115154392Y-96454819D02*
X114678202Y-96454819D01*
X114678202Y-96454819D02*
X114678202Y-95454819D01*
X114678202Y-95454819D02*
X115154392Y-95454819D01*
X115535345Y-96407200D02*
X115678202Y-96454819D01*
X115678202Y-96454819D02*
X115916297Y-96454819D01*
X115916297Y-96454819D02*
X116011535Y-96407200D01*
X116011535Y-96407200D02*
X116059154Y-96359580D01*
X116059154Y-96359580D02*
X116106773Y-96264342D01*
X116106773Y-96264342D02*
X116106773Y-96169104D01*
X116106773Y-96169104D02*
X116059154Y-96073866D01*
X116059154Y-96073866D02*
X116011535Y-96026247D01*
X116011535Y-96026247D02*
X115916297Y-95978628D01*
X115916297Y-95978628D02*
X115725821Y-95931009D01*
X115725821Y-95931009D02*
X115630583Y-95883390D01*
X115630583Y-95883390D02*
X115582964Y-95835771D01*
X115582964Y-95835771D02*
X115535345Y-95740533D01*
X115535345Y-95740533D02*
X115535345Y-95645295D01*
X115535345Y-95645295D02*
X115582964Y-95550057D01*
X115582964Y-95550057D02*
X115630583Y-95502438D01*
X115630583Y-95502438D02*
X115725821Y-95454819D01*
X115725821Y-95454819D02*
X115963916Y-95454819D01*
X115963916Y-95454819D02*
X116106773Y-95502438D01*
X116535345Y-96454819D02*
X116535345Y-95454819D01*
X116535345Y-95454819D02*
X116916297Y-95454819D01*
X116916297Y-95454819D02*
X117011535Y-95502438D01*
X117011535Y-95502438D02*
X117059154Y-95550057D01*
X117059154Y-95550057D02*
X117106773Y-95645295D01*
X117106773Y-95645295D02*
X117106773Y-95788152D01*
X117106773Y-95788152D02*
X117059154Y-95883390D01*
X117059154Y-95883390D02*
X117011535Y-95931009D01*
X117011535Y-95931009D02*
X116916297Y-95978628D01*
X116916297Y-95978628D02*
X116535345Y-95978628D01*
X117440107Y-95454819D02*
X118059154Y-95454819D01*
X118059154Y-95454819D02*
X117725821Y-95835771D01*
X117725821Y-95835771D02*
X117868678Y-95835771D01*
X117868678Y-95835771D02*
X117963916Y-95883390D01*
X117963916Y-95883390D02*
X118011535Y-95931009D01*
X118011535Y-95931009D02*
X118059154Y-96026247D01*
X118059154Y-96026247D02*
X118059154Y-96264342D01*
X118059154Y-96264342D02*
X118011535Y-96359580D01*
X118011535Y-96359580D02*
X117963916Y-96407200D01*
X117963916Y-96407200D02*
X117868678Y-96454819D01*
X117868678Y-96454819D02*
X117582964Y-96454819D01*
X117582964Y-96454819D02*
X117487726Y-96407200D01*
X117487726Y-96407200D02*
X117440107Y-96359580D01*
X118440107Y-95550057D02*
X118487726Y-95502438D01*
X118487726Y-95502438D02*
X118582964Y-95454819D01*
X118582964Y-95454819D02*
X118821059Y-95454819D01*
X118821059Y-95454819D02*
X118916297Y-95502438D01*
X118916297Y-95502438D02*
X118963916Y-95550057D01*
X118963916Y-95550057D02*
X119011535Y-95645295D01*
X119011535Y-95645295D02*
X119011535Y-95740533D01*
X119011535Y-95740533D02*
X118963916Y-95883390D01*
X118963916Y-95883390D02*
X118392488Y-96454819D01*
X118392488Y-96454819D02*
X119011535Y-96454819D01*
X119440107Y-96073866D02*
X120202012Y-96073866D01*
X120678202Y-96454819D02*
X120678202Y-95454819D01*
X120678202Y-95454819D02*
X120916297Y-95454819D01*
X120916297Y-95454819D02*
X121059154Y-95502438D01*
X121059154Y-95502438D02*
X121154392Y-95597676D01*
X121154392Y-95597676D02*
X121202011Y-95692914D01*
X121202011Y-95692914D02*
X121249630Y-95883390D01*
X121249630Y-95883390D02*
X121249630Y-96026247D01*
X121249630Y-96026247D02*
X121202011Y-96216723D01*
X121202011Y-96216723D02*
X121154392Y-96311961D01*
X121154392Y-96311961D02*
X121059154Y-96407200D01*
X121059154Y-96407200D02*
X120916297Y-96454819D01*
X120916297Y-96454819D02*
X120678202Y-96454819D01*
X122059154Y-96407200D02*
X121963916Y-96454819D01*
X121963916Y-96454819D02*
X121773440Y-96454819D01*
X121773440Y-96454819D02*
X121678202Y-96407200D01*
X121678202Y-96407200D02*
X121630583Y-96311961D01*
X121630583Y-96311961D02*
X121630583Y-95931009D01*
X121630583Y-95931009D02*
X121678202Y-95835771D01*
X121678202Y-95835771D02*
X121773440Y-95788152D01*
X121773440Y-95788152D02*
X121963916Y-95788152D01*
X121963916Y-95788152D02*
X122059154Y-95835771D01*
X122059154Y-95835771D02*
X122106773Y-95931009D01*
X122106773Y-95931009D02*
X122106773Y-96026247D01*
X122106773Y-96026247D02*
X121630583Y-96121485D01*
X122440107Y-95788152D02*
X122678202Y-96454819D01*
X122678202Y-96454819D02*
X122916297Y-95788152D01*
X123297250Y-96454819D02*
X123297250Y-95454819D01*
X123868678Y-96454819D02*
X123440107Y-95883390D01*
X123868678Y-95454819D02*
X123297250Y-96026247D01*
X124297250Y-96454819D02*
X124297250Y-95788152D01*
X124297250Y-95454819D02*
X124249631Y-95502438D01*
X124249631Y-95502438D02*
X124297250Y-95550057D01*
X124297250Y-95550057D02*
X124344869Y-95502438D01*
X124344869Y-95502438D02*
X124297250Y-95454819D01*
X124297250Y-95454819D02*
X124297250Y-95550057D01*
X124630583Y-95788152D02*
X125011535Y-95788152D01*
X124773440Y-95454819D02*
X124773440Y-96311961D01*
X124773440Y-96311961D02*
X124821059Y-96407200D01*
X124821059Y-96407200D02*
X124916297Y-96454819D01*
X124916297Y-96454819D02*
X125011535Y-96454819D01*
X125916297Y-96359580D02*
X125868678Y-96407200D01*
X125868678Y-96407200D02*
X125725821Y-96454819D01*
X125725821Y-96454819D02*
X125630583Y-96454819D01*
X125630583Y-96454819D02*
X125487726Y-96407200D01*
X125487726Y-96407200D02*
X125392488Y-96311961D01*
X125392488Y-96311961D02*
X125344869Y-96216723D01*
X125344869Y-96216723D02*
X125297250Y-96026247D01*
X125297250Y-96026247D02*
X125297250Y-95883390D01*
X125297250Y-95883390D02*
X125344869Y-95692914D01*
X125344869Y-95692914D02*
X125392488Y-95597676D01*
X125392488Y-95597676D02*
X125487726Y-95502438D01*
X125487726Y-95502438D02*
X125630583Y-95454819D01*
X125630583Y-95454819D02*
X125725821Y-95454819D01*
X125725821Y-95454819D02*
X125868678Y-95502438D01*
X125868678Y-95502438D02*
X125916297Y-95550057D01*
X98977340Y-85379289D02*
X98977340Y-84903099D01*
X98977340Y-84903099D02*
X98501150Y-84855480D01*
X98501150Y-84855480D02*
X98548769Y-84903099D01*
X98548769Y-84903099D02*
X98596388Y-84998337D01*
X98596388Y-84998337D02*
X98596388Y-85236432D01*
X98596388Y-85236432D02*
X98548769Y-85331670D01*
X98548769Y-85331670D02*
X98501150Y-85379289D01*
X98501150Y-85379289D02*
X98405912Y-85426908D01*
X98405912Y-85426908D02*
X98167817Y-85426908D01*
X98167817Y-85426908D02*
X98072579Y-85379289D01*
X98072579Y-85379289D02*
X98024960Y-85331670D01*
X98024960Y-85331670D02*
X97977340Y-85236432D01*
X97977340Y-85236432D02*
X97977340Y-84998337D01*
X97977340Y-84998337D02*
X98024960Y-84903099D01*
X98024960Y-84903099D02*
X98072579Y-84855480D01*
X98977340Y-85712623D02*
X97977340Y-86045956D01*
X97977340Y-86045956D02*
X98977340Y-86379289D01*
X114274073Y-104731316D02*
X114307406Y-104664649D01*
X114307406Y-104664649D02*
X114307406Y-104564649D01*
X114307406Y-104564649D02*
X114274073Y-104464649D01*
X114274073Y-104464649D02*
X114207406Y-104397983D01*
X114207406Y-104397983D02*
X114140740Y-104364649D01*
X114140740Y-104364649D02*
X114007406Y-104331316D01*
X114007406Y-104331316D02*
X113907406Y-104331316D01*
X113907406Y-104331316D02*
X113774073Y-104364649D01*
X113774073Y-104364649D02*
X113707406Y-104397983D01*
X113707406Y-104397983D02*
X113640740Y-104464649D01*
X113640740Y-104464649D02*
X113607406Y-104564649D01*
X113607406Y-104564649D02*
X113607406Y-104631316D01*
X113607406Y-104631316D02*
X113640740Y-104731316D01*
X113640740Y-104731316D02*
X113674073Y-104764649D01*
X113674073Y-104764649D02*
X113907406Y-104764649D01*
X113907406Y-104764649D02*
X113907406Y-104631316D01*
X113607406Y-105064649D02*
X114307406Y-105064649D01*
X114307406Y-105064649D02*
X114307406Y-105331316D01*
X114307406Y-105331316D02*
X114274073Y-105397983D01*
X114274073Y-105397983D02*
X114240740Y-105431316D01*
X114240740Y-105431316D02*
X114174073Y-105464649D01*
X114174073Y-105464649D02*
X114074073Y-105464649D01*
X114074073Y-105464649D02*
X114007406Y-105431316D01*
X114007406Y-105431316D02*
X113974073Y-105397983D01*
X113974073Y-105397983D02*
X113940740Y-105331316D01*
X113940740Y-105331316D02*
X113940740Y-105064649D01*
X113607406Y-105764649D02*
X114307406Y-105764649D01*
X114307406Y-106231316D02*
X114307406Y-106364649D01*
X114307406Y-106364649D02*
X114274073Y-106431316D01*
X114274073Y-106431316D02*
X114207406Y-106497982D01*
X114207406Y-106497982D02*
X114074073Y-106531316D01*
X114074073Y-106531316D02*
X113840740Y-106531316D01*
X113840740Y-106531316D02*
X113707406Y-106497982D01*
X113707406Y-106497982D02*
X113640740Y-106431316D01*
X113640740Y-106431316D02*
X113607406Y-106364649D01*
X113607406Y-106364649D02*
X113607406Y-106231316D01*
X113607406Y-106231316D02*
X113640740Y-106164649D01*
X113640740Y-106164649D02*
X113707406Y-106097982D01*
X113707406Y-106097982D02*
X113840740Y-106064649D01*
X113840740Y-106064649D02*
X114074073Y-106064649D01*
X114074073Y-106064649D02*
X114207406Y-106097982D01*
X114207406Y-106097982D02*
X114274073Y-106164649D01*
X114274073Y-106164649D02*
X114307406Y-106231316D01*
X114074073Y-107131315D02*
X113607406Y-107131315D01*
X114340740Y-106964649D02*
X113840740Y-106797982D01*
X113840740Y-106797982D02*
X113840740Y-107231315D01*
X103447406Y-84835350D02*
X104147406Y-84835350D01*
X104147406Y-84835350D02*
X104147406Y-85002017D01*
X104147406Y-85002017D02*
X104114073Y-85102017D01*
X104114073Y-85102017D02*
X104047406Y-85168684D01*
X104047406Y-85168684D02*
X103980740Y-85202017D01*
X103980740Y-85202017D02*
X103847406Y-85235350D01*
X103847406Y-85235350D02*
X103747406Y-85235350D01*
X103747406Y-85235350D02*
X103614073Y-85202017D01*
X103614073Y-85202017D02*
X103547406Y-85168684D01*
X103547406Y-85168684D02*
X103480740Y-85102017D01*
X103480740Y-85102017D02*
X103447406Y-85002017D01*
X103447406Y-85002017D02*
X103447406Y-84835350D01*
X104147406Y-85468684D02*
X104147406Y-85902017D01*
X104147406Y-85902017D02*
X103880740Y-85668684D01*
X103880740Y-85668684D02*
X103880740Y-85768684D01*
X103880740Y-85768684D02*
X103847406Y-85835350D01*
X103847406Y-85835350D02*
X103814073Y-85868684D01*
X103814073Y-85868684D02*
X103747406Y-85902017D01*
X103747406Y-85902017D02*
X103580740Y-85902017D01*
X103580740Y-85902017D02*
X103514073Y-85868684D01*
X103514073Y-85868684D02*
X103480740Y-85835350D01*
X103480740Y-85835350D02*
X103447406Y-85768684D01*
X103447406Y-85768684D02*
X103447406Y-85568684D01*
X103447406Y-85568684D02*
X103480740Y-85502017D01*
X103480740Y-85502017D02*
X103514073Y-85468684D01*
X106654073Y-100564650D02*
X106687406Y-100497983D01*
X106687406Y-100497983D02*
X106687406Y-100397983D01*
X106687406Y-100397983D02*
X106654073Y-100297983D01*
X106654073Y-100297983D02*
X106587406Y-100231317D01*
X106587406Y-100231317D02*
X106520740Y-100197983D01*
X106520740Y-100197983D02*
X106387406Y-100164650D01*
X106387406Y-100164650D02*
X106287406Y-100164650D01*
X106287406Y-100164650D02*
X106154073Y-100197983D01*
X106154073Y-100197983D02*
X106087406Y-100231317D01*
X106087406Y-100231317D02*
X106020740Y-100297983D01*
X106020740Y-100297983D02*
X105987406Y-100397983D01*
X105987406Y-100397983D02*
X105987406Y-100464650D01*
X105987406Y-100464650D02*
X106020740Y-100564650D01*
X106020740Y-100564650D02*
X106054073Y-100597983D01*
X106054073Y-100597983D02*
X106287406Y-100597983D01*
X106287406Y-100597983D02*
X106287406Y-100464650D01*
X105987406Y-100897983D02*
X106687406Y-100897983D01*
X106687406Y-100897983D02*
X106687406Y-101164650D01*
X106687406Y-101164650D02*
X106654073Y-101231317D01*
X106654073Y-101231317D02*
X106620740Y-101264650D01*
X106620740Y-101264650D02*
X106554073Y-101297983D01*
X106554073Y-101297983D02*
X106454073Y-101297983D01*
X106454073Y-101297983D02*
X106387406Y-101264650D01*
X106387406Y-101264650D02*
X106354073Y-101231317D01*
X106354073Y-101231317D02*
X106320740Y-101164650D01*
X106320740Y-101164650D02*
X106320740Y-100897983D01*
X105987406Y-101597983D02*
X106687406Y-101597983D01*
X106687406Y-102064650D02*
X106687406Y-102197983D01*
X106687406Y-102197983D02*
X106654073Y-102264650D01*
X106654073Y-102264650D02*
X106587406Y-102331316D01*
X106587406Y-102331316D02*
X106454073Y-102364650D01*
X106454073Y-102364650D02*
X106220740Y-102364650D01*
X106220740Y-102364650D02*
X106087406Y-102331316D01*
X106087406Y-102331316D02*
X106020740Y-102264650D01*
X106020740Y-102264650D02*
X105987406Y-102197983D01*
X105987406Y-102197983D02*
X105987406Y-102064650D01*
X105987406Y-102064650D02*
X106020740Y-101997983D01*
X106020740Y-101997983D02*
X106087406Y-101931316D01*
X106087406Y-101931316D02*
X106220740Y-101897983D01*
X106220740Y-101897983D02*
X106454073Y-101897983D01*
X106454073Y-101897983D02*
X106587406Y-101931316D01*
X106587406Y-101931316D02*
X106654073Y-101997983D01*
X106654073Y-101997983D02*
X106687406Y-102064650D01*
X105987406Y-103031316D02*
X105987406Y-102631316D01*
X105987406Y-102831316D02*
X106687406Y-102831316D01*
X106687406Y-102831316D02*
X106587406Y-102764649D01*
X106587406Y-102764649D02*
X106520740Y-102697983D01*
X106520740Y-102697983D02*
X106487406Y-102631316D01*
X106687406Y-103664650D02*
X106687406Y-103331316D01*
X106687406Y-103331316D02*
X106354073Y-103297983D01*
X106354073Y-103297983D02*
X106387406Y-103331316D01*
X106387406Y-103331316D02*
X106420740Y-103397983D01*
X106420740Y-103397983D02*
X106420740Y-103564650D01*
X106420740Y-103564650D02*
X106387406Y-103631316D01*
X106387406Y-103631316D02*
X106354073Y-103664650D01*
X106354073Y-103664650D02*
X106287406Y-103697983D01*
X106287406Y-103697983D02*
X106120740Y-103697983D01*
X106120740Y-103697983D02*
X106054073Y-103664650D01*
X106054073Y-103664650D02*
X106020740Y-103631316D01*
X106020740Y-103631316D02*
X105987406Y-103564650D01*
X105987406Y-103564650D02*
X105987406Y-103397983D01*
X105987406Y-103397983D02*
X106020740Y-103331316D01*
X106020740Y-103331316D02*
X106054073Y-103297983D01*
X106720740Y-104497983D02*
X105820740Y-103897983D01*
X105987406Y-104731316D02*
X106687406Y-104731316D01*
X106687406Y-104731316D02*
X106187406Y-104964650D01*
X106187406Y-104964650D02*
X106687406Y-105197983D01*
X106687406Y-105197983D02*
X105987406Y-105197983D01*
X106687406Y-105431316D02*
X106687406Y-105831316D01*
X105987406Y-105631316D02*
X106687406Y-105631316D01*
X105987406Y-106064649D02*
X106687406Y-106064649D01*
X106687406Y-106064649D02*
X106687406Y-106231316D01*
X106687406Y-106231316D02*
X106654073Y-106331316D01*
X106654073Y-106331316D02*
X106587406Y-106397983D01*
X106587406Y-106397983D02*
X106520740Y-106431316D01*
X106520740Y-106431316D02*
X106387406Y-106464649D01*
X106387406Y-106464649D02*
X106287406Y-106464649D01*
X106287406Y-106464649D02*
X106154073Y-106431316D01*
X106154073Y-106431316D02*
X106087406Y-106397983D01*
X106087406Y-106397983D02*
X106020740Y-106331316D01*
X106020740Y-106331316D02*
X105987406Y-106231316D01*
X105987406Y-106231316D02*
X105987406Y-106064649D01*
X106687406Y-106897983D02*
X106687406Y-107031316D01*
X106687406Y-107031316D02*
X106654073Y-107097983D01*
X106654073Y-107097983D02*
X106587406Y-107164649D01*
X106587406Y-107164649D02*
X106454073Y-107197983D01*
X106454073Y-107197983D02*
X106220740Y-107197983D01*
X106220740Y-107197983D02*
X106087406Y-107164649D01*
X106087406Y-107164649D02*
X106020740Y-107097983D01*
X106020740Y-107097983D02*
X105987406Y-107031316D01*
X105987406Y-107031316D02*
X105987406Y-106897983D01*
X105987406Y-106897983D02*
X106020740Y-106831316D01*
X106020740Y-106831316D02*
X106087406Y-106764649D01*
X106087406Y-106764649D02*
X106220740Y-106731316D01*
X106220740Y-106731316D02*
X106454073Y-106731316D01*
X106454073Y-106731316D02*
X106587406Y-106764649D01*
X106587406Y-106764649D02*
X106654073Y-106831316D01*
X106654073Y-106831316D02*
X106687406Y-106897983D01*
X121920633Y-104541316D02*
X121953966Y-104474649D01*
X121953966Y-104474649D02*
X121953966Y-104374649D01*
X121953966Y-104374649D02*
X121920633Y-104274649D01*
X121920633Y-104274649D02*
X121853966Y-104207983D01*
X121853966Y-104207983D02*
X121787300Y-104174649D01*
X121787300Y-104174649D02*
X121653966Y-104141316D01*
X121653966Y-104141316D02*
X121553966Y-104141316D01*
X121553966Y-104141316D02*
X121420633Y-104174649D01*
X121420633Y-104174649D02*
X121353966Y-104207983D01*
X121353966Y-104207983D02*
X121287300Y-104274649D01*
X121287300Y-104274649D02*
X121253966Y-104374649D01*
X121253966Y-104374649D02*
X121253966Y-104441316D01*
X121253966Y-104441316D02*
X121287300Y-104541316D01*
X121287300Y-104541316D02*
X121320633Y-104574649D01*
X121320633Y-104574649D02*
X121553966Y-104574649D01*
X121553966Y-104574649D02*
X121553966Y-104441316D01*
X121253966Y-104874649D02*
X121953966Y-104874649D01*
X121953966Y-104874649D02*
X121953966Y-105141316D01*
X121953966Y-105141316D02*
X121920633Y-105207983D01*
X121920633Y-105207983D02*
X121887300Y-105241316D01*
X121887300Y-105241316D02*
X121820633Y-105274649D01*
X121820633Y-105274649D02*
X121720633Y-105274649D01*
X121720633Y-105274649D02*
X121653966Y-105241316D01*
X121653966Y-105241316D02*
X121620633Y-105207983D01*
X121620633Y-105207983D02*
X121587300Y-105141316D01*
X121587300Y-105141316D02*
X121587300Y-104874649D01*
X121253966Y-105574649D02*
X121953966Y-105574649D01*
X121953966Y-106041316D02*
X121953966Y-106174649D01*
X121953966Y-106174649D02*
X121920633Y-106241316D01*
X121920633Y-106241316D02*
X121853966Y-106307982D01*
X121853966Y-106307982D02*
X121720633Y-106341316D01*
X121720633Y-106341316D02*
X121487300Y-106341316D01*
X121487300Y-106341316D02*
X121353966Y-106307982D01*
X121353966Y-106307982D02*
X121287300Y-106241316D01*
X121287300Y-106241316D02*
X121253966Y-106174649D01*
X121253966Y-106174649D02*
X121253966Y-106041316D01*
X121253966Y-106041316D02*
X121287300Y-105974649D01*
X121287300Y-105974649D02*
X121353966Y-105907982D01*
X121353966Y-105907982D02*
X121487300Y-105874649D01*
X121487300Y-105874649D02*
X121720633Y-105874649D01*
X121720633Y-105874649D02*
X121853966Y-105907982D01*
X121853966Y-105907982D02*
X121920633Y-105974649D01*
X121920633Y-105974649D02*
X121953966Y-106041316D01*
X121953966Y-106974649D02*
X121953966Y-106641315D01*
X121953966Y-106641315D02*
X121620633Y-106607982D01*
X121620633Y-106607982D02*
X121653966Y-106641315D01*
X121653966Y-106641315D02*
X121687300Y-106707982D01*
X121687300Y-106707982D02*
X121687300Y-106874649D01*
X121687300Y-106874649D02*
X121653966Y-106941315D01*
X121653966Y-106941315D02*
X121620633Y-106974649D01*
X121620633Y-106974649D02*
X121553966Y-107007982D01*
X121553966Y-107007982D02*
X121387300Y-107007982D01*
X121387300Y-107007982D02*
X121320633Y-106974649D01*
X121320633Y-106974649D02*
X121287300Y-106941315D01*
X121287300Y-106941315D02*
X121253966Y-106874649D01*
X121253966Y-106874649D02*
X121253966Y-106707982D01*
X121253966Y-106707982D02*
X121287300Y-106641315D01*
X121287300Y-106641315D02*
X121320633Y-106607982D01*
X139674073Y-104064649D02*
X139707406Y-103997982D01*
X139707406Y-103997982D02*
X139707406Y-103897982D01*
X139707406Y-103897982D02*
X139674073Y-103797982D01*
X139674073Y-103797982D02*
X139607406Y-103731316D01*
X139607406Y-103731316D02*
X139540740Y-103697982D01*
X139540740Y-103697982D02*
X139407406Y-103664649D01*
X139407406Y-103664649D02*
X139307406Y-103664649D01*
X139307406Y-103664649D02*
X139174073Y-103697982D01*
X139174073Y-103697982D02*
X139107406Y-103731316D01*
X139107406Y-103731316D02*
X139040740Y-103797982D01*
X139040740Y-103797982D02*
X139007406Y-103897982D01*
X139007406Y-103897982D02*
X139007406Y-103964649D01*
X139007406Y-103964649D02*
X139040740Y-104064649D01*
X139040740Y-104064649D02*
X139074073Y-104097982D01*
X139074073Y-104097982D02*
X139307406Y-104097982D01*
X139307406Y-104097982D02*
X139307406Y-103964649D01*
X139007406Y-104397982D02*
X139707406Y-104397982D01*
X139707406Y-104397982D02*
X139707406Y-104664649D01*
X139707406Y-104664649D02*
X139674073Y-104731316D01*
X139674073Y-104731316D02*
X139640740Y-104764649D01*
X139640740Y-104764649D02*
X139574073Y-104797982D01*
X139574073Y-104797982D02*
X139474073Y-104797982D01*
X139474073Y-104797982D02*
X139407406Y-104764649D01*
X139407406Y-104764649D02*
X139374073Y-104731316D01*
X139374073Y-104731316D02*
X139340740Y-104664649D01*
X139340740Y-104664649D02*
X139340740Y-104397982D01*
X139007406Y-105097982D02*
X139707406Y-105097982D01*
X139707406Y-105564649D02*
X139707406Y-105697982D01*
X139707406Y-105697982D02*
X139674073Y-105764649D01*
X139674073Y-105764649D02*
X139607406Y-105831315D01*
X139607406Y-105831315D02*
X139474073Y-105864649D01*
X139474073Y-105864649D02*
X139240740Y-105864649D01*
X139240740Y-105864649D02*
X139107406Y-105831315D01*
X139107406Y-105831315D02*
X139040740Y-105764649D01*
X139040740Y-105764649D02*
X139007406Y-105697982D01*
X139007406Y-105697982D02*
X139007406Y-105564649D01*
X139007406Y-105564649D02*
X139040740Y-105497982D01*
X139040740Y-105497982D02*
X139107406Y-105431315D01*
X139107406Y-105431315D02*
X139240740Y-105397982D01*
X139240740Y-105397982D02*
X139474073Y-105397982D01*
X139474073Y-105397982D02*
X139607406Y-105431315D01*
X139607406Y-105431315D02*
X139674073Y-105497982D01*
X139674073Y-105497982D02*
X139707406Y-105564649D01*
X139640740Y-106131315D02*
X139674073Y-106164648D01*
X139674073Y-106164648D02*
X139707406Y-106231315D01*
X139707406Y-106231315D02*
X139707406Y-106397982D01*
X139707406Y-106397982D02*
X139674073Y-106464648D01*
X139674073Y-106464648D02*
X139640740Y-106497982D01*
X139640740Y-106497982D02*
X139574073Y-106531315D01*
X139574073Y-106531315D02*
X139507406Y-106531315D01*
X139507406Y-106531315D02*
X139407406Y-106497982D01*
X139407406Y-106497982D02*
X139007406Y-106097982D01*
X139007406Y-106097982D02*
X139007406Y-106531315D01*
X139640740Y-106797982D02*
X139674073Y-106831315D01*
X139674073Y-106831315D02*
X139707406Y-106897982D01*
X139707406Y-106897982D02*
X139707406Y-107064649D01*
X139707406Y-107064649D02*
X139674073Y-107131315D01*
X139674073Y-107131315D02*
X139640740Y-107164649D01*
X139640740Y-107164649D02*
X139574073Y-107197982D01*
X139574073Y-107197982D02*
X139507406Y-107197982D01*
X139507406Y-107197982D02*
X139407406Y-107164649D01*
X139407406Y-107164649D02*
X139007406Y-106764649D01*
X139007406Y-106764649D02*
X139007406Y-107197982D01*
X139707406Y-84735350D02*
X139007406Y-84968684D01*
X139007406Y-84968684D02*
X139707406Y-85202017D01*
X139007406Y-85435350D02*
X139707406Y-85435350D01*
X139707406Y-85435350D02*
X139707406Y-85702017D01*
X139707406Y-85702017D02*
X139674073Y-85768684D01*
X139674073Y-85768684D02*
X139640740Y-85802017D01*
X139640740Y-85802017D02*
X139574073Y-85835350D01*
X139574073Y-85835350D02*
X139474073Y-85835350D01*
X139474073Y-85835350D02*
X139407406Y-85802017D01*
X139407406Y-85802017D02*
X139374073Y-85768684D01*
X139374073Y-85768684D02*
X139340740Y-85702017D01*
X139340740Y-85702017D02*
X139340740Y-85435350D01*
X139740740Y-86635350D02*
X138840740Y-86035350D01*
X139674073Y-87235350D02*
X139707406Y-87168683D01*
X139707406Y-87168683D02*
X139707406Y-87068683D01*
X139707406Y-87068683D02*
X139674073Y-86968683D01*
X139674073Y-86968683D02*
X139607406Y-86902017D01*
X139607406Y-86902017D02*
X139540740Y-86868683D01*
X139540740Y-86868683D02*
X139407406Y-86835350D01*
X139407406Y-86835350D02*
X139307406Y-86835350D01*
X139307406Y-86835350D02*
X139174073Y-86868683D01*
X139174073Y-86868683D02*
X139107406Y-86902017D01*
X139107406Y-86902017D02*
X139040740Y-86968683D01*
X139040740Y-86968683D02*
X139007406Y-87068683D01*
X139007406Y-87068683D02*
X139007406Y-87135350D01*
X139007406Y-87135350D02*
X139040740Y-87235350D01*
X139040740Y-87235350D02*
X139074073Y-87268683D01*
X139074073Y-87268683D02*
X139307406Y-87268683D01*
X139307406Y-87268683D02*
X139307406Y-87135350D01*
X139007406Y-87568683D02*
X139707406Y-87568683D01*
X139707406Y-87568683D02*
X139707406Y-87835350D01*
X139707406Y-87835350D02*
X139674073Y-87902017D01*
X139674073Y-87902017D02*
X139640740Y-87935350D01*
X139640740Y-87935350D02*
X139574073Y-87968683D01*
X139574073Y-87968683D02*
X139474073Y-87968683D01*
X139474073Y-87968683D02*
X139407406Y-87935350D01*
X139407406Y-87935350D02*
X139374073Y-87902017D01*
X139374073Y-87902017D02*
X139340740Y-87835350D01*
X139340740Y-87835350D02*
X139340740Y-87568683D01*
X139007406Y-88268683D02*
X139707406Y-88268683D01*
X139707406Y-88735350D02*
X139707406Y-88868683D01*
X139707406Y-88868683D02*
X139674073Y-88935350D01*
X139674073Y-88935350D02*
X139607406Y-89002016D01*
X139607406Y-89002016D02*
X139474073Y-89035350D01*
X139474073Y-89035350D02*
X139240740Y-89035350D01*
X139240740Y-89035350D02*
X139107406Y-89002016D01*
X139107406Y-89002016D02*
X139040740Y-88935350D01*
X139040740Y-88935350D02*
X139007406Y-88868683D01*
X139007406Y-88868683D02*
X139007406Y-88735350D01*
X139007406Y-88735350D02*
X139040740Y-88668683D01*
X139040740Y-88668683D02*
X139107406Y-88602016D01*
X139107406Y-88602016D02*
X139240740Y-88568683D01*
X139240740Y-88568683D02*
X139474073Y-88568683D01*
X139474073Y-88568683D02*
X139607406Y-88602016D01*
X139607406Y-88602016D02*
X139674073Y-88668683D01*
X139674073Y-88668683D02*
X139707406Y-88735350D01*
X139707406Y-89268683D02*
X139707406Y-89702016D01*
X139707406Y-89702016D02*
X139440740Y-89468683D01*
X139440740Y-89468683D02*
X139440740Y-89568683D01*
X139440740Y-89568683D02*
X139407406Y-89635349D01*
X139407406Y-89635349D02*
X139374073Y-89668683D01*
X139374073Y-89668683D02*
X139307406Y-89702016D01*
X139307406Y-89702016D02*
X139140740Y-89702016D01*
X139140740Y-89702016D02*
X139074073Y-89668683D01*
X139074073Y-89668683D02*
X139040740Y-89635349D01*
X139040740Y-89635349D02*
X139007406Y-89568683D01*
X139007406Y-89568683D02*
X139007406Y-89368683D01*
X139007406Y-89368683D02*
X139040740Y-89302016D01*
X139040740Y-89302016D02*
X139074073Y-89268683D01*
X139707406Y-90302016D02*
X139707406Y-90168683D01*
X139707406Y-90168683D02*
X139674073Y-90102016D01*
X139674073Y-90102016D02*
X139640740Y-90068683D01*
X139640740Y-90068683D02*
X139540740Y-90002016D01*
X139540740Y-90002016D02*
X139407406Y-89968683D01*
X139407406Y-89968683D02*
X139140740Y-89968683D01*
X139140740Y-89968683D02*
X139074073Y-90002016D01*
X139074073Y-90002016D02*
X139040740Y-90035350D01*
X139040740Y-90035350D02*
X139007406Y-90102016D01*
X139007406Y-90102016D02*
X139007406Y-90235350D01*
X139007406Y-90235350D02*
X139040740Y-90302016D01*
X139040740Y-90302016D02*
X139074073Y-90335350D01*
X139074073Y-90335350D02*
X139140740Y-90368683D01*
X139140740Y-90368683D02*
X139307406Y-90368683D01*
X139307406Y-90368683D02*
X139374073Y-90335350D01*
X139374073Y-90335350D02*
X139407406Y-90302016D01*
X139407406Y-90302016D02*
X139440740Y-90235350D01*
X139440740Y-90235350D02*
X139440740Y-90102016D01*
X139440740Y-90102016D02*
X139407406Y-90035350D01*
X139407406Y-90035350D02*
X139374073Y-90002016D01*
X139374073Y-90002016D02*
X139307406Y-89968683D01*
X121894073Y-85202017D02*
X121927406Y-85135350D01*
X121927406Y-85135350D02*
X121927406Y-85035350D01*
X121927406Y-85035350D02*
X121894073Y-84935350D01*
X121894073Y-84935350D02*
X121827406Y-84868684D01*
X121827406Y-84868684D02*
X121760740Y-84835350D01*
X121760740Y-84835350D02*
X121627406Y-84802017D01*
X121627406Y-84802017D02*
X121527406Y-84802017D01*
X121527406Y-84802017D02*
X121394073Y-84835350D01*
X121394073Y-84835350D02*
X121327406Y-84868684D01*
X121327406Y-84868684D02*
X121260740Y-84935350D01*
X121260740Y-84935350D02*
X121227406Y-85035350D01*
X121227406Y-85035350D02*
X121227406Y-85102017D01*
X121227406Y-85102017D02*
X121260740Y-85202017D01*
X121260740Y-85202017D02*
X121294073Y-85235350D01*
X121294073Y-85235350D02*
X121527406Y-85235350D01*
X121527406Y-85235350D02*
X121527406Y-85102017D01*
X121227406Y-85535350D02*
X121927406Y-85535350D01*
X121927406Y-85535350D02*
X121927406Y-85802017D01*
X121927406Y-85802017D02*
X121894073Y-85868684D01*
X121894073Y-85868684D02*
X121860740Y-85902017D01*
X121860740Y-85902017D02*
X121794073Y-85935350D01*
X121794073Y-85935350D02*
X121694073Y-85935350D01*
X121694073Y-85935350D02*
X121627406Y-85902017D01*
X121627406Y-85902017D02*
X121594073Y-85868684D01*
X121594073Y-85868684D02*
X121560740Y-85802017D01*
X121560740Y-85802017D02*
X121560740Y-85535350D01*
X121227406Y-86235350D02*
X121927406Y-86235350D01*
X121927406Y-86702017D02*
X121927406Y-86835350D01*
X121927406Y-86835350D02*
X121894073Y-86902017D01*
X121894073Y-86902017D02*
X121827406Y-86968683D01*
X121827406Y-86968683D02*
X121694073Y-87002017D01*
X121694073Y-87002017D02*
X121460740Y-87002017D01*
X121460740Y-87002017D02*
X121327406Y-86968683D01*
X121327406Y-86968683D02*
X121260740Y-86902017D01*
X121260740Y-86902017D02*
X121227406Y-86835350D01*
X121227406Y-86835350D02*
X121227406Y-86702017D01*
X121227406Y-86702017D02*
X121260740Y-86635350D01*
X121260740Y-86635350D02*
X121327406Y-86568683D01*
X121327406Y-86568683D02*
X121460740Y-86535350D01*
X121460740Y-86535350D02*
X121694073Y-86535350D01*
X121694073Y-86535350D02*
X121827406Y-86568683D01*
X121827406Y-86568683D02*
X121894073Y-86635350D01*
X121894073Y-86635350D02*
X121927406Y-86702017D01*
X121860740Y-87268683D02*
X121894073Y-87302016D01*
X121894073Y-87302016D02*
X121927406Y-87368683D01*
X121927406Y-87368683D02*
X121927406Y-87535350D01*
X121927406Y-87535350D02*
X121894073Y-87602016D01*
X121894073Y-87602016D02*
X121860740Y-87635350D01*
X121860740Y-87635350D02*
X121794073Y-87668683D01*
X121794073Y-87668683D02*
X121727406Y-87668683D01*
X121727406Y-87668683D02*
X121627406Y-87635350D01*
X121627406Y-87635350D02*
X121227406Y-87235350D01*
X121227406Y-87235350D02*
X121227406Y-87668683D01*
X121927406Y-88268683D02*
X121927406Y-88135350D01*
X121927406Y-88135350D02*
X121894073Y-88068683D01*
X121894073Y-88068683D02*
X121860740Y-88035350D01*
X121860740Y-88035350D02*
X121760740Y-87968683D01*
X121760740Y-87968683D02*
X121627406Y-87935350D01*
X121627406Y-87935350D02*
X121360740Y-87935350D01*
X121360740Y-87935350D02*
X121294073Y-87968683D01*
X121294073Y-87968683D02*
X121260740Y-88002017D01*
X121260740Y-88002017D02*
X121227406Y-88068683D01*
X121227406Y-88068683D02*
X121227406Y-88202017D01*
X121227406Y-88202017D02*
X121260740Y-88268683D01*
X121260740Y-88268683D02*
X121294073Y-88302017D01*
X121294073Y-88302017D02*
X121360740Y-88335350D01*
X121360740Y-88335350D02*
X121527406Y-88335350D01*
X121527406Y-88335350D02*
X121594073Y-88302017D01*
X121594073Y-88302017D02*
X121627406Y-88268683D01*
X121627406Y-88268683D02*
X121660740Y-88202017D01*
X121660740Y-88202017D02*
X121660740Y-88068683D01*
X121660740Y-88068683D02*
X121627406Y-88002017D01*
X121627406Y-88002017D02*
X121594073Y-87968683D01*
X121594073Y-87968683D02*
X121527406Y-87935350D01*
X129661001Y-105045601D02*
X129708620Y-104950363D01*
X129708620Y-104950363D02*
X129708620Y-104807506D01*
X129708620Y-104807506D02*
X129661001Y-104664649D01*
X129661001Y-104664649D02*
X129565763Y-104569411D01*
X129565763Y-104569411D02*
X129470525Y-104521792D01*
X129470525Y-104521792D02*
X129280049Y-104474173D01*
X129280049Y-104474173D02*
X129137192Y-104474173D01*
X129137192Y-104474173D02*
X128946716Y-104521792D01*
X128946716Y-104521792D02*
X128851478Y-104569411D01*
X128851478Y-104569411D02*
X128756240Y-104664649D01*
X128756240Y-104664649D02*
X128708620Y-104807506D01*
X128708620Y-104807506D02*
X128708620Y-104902744D01*
X128708620Y-104902744D02*
X128756240Y-105045601D01*
X128756240Y-105045601D02*
X128803859Y-105093220D01*
X128803859Y-105093220D02*
X129137192Y-105093220D01*
X129137192Y-105093220D02*
X129137192Y-104902744D01*
X128708620Y-105521792D02*
X129708620Y-105521792D01*
X129708620Y-105521792D02*
X128708620Y-106093220D01*
X128708620Y-106093220D02*
X129708620Y-106093220D01*
X128708620Y-106569411D02*
X129708620Y-106569411D01*
X129708620Y-106569411D02*
X129708620Y-106807506D01*
X129708620Y-106807506D02*
X129661001Y-106950363D01*
X129661001Y-106950363D02*
X129565763Y-107045601D01*
X129565763Y-107045601D02*
X129470525Y-107093220D01*
X129470525Y-107093220D02*
X129280049Y-107140839D01*
X129280049Y-107140839D02*
X129137192Y-107140839D01*
X129137192Y-107140839D02*
X128946716Y-107093220D01*
X128946716Y-107093220D02*
X128851478Y-107045601D01*
X128851478Y-107045601D02*
X128756240Y-106950363D01*
X128756240Y-106950363D02*
X128708620Y-106807506D01*
X128708620Y-106807506D02*
X128708620Y-106569411D01*
X100907406Y-106131315D02*
X101607406Y-106131315D01*
X101607406Y-106131315D02*
X101607406Y-106297982D01*
X101607406Y-106297982D02*
X101574073Y-106397982D01*
X101574073Y-106397982D02*
X101507406Y-106464649D01*
X101507406Y-106464649D02*
X101440740Y-106497982D01*
X101440740Y-106497982D02*
X101307406Y-106531315D01*
X101307406Y-106531315D02*
X101207406Y-106531315D01*
X101207406Y-106531315D02*
X101074073Y-106497982D01*
X101074073Y-106497982D02*
X101007406Y-106464649D01*
X101007406Y-106464649D02*
X100940740Y-106397982D01*
X100940740Y-106397982D02*
X100907406Y-106297982D01*
X100907406Y-106297982D02*
X100907406Y-106131315D01*
X101607406Y-106964649D02*
X101607406Y-107031315D01*
X101607406Y-107031315D02*
X101574073Y-107097982D01*
X101574073Y-107097982D02*
X101540740Y-107131315D01*
X101540740Y-107131315D02*
X101474073Y-107164649D01*
X101474073Y-107164649D02*
X101340740Y-107197982D01*
X101340740Y-107197982D02*
X101174073Y-107197982D01*
X101174073Y-107197982D02*
X101040740Y-107164649D01*
X101040740Y-107164649D02*
X100974073Y-107131315D01*
X100974073Y-107131315D02*
X100940740Y-107097982D01*
X100940740Y-107097982D02*
X100907406Y-107031315D01*
X100907406Y-107031315D02*
X100907406Y-106964649D01*
X100907406Y-106964649D02*
X100940740Y-106897982D01*
X100940740Y-106897982D02*
X100974073Y-106864649D01*
X100974073Y-106864649D02*
X101040740Y-106831315D01*
X101040740Y-106831315D02*
X101174073Y-106797982D01*
X101174073Y-106797982D02*
X101340740Y-106797982D01*
X101340740Y-106797982D02*
X101474073Y-106831315D01*
X101474073Y-106831315D02*
X101540740Y-106864649D01*
X101540740Y-106864649D02*
X101574073Y-106897982D01*
X101574073Y-106897982D02*
X101607406Y-106964649D01*
X111734073Y-104731316D02*
X111767406Y-104664649D01*
X111767406Y-104664649D02*
X111767406Y-104564649D01*
X111767406Y-104564649D02*
X111734073Y-104464649D01*
X111734073Y-104464649D02*
X111667406Y-104397983D01*
X111667406Y-104397983D02*
X111600740Y-104364649D01*
X111600740Y-104364649D02*
X111467406Y-104331316D01*
X111467406Y-104331316D02*
X111367406Y-104331316D01*
X111367406Y-104331316D02*
X111234073Y-104364649D01*
X111234073Y-104364649D02*
X111167406Y-104397983D01*
X111167406Y-104397983D02*
X111100740Y-104464649D01*
X111100740Y-104464649D02*
X111067406Y-104564649D01*
X111067406Y-104564649D02*
X111067406Y-104631316D01*
X111067406Y-104631316D02*
X111100740Y-104731316D01*
X111100740Y-104731316D02*
X111134073Y-104764649D01*
X111134073Y-104764649D02*
X111367406Y-104764649D01*
X111367406Y-104764649D02*
X111367406Y-104631316D01*
X111067406Y-105064649D02*
X111767406Y-105064649D01*
X111767406Y-105064649D02*
X111767406Y-105331316D01*
X111767406Y-105331316D02*
X111734073Y-105397983D01*
X111734073Y-105397983D02*
X111700740Y-105431316D01*
X111700740Y-105431316D02*
X111634073Y-105464649D01*
X111634073Y-105464649D02*
X111534073Y-105464649D01*
X111534073Y-105464649D02*
X111467406Y-105431316D01*
X111467406Y-105431316D02*
X111434073Y-105397983D01*
X111434073Y-105397983D02*
X111400740Y-105331316D01*
X111400740Y-105331316D02*
X111400740Y-105064649D01*
X111067406Y-105764649D02*
X111767406Y-105764649D01*
X111767406Y-106231316D02*
X111767406Y-106364649D01*
X111767406Y-106364649D02*
X111734073Y-106431316D01*
X111734073Y-106431316D02*
X111667406Y-106497982D01*
X111667406Y-106497982D02*
X111534073Y-106531316D01*
X111534073Y-106531316D02*
X111300740Y-106531316D01*
X111300740Y-106531316D02*
X111167406Y-106497982D01*
X111167406Y-106497982D02*
X111100740Y-106431316D01*
X111100740Y-106431316D02*
X111067406Y-106364649D01*
X111067406Y-106364649D02*
X111067406Y-106231316D01*
X111067406Y-106231316D02*
X111100740Y-106164649D01*
X111100740Y-106164649D02*
X111167406Y-106097982D01*
X111167406Y-106097982D02*
X111300740Y-106064649D01*
X111300740Y-106064649D02*
X111534073Y-106064649D01*
X111534073Y-106064649D02*
X111667406Y-106097982D01*
X111667406Y-106097982D02*
X111734073Y-106164649D01*
X111734073Y-106164649D02*
X111767406Y-106231316D01*
X111767406Y-106964649D02*
X111767406Y-107031315D01*
X111767406Y-107031315D02*
X111734073Y-107097982D01*
X111734073Y-107097982D02*
X111700740Y-107131315D01*
X111700740Y-107131315D02*
X111634073Y-107164649D01*
X111634073Y-107164649D02*
X111500740Y-107197982D01*
X111500740Y-107197982D02*
X111334073Y-107197982D01*
X111334073Y-107197982D02*
X111200740Y-107164649D01*
X111200740Y-107164649D02*
X111134073Y-107131315D01*
X111134073Y-107131315D02*
X111100740Y-107097982D01*
X111100740Y-107097982D02*
X111067406Y-107031315D01*
X111067406Y-107031315D02*
X111067406Y-106964649D01*
X111067406Y-106964649D02*
X111100740Y-106897982D01*
X111100740Y-106897982D02*
X111134073Y-106864649D01*
X111134073Y-106864649D02*
X111200740Y-106831315D01*
X111200740Y-106831315D02*
X111334073Y-106797982D01*
X111334073Y-106797982D02*
X111500740Y-106797982D01*
X111500740Y-106797982D02*
X111634073Y-106831315D01*
X111634073Y-106831315D02*
X111700740Y-106864649D01*
X111700740Y-106864649D02*
X111734073Y-106897982D01*
X111734073Y-106897982D02*
X111767406Y-106964649D01*
X100974073Y-85235350D02*
X100940740Y-85202017D01*
X100940740Y-85202017D02*
X100907406Y-85102017D01*
X100907406Y-85102017D02*
X100907406Y-85035350D01*
X100907406Y-85035350D02*
X100940740Y-84935350D01*
X100940740Y-84935350D02*
X101007406Y-84868684D01*
X101007406Y-84868684D02*
X101074073Y-84835350D01*
X101074073Y-84835350D02*
X101207406Y-84802017D01*
X101207406Y-84802017D02*
X101307406Y-84802017D01*
X101307406Y-84802017D02*
X101440740Y-84835350D01*
X101440740Y-84835350D02*
X101507406Y-84868684D01*
X101507406Y-84868684D02*
X101574073Y-84935350D01*
X101574073Y-84935350D02*
X101607406Y-85035350D01*
X101607406Y-85035350D02*
X101607406Y-85102017D01*
X101607406Y-85102017D02*
X101574073Y-85202017D01*
X101574073Y-85202017D02*
X101540740Y-85235350D01*
X100907406Y-85535350D02*
X101607406Y-85535350D01*
X101607406Y-85535350D02*
X101107406Y-85768684D01*
X101107406Y-85768684D02*
X101607406Y-86002017D01*
X101607406Y-86002017D02*
X100907406Y-86002017D01*
X100907406Y-86335350D02*
X101607406Y-86335350D01*
X101607406Y-86335350D02*
X101607406Y-86502017D01*
X101607406Y-86502017D02*
X101574073Y-86602017D01*
X101574073Y-86602017D02*
X101507406Y-86668684D01*
X101507406Y-86668684D02*
X101440740Y-86702017D01*
X101440740Y-86702017D02*
X101307406Y-86735350D01*
X101307406Y-86735350D02*
X101207406Y-86735350D01*
X101207406Y-86735350D02*
X101074073Y-86702017D01*
X101074073Y-86702017D02*
X101007406Y-86668684D01*
X101007406Y-86668684D02*
X100940740Y-86602017D01*
X100940740Y-86602017D02*
X100907406Y-86502017D01*
X100907406Y-86502017D02*
X100907406Y-86335350D01*
X144948620Y-84811541D02*
X144948620Y-85430588D01*
X144948620Y-85430588D02*
X144567668Y-85097255D01*
X144567668Y-85097255D02*
X144567668Y-85240112D01*
X144567668Y-85240112D02*
X144520049Y-85335350D01*
X144520049Y-85335350D02*
X144472430Y-85382969D01*
X144472430Y-85382969D02*
X144377192Y-85430588D01*
X144377192Y-85430588D02*
X144139097Y-85430588D01*
X144139097Y-85430588D02*
X144043859Y-85382969D01*
X144043859Y-85382969D02*
X143996240Y-85335350D01*
X143996240Y-85335350D02*
X143948620Y-85240112D01*
X143948620Y-85240112D02*
X143948620Y-84954398D01*
X143948620Y-84954398D02*
X143996240Y-84859160D01*
X143996240Y-84859160D02*
X144043859Y-84811541D01*
X144948620Y-85716303D02*
X143948620Y-86049636D01*
X143948620Y-86049636D02*
X144948620Y-86382969D01*
X144948620Y-86621065D02*
X144948620Y-87240112D01*
X144948620Y-87240112D02*
X144567668Y-86906779D01*
X144567668Y-86906779D02*
X144567668Y-87049636D01*
X144567668Y-87049636D02*
X144520049Y-87144874D01*
X144520049Y-87144874D02*
X144472430Y-87192493D01*
X144472430Y-87192493D02*
X144377192Y-87240112D01*
X144377192Y-87240112D02*
X144139097Y-87240112D01*
X144139097Y-87240112D02*
X144043859Y-87192493D01*
X144043859Y-87192493D02*
X143996240Y-87144874D01*
X143996240Y-87144874D02*
X143948620Y-87049636D01*
X143948620Y-87049636D02*
X143948620Y-86763922D01*
X143948620Y-86763922D02*
X143996240Y-86668684D01*
X143996240Y-86668684D02*
X144043859Y-86621065D01*
X137134073Y-100697983D02*
X137167406Y-100631316D01*
X137167406Y-100631316D02*
X137167406Y-100531316D01*
X137167406Y-100531316D02*
X137134073Y-100431316D01*
X137134073Y-100431316D02*
X137067406Y-100364650D01*
X137067406Y-100364650D02*
X137000740Y-100331316D01*
X137000740Y-100331316D02*
X136867406Y-100297983D01*
X136867406Y-100297983D02*
X136767406Y-100297983D01*
X136767406Y-100297983D02*
X136634073Y-100331316D01*
X136634073Y-100331316D02*
X136567406Y-100364650D01*
X136567406Y-100364650D02*
X136500740Y-100431316D01*
X136500740Y-100431316D02*
X136467406Y-100531316D01*
X136467406Y-100531316D02*
X136467406Y-100597983D01*
X136467406Y-100597983D02*
X136500740Y-100697983D01*
X136500740Y-100697983D02*
X136534073Y-100731316D01*
X136534073Y-100731316D02*
X136767406Y-100731316D01*
X136767406Y-100731316D02*
X136767406Y-100597983D01*
X136467406Y-101031316D02*
X137167406Y-101031316D01*
X137167406Y-101031316D02*
X137167406Y-101297983D01*
X137167406Y-101297983D02*
X137134073Y-101364650D01*
X137134073Y-101364650D02*
X137100740Y-101397983D01*
X137100740Y-101397983D02*
X137034073Y-101431316D01*
X137034073Y-101431316D02*
X136934073Y-101431316D01*
X136934073Y-101431316D02*
X136867406Y-101397983D01*
X136867406Y-101397983D02*
X136834073Y-101364650D01*
X136834073Y-101364650D02*
X136800740Y-101297983D01*
X136800740Y-101297983D02*
X136800740Y-101031316D01*
X136467406Y-101731316D02*
X137167406Y-101731316D01*
X137167406Y-102197983D02*
X137167406Y-102331316D01*
X137167406Y-102331316D02*
X137134073Y-102397983D01*
X137134073Y-102397983D02*
X137067406Y-102464649D01*
X137067406Y-102464649D02*
X136934073Y-102497983D01*
X136934073Y-102497983D02*
X136700740Y-102497983D01*
X136700740Y-102497983D02*
X136567406Y-102464649D01*
X136567406Y-102464649D02*
X136500740Y-102397983D01*
X136500740Y-102397983D02*
X136467406Y-102331316D01*
X136467406Y-102331316D02*
X136467406Y-102197983D01*
X136467406Y-102197983D02*
X136500740Y-102131316D01*
X136500740Y-102131316D02*
X136567406Y-102064649D01*
X136567406Y-102064649D02*
X136700740Y-102031316D01*
X136700740Y-102031316D02*
X136934073Y-102031316D01*
X136934073Y-102031316D02*
X137067406Y-102064649D01*
X137067406Y-102064649D02*
X137134073Y-102131316D01*
X137134073Y-102131316D02*
X137167406Y-102197983D01*
X136467406Y-103164649D02*
X136467406Y-102764649D01*
X136467406Y-102964649D02*
X137167406Y-102964649D01*
X137167406Y-102964649D02*
X137067406Y-102897982D01*
X137067406Y-102897982D02*
X137000740Y-102831316D01*
X137000740Y-102831316D02*
X136967406Y-102764649D01*
X137200740Y-103964649D02*
X136300740Y-103364649D01*
X137167406Y-104197982D02*
X136600740Y-104197982D01*
X136600740Y-104197982D02*
X136534073Y-104231316D01*
X136534073Y-104231316D02*
X136500740Y-104264649D01*
X136500740Y-104264649D02*
X136467406Y-104331316D01*
X136467406Y-104331316D02*
X136467406Y-104464649D01*
X136467406Y-104464649D02*
X136500740Y-104531316D01*
X136500740Y-104531316D02*
X136534073Y-104564649D01*
X136534073Y-104564649D02*
X136600740Y-104597982D01*
X136600740Y-104597982D02*
X137167406Y-104597982D01*
X137167406Y-105064649D02*
X137167406Y-105131315D01*
X137167406Y-105131315D02*
X137134073Y-105197982D01*
X137134073Y-105197982D02*
X137100740Y-105231315D01*
X137100740Y-105231315D02*
X137034073Y-105264649D01*
X137034073Y-105264649D02*
X136900740Y-105297982D01*
X136900740Y-105297982D02*
X136734073Y-105297982D01*
X136734073Y-105297982D02*
X136600740Y-105264649D01*
X136600740Y-105264649D02*
X136534073Y-105231315D01*
X136534073Y-105231315D02*
X136500740Y-105197982D01*
X136500740Y-105197982D02*
X136467406Y-105131315D01*
X136467406Y-105131315D02*
X136467406Y-105064649D01*
X136467406Y-105064649D02*
X136500740Y-104997982D01*
X136500740Y-104997982D02*
X136534073Y-104964649D01*
X136534073Y-104964649D02*
X136600740Y-104931315D01*
X136600740Y-104931315D02*
X136734073Y-104897982D01*
X136734073Y-104897982D02*
X136900740Y-104897982D01*
X136900740Y-104897982D02*
X137034073Y-104931315D01*
X137034073Y-104931315D02*
X137100740Y-104964649D01*
X137100740Y-104964649D02*
X137134073Y-104997982D01*
X137134073Y-104997982D02*
X137167406Y-105064649D01*
X137167406Y-105497982D02*
X137167406Y-105897982D01*
X136467406Y-105697982D02*
X137167406Y-105697982D01*
X137167406Y-106064649D02*
X136467406Y-106531315D01*
X137167406Y-106531315D02*
X136467406Y-106064649D01*
X136467406Y-106797982D02*
X137167406Y-106797982D01*
X137167406Y-106797982D02*
X137167406Y-106964649D01*
X137167406Y-106964649D02*
X137134073Y-107064649D01*
X137134073Y-107064649D02*
X137067406Y-107131316D01*
X137067406Y-107131316D02*
X137000740Y-107164649D01*
X137000740Y-107164649D02*
X136867406Y-107197982D01*
X136867406Y-107197982D02*
X136767406Y-107197982D01*
X136767406Y-107197982D02*
X136634073Y-107164649D01*
X136634073Y-107164649D02*
X136567406Y-107131316D01*
X136567406Y-107131316D02*
X136500740Y-107064649D01*
X136500740Y-107064649D02*
X136467406Y-106964649D01*
X136467406Y-106964649D02*
X136467406Y-106797982D01*
X119354073Y-104064649D02*
X119387406Y-103997982D01*
X119387406Y-103997982D02*
X119387406Y-103897982D01*
X119387406Y-103897982D02*
X119354073Y-103797982D01*
X119354073Y-103797982D02*
X119287406Y-103731316D01*
X119287406Y-103731316D02*
X119220740Y-103697982D01*
X119220740Y-103697982D02*
X119087406Y-103664649D01*
X119087406Y-103664649D02*
X118987406Y-103664649D01*
X118987406Y-103664649D02*
X118854073Y-103697982D01*
X118854073Y-103697982D02*
X118787406Y-103731316D01*
X118787406Y-103731316D02*
X118720740Y-103797982D01*
X118720740Y-103797982D02*
X118687406Y-103897982D01*
X118687406Y-103897982D02*
X118687406Y-103964649D01*
X118687406Y-103964649D02*
X118720740Y-104064649D01*
X118720740Y-104064649D02*
X118754073Y-104097982D01*
X118754073Y-104097982D02*
X118987406Y-104097982D01*
X118987406Y-104097982D02*
X118987406Y-103964649D01*
X118687406Y-104397982D02*
X119387406Y-104397982D01*
X119387406Y-104397982D02*
X119387406Y-104664649D01*
X119387406Y-104664649D02*
X119354073Y-104731316D01*
X119354073Y-104731316D02*
X119320740Y-104764649D01*
X119320740Y-104764649D02*
X119254073Y-104797982D01*
X119254073Y-104797982D02*
X119154073Y-104797982D01*
X119154073Y-104797982D02*
X119087406Y-104764649D01*
X119087406Y-104764649D02*
X119054073Y-104731316D01*
X119054073Y-104731316D02*
X119020740Y-104664649D01*
X119020740Y-104664649D02*
X119020740Y-104397982D01*
X118687406Y-105097982D02*
X119387406Y-105097982D01*
X119387406Y-105564649D02*
X119387406Y-105697982D01*
X119387406Y-105697982D02*
X119354073Y-105764649D01*
X119354073Y-105764649D02*
X119287406Y-105831315D01*
X119287406Y-105831315D02*
X119154073Y-105864649D01*
X119154073Y-105864649D02*
X118920740Y-105864649D01*
X118920740Y-105864649D02*
X118787406Y-105831315D01*
X118787406Y-105831315D02*
X118720740Y-105764649D01*
X118720740Y-105764649D02*
X118687406Y-105697982D01*
X118687406Y-105697982D02*
X118687406Y-105564649D01*
X118687406Y-105564649D02*
X118720740Y-105497982D01*
X118720740Y-105497982D02*
X118787406Y-105431315D01*
X118787406Y-105431315D02*
X118920740Y-105397982D01*
X118920740Y-105397982D02*
X119154073Y-105397982D01*
X119154073Y-105397982D02*
X119287406Y-105431315D01*
X119287406Y-105431315D02*
X119354073Y-105497982D01*
X119354073Y-105497982D02*
X119387406Y-105564649D01*
X118687406Y-106531315D02*
X118687406Y-106131315D01*
X118687406Y-106331315D02*
X119387406Y-106331315D01*
X119387406Y-106331315D02*
X119287406Y-106264648D01*
X119287406Y-106264648D02*
X119220740Y-106197982D01*
X119220740Y-106197982D02*
X119187406Y-106131315D01*
X119387406Y-106764649D02*
X119387406Y-107231315D01*
X119387406Y-107231315D02*
X118687406Y-106931315D01*
X103447406Y-106131315D02*
X104147406Y-106131315D01*
X104147406Y-106131315D02*
X104147406Y-106297982D01*
X104147406Y-106297982D02*
X104114073Y-106397982D01*
X104114073Y-106397982D02*
X104047406Y-106464649D01*
X104047406Y-106464649D02*
X103980740Y-106497982D01*
X103980740Y-106497982D02*
X103847406Y-106531315D01*
X103847406Y-106531315D02*
X103747406Y-106531315D01*
X103747406Y-106531315D02*
X103614073Y-106497982D01*
X103614073Y-106497982D02*
X103547406Y-106464649D01*
X103547406Y-106464649D02*
X103480740Y-106397982D01*
X103480740Y-106397982D02*
X103447406Y-106297982D01*
X103447406Y-106297982D02*
X103447406Y-106131315D01*
X103447406Y-107197982D02*
X103447406Y-106797982D01*
X103447406Y-106997982D02*
X104147406Y-106997982D01*
X104147406Y-106997982D02*
X104047406Y-106931315D01*
X104047406Y-106931315D02*
X103980740Y-106864649D01*
X103980740Y-106864649D02*
X103947406Y-106797982D01*
X144901001Y-105045601D02*
X144948620Y-104950363D01*
X144948620Y-104950363D02*
X144948620Y-104807506D01*
X144948620Y-104807506D02*
X144901001Y-104664649D01*
X144901001Y-104664649D02*
X144805763Y-104569411D01*
X144805763Y-104569411D02*
X144710525Y-104521792D01*
X144710525Y-104521792D02*
X144520049Y-104474173D01*
X144520049Y-104474173D02*
X144377192Y-104474173D01*
X144377192Y-104474173D02*
X144186716Y-104521792D01*
X144186716Y-104521792D02*
X144091478Y-104569411D01*
X144091478Y-104569411D02*
X143996240Y-104664649D01*
X143996240Y-104664649D02*
X143948620Y-104807506D01*
X143948620Y-104807506D02*
X143948620Y-104902744D01*
X143948620Y-104902744D02*
X143996240Y-105045601D01*
X143996240Y-105045601D02*
X144043859Y-105093220D01*
X144043859Y-105093220D02*
X144377192Y-105093220D01*
X144377192Y-105093220D02*
X144377192Y-104902744D01*
X143948620Y-105521792D02*
X144948620Y-105521792D01*
X144948620Y-105521792D02*
X143948620Y-106093220D01*
X143948620Y-106093220D02*
X144948620Y-106093220D01*
X143948620Y-106569411D02*
X144948620Y-106569411D01*
X144948620Y-106569411D02*
X144948620Y-106807506D01*
X144948620Y-106807506D02*
X144901001Y-106950363D01*
X144901001Y-106950363D02*
X144805763Y-107045601D01*
X144805763Y-107045601D02*
X144710525Y-107093220D01*
X144710525Y-107093220D02*
X144520049Y-107140839D01*
X144520049Y-107140839D02*
X144377192Y-107140839D01*
X144377192Y-107140839D02*
X144186716Y-107093220D01*
X144186716Y-107093220D02*
X144091478Y-107045601D01*
X144091478Y-107045601D02*
X143996240Y-106950363D01*
X143996240Y-106950363D02*
X143948620Y-106807506D01*
X143948620Y-106807506D02*
X143948620Y-106569411D01*
X124434073Y-104064649D02*
X124467406Y-103997982D01*
X124467406Y-103997982D02*
X124467406Y-103897982D01*
X124467406Y-103897982D02*
X124434073Y-103797982D01*
X124434073Y-103797982D02*
X124367406Y-103731316D01*
X124367406Y-103731316D02*
X124300740Y-103697982D01*
X124300740Y-103697982D02*
X124167406Y-103664649D01*
X124167406Y-103664649D02*
X124067406Y-103664649D01*
X124067406Y-103664649D02*
X123934073Y-103697982D01*
X123934073Y-103697982D02*
X123867406Y-103731316D01*
X123867406Y-103731316D02*
X123800740Y-103797982D01*
X123800740Y-103797982D02*
X123767406Y-103897982D01*
X123767406Y-103897982D02*
X123767406Y-103964649D01*
X123767406Y-103964649D02*
X123800740Y-104064649D01*
X123800740Y-104064649D02*
X123834073Y-104097982D01*
X123834073Y-104097982D02*
X124067406Y-104097982D01*
X124067406Y-104097982D02*
X124067406Y-103964649D01*
X123767406Y-104397982D02*
X124467406Y-104397982D01*
X124467406Y-104397982D02*
X124467406Y-104664649D01*
X124467406Y-104664649D02*
X124434073Y-104731316D01*
X124434073Y-104731316D02*
X124400740Y-104764649D01*
X124400740Y-104764649D02*
X124334073Y-104797982D01*
X124334073Y-104797982D02*
X124234073Y-104797982D01*
X124234073Y-104797982D02*
X124167406Y-104764649D01*
X124167406Y-104764649D02*
X124134073Y-104731316D01*
X124134073Y-104731316D02*
X124100740Y-104664649D01*
X124100740Y-104664649D02*
X124100740Y-104397982D01*
X123767406Y-105097982D02*
X124467406Y-105097982D01*
X124467406Y-105564649D02*
X124467406Y-105697982D01*
X124467406Y-105697982D02*
X124434073Y-105764649D01*
X124434073Y-105764649D02*
X124367406Y-105831315D01*
X124367406Y-105831315D02*
X124234073Y-105864649D01*
X124234073Y-105864649D02*
X124000740Y-105864649D01*
X124000740Y-105864649D02*
X123867406Y-105831315D01*
X123867406Y-105831315D02*
X123800740Y-105764649D01*
X123800740Y-105764649D02*
X123767406Y-105697982D01*
X123767406Y-105697982D02*
X123767406Y-105564649D01*
X123767406Y-105564649D02*
X123800740Y-105497982D01*
X123800740Y-105497982D02*
X123867406Y-105431315D01*
X123867406Y-105431315D02*
X124000740Y-105397982D01*
X124000740Y-105397982D02*
X124234073Y-105397982D01*
X124234073Y-105397982D02*
X124367406Y-105431315D01*
X124367406Y-105431315D02*
X124434073Y-105497982D01*
X124434073Y-105497982D02*
X124467406Y-105564649D01*
X123767406Y-106531315D02*
X123767406Y-106131315D01*
X123767406Y-106331315D02*
X124467406Y-106331315D01*
X124467406Y-106331315D02*
X124367406Y-106264648D01*
X124367406Y-106264648D02*
X124300740Y-106197982D01*
X124300740Y-106197982D02*
X124267406Y-106131315D01*
X124167406Y-106931315D02*
X124200740Y-106864649D01*
X124200740Y-106864649D02*
X124234073Y-106831315D01*
X124234073Y-106831315D02*
X124300740Y-106797982D01*
X124300740Y-106797982D02*
X124334073Y-106797982D01*
X124334073Y-106797982D02*
X124400740Y-106831315D01*
X124400740Y-106831315D02*
X124434073Y-106864649D01*
X124434073Y-106864649D02*
X124467406Y-106931315D01*
X124467406Y-106931315D02*
X124467406Y-107064649D01*
X124467406Y-107064649D02*
X124434073Y-107131315D01*
X124434073Y-107131315D02*
X124400740Y-107164649D01*
X124400740Y-107164649D02*
X124334073Y-107197982D01*
X124334073Y-107197982D02*
X124300740Y-107197982D01*
X124300740Y-107197982D02*
X124234073Y-107164649D01*
X124234073Y-107164649D02*
X124200740Y-107131315D01*
X124200740Y-107131315D02*
X124167406Y-107064649D01*
X124167406Y-107064649D02*
X124167406Y-106931315D01*
X124167406Y-106931315D02*
X124134073Y-106864649D01*
X124134073Y-106864649D02*
X124100740Y-106831315D01*
X124100740Y-106831315D02*
X124034073Y-106797982D01*
X124034073Y-106797982D02*
X123900740Y-106797982D01*
X123900740Y-106797982D02*
X123834073Y-106831315D01*
X123834073Y-106831315D02*
X123800740Y-106864649D01*
X123800740Y-106864649D02*
X123767406Y-106931315D01*
X123767406Y-106931315D02*
X123767406Y-107064649D01*
X123767406Y-107064649D02*
X123800740Y-107131315D01*
X123800740Y-107131315D02*
X123834073Y-107164649D01*
X123834073Y-107164649D02*
X123900740Y-107197982D01*
X123900740Y-107197982D02*
X124034073Y-107197982D01*
X124034073Y-107197982D02*
X124100740Y-107164649D01*
X124100740Y-107164649D02*
X124134073Y-107131315D01*
X124134073Y-107131315D02*
X124167406Y-107064649D01*
X105987406Y-84835350D02*
X106687406Y-84835350D01*
X106687406Y-84835350D02*
X106687406Y-85002017D01*
X106687406Y-85002017D02*
X106654073Y-85102017D01*
X106654073Y-85102017D02*
X106587406Y-85168684D01*
X106587406Y-85168684D02*
X106520740Y-85202017D01*
X106520740Y-85202017D02*
X106387406Y-85235350D01*
X106387406Y-85235350D02*
X106287406Y-85235350D01*
X106287406Y-85235350D02*
X106154073Y-85202017D01*
X106154073Y-85202017D02*
X106087406Y-85168684D01*
X106087406Y-85168684D02*
X106020740Y-85102017D01*
X106020740Y-85102017D02*
X105987406Y-85002017D01*
X105987406Y-85002017D02*
X105987406Y-84835350D01*
X106620740Y-85502017D02*
X106654073Y-85535350D01*
X106654073Y-85535350D02*
X106687406Y-85602017D01*
X106687406Y-85602017D02*
X106687406Y-85768684D01*
X106687406Y-85768684D02*
X106654073Y-85835350D01*
X106654073Y-85835350D02*
X106620740Y-85868684D01*
X106620740Y-85868684D02*
X106554073Y-85902017D01*
X106554073Y-85902017D02*
X106487406Y-85902017D01*
X106487406Y-85902017D02*
X106387406Y-85868684D01*
X106387406Y-85868684D02*
X105987406Y-85468684D01*
X105987406Y-85468684D02*
X105987406Y-85902017D01*
X142214073Y-104064649D02*
X142247406Y-103997982D01*
X142247406Y-103997982D02*
X142247406Y-103897982D01*
X142247406Y-103897982D02*
X142214073Y-103797982D01*
X142214073Y-103797982D02*
X142147406Y-103731316D01*
X142147406Y-103731316D02*
X142080740Y-103697982D01*
X142080740Y-103697982D02*
X141947406Y-103664649D01*
X141947406Y-103664649D02*
X141847406Y-103664649D01*
X141847406Y-103664649D02*
X141714073Y-103697982D01*
X141714073Y-103697982D02*
X141647406Y-103731316D01*
X141647406Y-103731316D02*
X141580740Y-103797982D01*
X141580740Y-103797982D02*
X141547406Y-103897982D01*
X141547406Y-103897982D02*
X141547406Y-103964649D01*
X141547406Y-103964649D02*
X141580740Y-104064649D01*
X141580740Y-104064649D02*
X141614073Y-104097982D01*
X141614073Y-104097982D02*
X141847406Y-104097982D01*
X141847406Y-104097982D02*
X141847406Y-103964649D01*
X141547406Y-104397982D02*
X142247406Y-104397982D01*
X142247406Y-104397982D02*
X142247406Y-104664649D01*
X142247406Y-104664649D02*
X142214073Y-104731316D01*
X142214073Y-104731316D02*
X142180740Y-104764649D01*
X142180740Y-104764649D02*
X142114073Y-104797982D01*
X142114073Y-104797982D02*
X142014073Y-104797982D01*
X142014073Y-104797982D02*
X141947406Y-104764649D01*
X141947406Y-104764649D02*
X141914073Y-104731316D01*
X141914073Y-104731316D02*
X141880740Y-104664649D01*
X141880740Y-104664649D02*
X141880740Y-104397982D01*
X141547406Y-105097982D02*
X142247406Y-105097982D01*
X142247406Y-105564649D02*
X142247406Y-105697982D01*
X142247406Y-105697982D02*
X142214073Y-105764649D01*
X142214073Y-105764649D02*
X142147406Y-105831315D01*
X142147406Y-105831315D02*
X142014073Y-105864649D01*
X142014073Y-105864649D02*
X141780740Y-105864649D01*
X141780740Y-105864649D02*
X141647406Y-105831315D01*
X141647406Y-105831315D02*
X141580740Y-105764649D01*
X141580740Y-105764649D02*
X141547406Y-105697982D01*
X141547406Y-105697982D02*
X141547406Y-105564649D01*
X141547406Y-105564649D02*
X141580740Y-105497982D01*
X141580740Y-105497982D02*
X141647406Y-105431315D01*
X141647406Y-105431315D02*
X141780740Y-105397982D01*
X141780740Y-105397982D02*
X142014073Y-105397982D01*
X142014073Y-105397982D02*
X142147406Y-105431315D01*
X142147406Y-105431315D02*
X142214073Y-105497982D01*
X142214073Y-105497982D02*
X142247406Y-105564649D01*
X142180740Y-106131315D02*
X142214073Y-106164648D01*
X142214073Y-106164648D02*
X142247406Y-106231315D01*
X142247406Y-106231315D02*
X142247406Y-106397982D01*
X142247406Y-106397982D02*
X142214073Y-106464648D01*
X142214073Y-106464648D02*
X142180740Y-106497982D01*
X142180740Y-106497982D02*
X142114073Y-106531315D01*
X142114073Y-106531315D02*
X142047406Y-106531315D01*
X142047406Y-106531315D02*
X141947406Y-106497982D01*
X141947406Y-106497982D02*
X141547406Y-106097982D01*
X141547406Y-106097982D02*
X141547406Y-106531315D01*
X142247406Y-106764649D02*
X142247406Y-107197982D01*
X142247406Y-107197982D02*
X141980740Y-106964649D01*
X141980740Y-106964649D02*
X141980740Y-107064649D01*
X141980740Y-107064649D02*
X141947406Y-107131315D01*
X141947406Y-107131315D02*
X141914073Y-107164649D01*
X141914073Y-107164649D02*
X141847406Y-107197982D01*
X141847406Y-107197982D02*
X141680740Y-107197982D01*
X141680740Y-107197982D02*
X141614073Y-107164649D01*
X141614073Y-107164649D02*
X141580740Y-107131315D01*
X141580740Y-107131315D02*
X141547406Y-107064649D01*
X141547406Y-107064649D02*
X141547406Y-106864649D01*
X141547406Y-106864649D02*
X141580740Y-106797982D01*
X141580740Y-106797982D02*
X141614073Y-106764649D01*
X129514073Y-85202017D02*
X129547406Y-85135350D01*
X129547406Y-85135350D02*
X129547406Y-85035350D01*
X129547406Y-85035350D02*
X129514073Y-84935350D01*
X129514073Y-84935350D02*
X129447406Y-84868684D01*
X129447406Y-84868684D02*
X129380740Y-84835350D01*
X129380740Y-84835350D02*
X129247406Y-84802017D01*
X129247406Y-84802017D02*
X129147406Y-84802017D01*
X129147406Y-84802017D02*
X129014073Y-84835350D01*
X129014073Y-84835350D02*
X128947406Y-84868684D01*
X128947406Y-84868684D02*
X128880740Y-84935350D01*
X128880740Y-84935350D02*
X128847406Y-85035350D01*
X128847406Y-85035350D02*
X128847406Y-85102017D01*
X128847406Y-85102017D02*
X128880740Y-85202017D01*
X128880740Y-85202017D02*
X128914073Y-85235350D01*
X128914073Y-85235350D02*
X129147406Y-85235350D01*
X129147406Y-85235350D02*
X129147406Y-85102017D01*
X128847406Y-85535350D02*
X129547406Y-85535350D01*
X129547406Y-85535350D02*
X129547406Y-85802017D01*
X129547406Y-85802017D02*
X129514073Y-85868684D01*
X129514073Y-85868684D02*
X129480740Y-85902017D01*
X129480740Y-85902017D02*
X129414073Y-85935350D01*
X129414073Y-85935350D02*
X129314073Y-85935350D01*
X129314073Y-85935350D02*
X129247406Y-85902017D01*
X129247406Y-85902017D02*
X129214073Y-85868684D01*
X129214073Y-85868684D02*
X129180740Y-85802017D01*
X129180740Y-85802017D02*
X129180740Y-85535350D01*
X128847406Y-86235350D02*
X129547406Y-86235350D01*
X129547406Y-86702017D02*
X129547406Y-86835350D01*
X129547406Y-86835350D02*
X129514073Y-86902017D01*
X129514073Y-86902017D02*
X129447406Y-86968683D01*
X129447406Y-86968683D02*
X129314073Y-87002017D01*
X129314073Y-87002017D02*
X129080740Y-87002017D01*
X129080740Y-87002017D02*
X128947406Y-86968683D01*
X128947406Y-86968683D02*
X128880740Y-86902017D01*
X128880740Y-86902017D02*
X128847406Y-86835350D01*
X128847406Y-86835350D02*
X128847406Y-86702017D01*
X128847406Y-86702017D02*
X128880740Y-86635350D01*
X128880740Y-86635350D02*
X128947406Y-86568683D01*
X128947406Y-86568683D02*
X129080740Y-86535350D01*
X129080740Y-86535350D02*
X129314073Y-86535350D01*
X129314073Y-86535350D02*
X129447406Y-86568683D01*
X129447406Y-86568683D02*
X129514073Y-86635350D01*
X129514073Y-86635350D02*
X129547406Y-86702017D01*
X129547406Y-87235350D02*
X129547406Y-87668683D01*
X129547406Y-87668683D02*
X129280740Y-87435350D01*
X129280740Y-87435350D02*
X129280740Y-87535350D01*
X129280740Y-87535350D02*
X129247406Y-87602016D01*
X129247406Y-87602016D02*
X129214073Y-87635350D01*
X129214073Y-87635350D02*
X129147406Y-87668683D01*
X129147406Y-87668683D02*
X128980740Y-87668683D01*
X128980740Y-87668683D02*
X128914073Y-87635350D01*
X128914073Y-87635350D02*
X128880740Y-87602016D01*
X128880740Y-87602016D02*
X128847406Y-87535350D01*
X128847406Y-87535350D02*
X128847406Y-87335350D01*
X128847406Y-87335350D02*
X128880740Y-87268683D01*
X128880740Y-87268683D02*
X128914073Y-87235350D01*
X129480740Y-87935350D02*
X129514073Y-87968683D01*
X129514073Y-87968683D02*
X129547406Y-88035350D01*
X129547406Y-88035350D02*
X129547406Y-88202017D01*
X129547406Y-88202017D02*
X129514073Y-88268683D01*
X129514073Y-88268683D02*
X129480740Y-88302017D01*
X129480740Y-88302017D02*
X129414073Y-88335350D01*
X129414073Y-88335350D02*
X129347406Y-88335350D01*
X129347406Y-88335350D02*
X129247406Y-88302017D01*
X129247406Y-88302017D02*
X128847406Y-87902017D01*
X128847406Y-87902017D02*
X128847406Y-88335350D01*
X126974073Y-85202017D02*
X127007406Y-85135350D01*
X127007406Y-85135350D02*
X127007406Y-85035350D01*
X127007406Y-85035350D02*
X126974073Y-84935350D01*
X126974073Y-84935350D02*
X126907406Y-84868684D01*
X126907406Y-84868684D02*
X126840740Y-84835350D01*
X126840740Y-84835350D02*
X126707406Y-84802017D01*
X126707406Y-84802017D02*
X126607406Y-84802017D01*
X126607406Y-84802017D02*
X126474073Y-84835350D01*
X126474073Y-84835350D02*
X126407406Y-84868684D01*
X126407406Y-84868684D02*
X126340740Y-84935350D01*
X126340740Y-84935350D02*
X126307406Y-85035350D01*
X126307406Y-85035350D02*
X126307406Y-85102017D01*
X126307406Y-85102017D02*
X126340740Y-85202017D01*
X126340740Y-85202017D02*
X126374073Y-85235350D01*
X126374073Y-85235350D02*
X126607406Y-85235350D01*
X126607406Y-85235350D02*
X126607406Y-85102017D01*
X126307406Y-85535350D02*
X127007406Y-85535350D01*
X127007406Y-85535350D02*
X127007406Y-85802017D01*
X127007406Y-85802017D02*
X126974073Y-85868684D01*
X126974073Y-85868684D02*
X126940740Y-85902017D01*
X126940740Y-85902017D02*
X126874073Y-85935350D01*
X126874073Y-85935350D02*
X126774073Y-85935350D01*
X126774073Y-85935350D02*
X126707406Y-85902017D01*
X126707406Y-85902017D02*
X126674073Y-85868684D01*
X126674073Y-85868684D02*
X126640740Y-85802017D01*
X126640740Y-85802017D02*
X126640740Y-85535350D01*
X126307406Y-86235350D02*
X127007406Y-86235350D01*
X127007406Y-86702017D02*
X127007406Y-86835350D01*
X127007406Y-86835350D02*
X126974073Y-86902017D01*
X126974073Y-86902017D02*
X126907406Y-86968683D01*
X126907406Y-86968683D02*
X126774073Y-87002017D01*
X126774073Y-87002017D02*
X126540740Y-87002017D01*
X126540740Y-87002017D02*
X126407406Y-86968683D01*
X126407406Y-86968683D02*
X126340740Y-86902017D01*
X126340740Y-86902017D02*
X126307406Y-86835350D01*
X126307406Y-86835350D02*
X126307406Y-86702017D01*
X126307406Y-86702017D02*
X126340740Y-86635350D01*
X126340740Y-86635350D02*
X126407406Y-86568683D01*
X126407406Y-86568683D02*
X126540740Y-86535350D01*
X126540740Y-86535350D02*
X126774073Y-86535350D01*
X126774073Y-86535350D02*
X126907406Y-86568683D01*
X126907406Y-86568683D02*
X126974073Y-86635350D01*
X126974073Y-86635350D02*
X127007406Y-86702017D01*
X127007406Y-87235350D02*
X127007406Y-87668683D01*
X127007406Y-87668683D02*
X126740740Y-87435350D01*
X126740740Y-87435350D02*
X126740740Y-87535350D01*
X126740740Y-87535350D02*
X126707406Y-87602016D01*
X126707406Y-87602016D02*
X126674073Y-87635350D01*
X126674073Y-87635350D02*
X126607406Y-87668683D01*
X126607406Y-87668683D02*
X126440740Y-87668683D01*
X126440740Y-87668683D02*
X126374073Y-87635350D01*
X126374073Y-87635350D02*
X126340740Y-87602016D01*
X126340740Y-87602016D02*
X126307406Y-87535350D01*
X126307406Y-87535350D02*
X126307406Y-87335350D01*
X126307406Y-87335350D02*
X126340740Y-87268683D01*
X126340740Y-87268683D02*
X126374073Y-87235350D01*
X127007406Y-87902017D02*
X127007406Y-88335350D01*
X127007406Y-88335350D02*
X126740740Y-88102017D01*
X126740740Y-88102017D02*
X126740740Y-88202017D01*
X126740740Y-88202017D02*
X126707406Y-88268683D01*
X126707406Y-88268683D02*
X126674073Y-88302017D01*
X126674073Y-88302017D02*
X126607406Y-88335350D01*
X126607406Y-88335350D02*
X126440740Y-88335350D01*
X126440740Y-88335350D02*
X126374073Y-88302017D01*
X126374073Y-88302017D02*
X126340740Y-88268683D01*
X126340740Y-88268683D02*
X126307406Y-88202017D01*
X126307406Y-88202017D02*
X126307406Y-88002017D01*
X126307406Y-88002017D02*
X126340740Y-87935350D01*
X126340740Y-87935350D02*
X126374073Y-87902017D01*
X116814073Y-104064649D02*
X116847406Y-103997982D01*
X116847406Y-103997982D02*
X116847406Y-103897982D01*
X116847406Y-103897982D02*
X116814073Y-103797982D01*
X116814073Y-103797982D02*
X116747406Y-103731316D01*
X116747406Y-103731316D02*
X116680740Y-103697982D01*
X116680740Y-103697982D02*
X116547406Y-103664649D01*
X116547406Y-103664649D02*
X116447406Y-103664649D01*
X116447406Y-103664649D02*
X116314073Y-103697982D01*
X116314073Y-103697982D02*
X116247406Y-103731316D01*
X116247406Y-103731316D02*
X116180740Y-103797982D01*
X116180740Y-103797982D02*
X116147406Y-103897982D01*
X116147406Y-103897982D02*
X116147406Y-103964649D01*
X116147406Y-103964649D02*
X116180740Y-104064649D01*
X116180740Y-104064649D02*
X116214073Y-104097982D01*
X116214073Y-104097982D02*
X116447406Y-104097982D01*
X116447406Y-104097982D02*
X116447406Y-103964649D01*
X116147406Y-104397982D02*
X116847406Y-104397982D01*
X116847406Y-104397982D02*
X116847406Y-104664649D01*
X116847406Y-104664649D02*
X116814073Y-104731316D01*
X116814073Y-104731316D02*
X116780740Y-104764649D01*
X116780740Y-104764649D02*
X116714073Y-104797982D01*
X116714073Y-104797982D02*
X116614073Y-104797982D01*
X116614073Y-104797982D02*
X116547406Y-104764649D01*
X116547406Y-104764649D02*
X116514073Y-104731316D01*
X116514073Y-104731316D02*
X116480740Y-104664649D01*
X116480740Y-104664649D02*
X116480740Y-104397982D01*
X116147406Y-105097982D02*
X116847406Y-105097982D01*
X116847406Y-105564649D02*
X116847406Y-105697982D01*
X116847406Y-105697982D02*
X116814073Y-105764649D01*
X116814073Y-105764649D02*
X116747406Y-105831315D01*
X116747406Y-105831315D02*
X116614073Y-105864649D01*
X116614073Y-105864649D02*
X116380740Y-105864649D01*
X116380740Y-105864649D02*
X116247406Y-105831315D01*
X116247406Y-105831315D02*
X116180740Y-105764649D01*
X116180740Y-105764649D02*
X116147406Y-105697982D01*
X116147406Y-105697982D02*
X116147406Y-105564649D01*
X116147406Y-105564649D02*
X116180740Y-105497982D01*
X116180740Y-105497982D02*
X116247406Y-105431315D01*
X116247406Y-105431315D02*
X116380740Y-105397982D01*
X116380740Y-105397982D02*
X116614073Y-105397982D01*
X116614073Y-105397982D02*
X116747406Y-105431315D01*
X116747406Y-105431315D02*
X116814073Y-105497982D01*
X116814073Y-105497982D02*
X116847406Y-105564649D01*
X116147406Y-106531315D02*
X116147406Y-106131315D01*
X116147406Y-106331315D02*
X116847406Y-106331315D01*
X116847406Y-106331315D02*
X116747406Y-106264648D01*
X116747406Y-106264648D02*
X116680740Y-106197982D01*
X116680740Y-106197982D02*
X116647406Y-106131315D01*
X116847406Y-107131315D02*
X116847406Y-106997982D01*
X116847406Y-106997982D02*
X116814073Y-106931315D01*
X116814073Y-106931315D02*
X116780740Y-106897982D01*
X116780740Y-106897982D02*
X116680740Y-106831315D01*
X116680740Y-106831315D02*
X116547406Y-106797982D01*
X116547406Y-106797982D02*
X116280740Y-106797982D01*
X116280740Y-106797982D02*
X116214073Y-106831315D01*
X116214073Y-106831315D02*
X116180740Y-106864649D01*
X116180740Y-106864649D02*
X116147406Y-106931315D01*
X116147406Y-106931315D02*
X116147406Y-107064649D01*
X116147406Y-107064649D02*
X116180740Y-107131315D01*
X116180740Y-107131315D02*
X116214073Y-107164649D01*
X116214073Y-107164649D02*
X116280740Y-107197982D01*
X116280740Y-107197982D02*
X116447406Y-107197982D01*
X116447406Y-107197982D02*
X116514073Y-107164649D01*
X116514073Y-107164649D02*
X116547406Y-107131315D01*
X116547406Y-107131315D02*
X116580740Y-107064649D01*
X116580740Y-107064649D02*
X116580740Y-106931315D01*
X116580740Y-106931315D02*
X116547406Y-106864649D01*
X116547406Y-106864649D02*
X116514073Y-106831315D01*
X116514073Y-106831315D02*
X116447406Y-106797982D01*
X141935150Y-84801921D02*
X141935150Y-85135254D01*
X141411340Y-85278111D02*
X141411340Y-84801921D01*
X141411340Y-84801921D02*
X142411340Y-84801921D01*
X142411340Y-84801921D02*
X142411340Y-85278111D01*
X141411340Y-85706683D02*
X142411340Y-85706683D01*
X142411340Y-85706683D02*
X141411340Y-86278111D01*
X141411340Y-86278111D02*
X142411340Y-86278111D01*
X142458960Y-87468587D02*
X141173245Y-86611445D01*
X141411340Y-88373349D02*
X141887531Y-88040016D01*
X141411340Y-87801921D02*
X142411340Y-87801921D01*
X142411340Y-87801921D02*
X142411340Y-88182873D01*
X142411340Y-88182873D02*
X142363721Y-88278111D01*
X142363721Y-88278111D02*
X142316102Y-88325730D01*
X142316102Y-88325730D02*
X142220864Y-88373349D01*
X142220864Y-88373349D02*
X142078007Y-88373349D01*
X142078007Y-88373349D02*
X141982769Y-88325730D01*
X141982769Y-88325730D02*
X141935150Y-88278111D01*
X141935150Y-88278111D02*
X141887531Y-88182873D01*
X141887531Y-88182873D02*
X141887531Y-87801921D01*
X141935150Y-88801921D02*
X141935150Y-89135254D01*
X141411340Y-89278111D02*
X141411340Y-88801921D01*
X141411340Y-88801921D02*
X142411340Y-88801921D01*
X142411340Y-88801921D02*
X142411340Y-89278111D01*
X141458960Y-89659064D02*
X141411340Y-89801921D01*
X141411340Y-89801921D02*
X141411340Y-90040016D01*
X141411340Y-90040016D02*
X141458960Y-90135254D01*
X141458960Y-90135254D02*
X141506579Y-90182873D01*
X141506579Y-90182873D02*
X141601817Y-90230492D01*
X141601817Y-90230492D02*
X141697055Y-90230492D01*
X141697055Y-90230492D02*
X141792293Y-90182873D01*
X141792293Y-90182873D02*
X141839912Y-90135254D01*
X141839912Y-90135254D02*
X141887531Y-90040016D01*
X141887531Y-90040016D02*
X141935150Y-89849540D01*
X141935150Y-89849540D02*
X141982769Y-89754302D01*
X141982769Y-89754302D02*
X142030388Y-89706683D01*
X142030388Y-89706683D02*
X142125626Y-89659064D01*
X142125626Y-89659064D02*
X142220864Y-89659064D01*
X142220864Y-89659064D02*
X142316102Y-89706683D01*
X142316102Y-89706683D02*
X142363721Y-89754302D01*
X142363721Y-89754302D02*
X142411340Y-89849540D01*
X142411340Y-89849540D02*
X142411340Y-90087635D01*
X142411340Y-90087635D02*
X142363721Y-90230492D01*
X141935150Y-90659064D02*
X141935150Y-90992397D01*
X141411340Y-91135254D02*
X141411340Y-90659064D01*
X141411340Y-90659064D02*
X142411340Y-90659064D01*
X142411340Y-90659064D02*
X142411340Y-91135254D01*
X142411340Y-91420969D02*
X142411340Y-91992397D01*
X141411340Y-91706683D02*
X142411340Y-91706683D01*
X132054073Y-104064649D02*
X132087406Y-103997982D01*
X132087406Y-103997982D02*
X132087406Y-103897982D01*
X132087406Y-103897982D02*
X132054073Y-103797982D01*
X132054073Y-103797982D02*
X131987406Y-103731316D01*
X131987406Y-103731316D02*
X131920740Y-103697982D01*
X131920740Y-103697982D02*
X131787406Y-103664649D01*
X131787406Y-103664649D02*
X131687406Y-103664649D01*
X131687406Y-103664649D02*
X131554073Y-103697982D01*
X131554073Y-103697982D02*
X131487406Y-103731316D01*
X131487406Y-103731316D02*
X131420740Y-103797982D01*
X131420740Y-103797982D02*
X131387406Y-103897982D01*
X131387406Y-103897982D02*
X131387406Y-103964649D01*
X131387406Y-103964649D02*
X131420740Y-104064649D01*
X131420740Y-104064649D02*
X131454073Y-104097982D01*
X131454073Y-104097982D02*
X131687406Y-104097982D01*
X131687406Y-104097982D02*
X131687406Y-103964649D01*
X131387406Y-104397982D02*
X132087406Y-104397982D01*
X132087406Y-104397982D02*
X132087406Y-104664649D01*
X132087406Y-104664649D02*
X132054073Y-104731316D01*
X132054073Y-104731316D02*
X132020740Y-104764649D01*
X132020740Y-104764649D02*
X131954073Y-104797982D01*
X131954073Y-104797982D02*
X131854073Y-104797982D01*
X131854073Y-104797982D02*
X131787406Y-104764649D01*
X131787406Y-104764649D02*
X131754073Y-104731316D01*
X131754073Y-104731316D02*
X131720740Y-104664649D01*
X131720740Y-104664649D02*
X131720740Y-104397982D01*
X131387406Y-105097982D02*
X132087406Y-105097982D01*
X132087406Y-105564649D02*
X132087406Y-105697982D01*
X132087406Y-105697982D02*
X132054073Y-105764649D01*
X132054073Y-105764649D02*
X131987406Y-105831315D01*
X131987406Y-105831315D02*
X131854073Y-105864649D01*
X131854073Y-105864649D02*
X131620740Y-105864649D01*
X131620740Y-105864649D02*
X131487406Y-105831315D01*
X131487406Y-105831315D02*
X131420740Y-105764649D01*
X131420740Y-105764649D02*
X131387406Y-105697982D01*
X131387406Y-105697982D02*
X131387406Y-105564649D01*
X131387406Y-105564649D02*
X131420740Y-105497982D01*
X131420740Y-105497982D02*
X131487406Y-105431315D01*
X131487406Y-105431315D02*
X131620740Y-105397982D01*
X131620740Y-105397982D02*
X131854073Y-105397982D01*
X131854073Y-105397982D02*
X131987406Y-105431315D01*
X131987406Y-105431315D02*
X132054073Y-105497982D01*
X132054073Y-105497982D02*
X132087406Y-105564649D01*
X132020740Y-106131315D02*
X132054073Y-106164648D01*
X132054073Y-106164648D02*
X132087406Y-106231315D01*
X132087406Y-106231315D02*
X132087406Y-106397982D01*
X132087406Y-106397982D02*
X132054073Y-106464648D01*
X132054073Y-106464648D02*
X132020740Y-106497982D01*
X132020740Y-106497982D02*
X131954073Y-106531315D01*
X131954073Y-106531315D02*
X131887406Y-106531315D01*
X131887406Y-106531315D02*
X131787406Y-106497982D01*
X131787406Y-106497982D02*
X131387406Y-106097982D01*
X131387406Y-106097982D02*
X131387406Y-106531315D01*
X131387406Y-107197982D02*
X131387406Y-106797982D01*
X131387406Y-106997982D02*
X132087406Y-106997982D01*
X132087406Y-106997982D02*
X131987406Y-106931315D01*
X131987406Y-106931315D02*
X131920740Y-106864649D01*
X131920740Y-106864649D02*
X131887406Y-106797982D01*
X137167406Y-84735350D02*
X136467406Y-84968684D01*
X136467406Y-84968684D02*
X137167406Y-85202017D01*
X136467406Y-85435350D02*
X137167406Y-85435350D01*
X137167406Y-85435350D02*
X136467406Y-85835350D01*
X136467406Y-85835350D02*
X137167406Y-85835350D01*
X137200740Y-86668683D02*
X136300740Y-86068683D01*
X137134073Y-87268683D02*
X137167406Y-87202016D01*
X137167406Y-87202016D02*
X137167406Y-87102016D01*
X137167406Y-87102016D02*
X137134073Y-87002016D01*
X137134073Y-87002016D02*
X137067406Y-86935350D01*
X137067406Y-86935350D02*
X137000740Y-86902016D01*
X137000740Y-86902016D02*
X136867406Y-86868683D01*
X136867406Y-86868683D02*
X136767406Y-86868683D01*
X136767406Y-86868683D02*
X136634073Y-86902016D01*
X136634073Y-86902016D02*
X136567406Y-86935350D01*
X136567406Y-86935350D02*
X136500740Y-87002016D01*
X136500740Y-87002016D02*
X136467406Y-87102016D01*
X136467406Y-87102016D02*
X136467406Y-87168683D01*
X136467406Y-87168683D02*
X136500740Y-87268683D01*
X136500740Y-87268683D02*
X136534073Y-87302016D01*
X136534073Y-87302016D02*
X136767406Y-87302016D01*
X136767406Y-87302016D02*
X136767406Y-87168683D01*
X136467406Y-87602016D02*
X137167406Y-87602016D01*
X137167406Y-87602016D02*
X137167406Y-87868683D01*
X137167406Y-87868683D02*
X137134073Y-87935350D01*
X137134073Y-87935350D02*
X137100740Y-87968683D01*
X137100740Y-87968683D02*
X137034073Y-88002016D01*
X137034073Y-88002016D02*
X136934073Y-88002016D01*
X136934073Y-88002016D02*
X136867406Y-87968683D01*
X136867406Y-87968683D02*
X136834073Y-87935350D01*
X136834073Y-87935350D02*
X136800740Y-87868683D01*
X136800740Y-87868683D02*
X136800740Y-87602016D01*
X136467406Y-88302016D02*
X137167406Y-88302016D01*
X137167406Y-88768683D02*
X137167406Y-88902016D01*
X137167406Y-88902016D02*
X137134073Y-88968683D01*
X137134073Y-88968683D02*
X137067406Y-89035349D01*
X137067406Y-89035349D02*
X136934073Y-89068683D01*
X136934073Y-89068683D02*
X136700740Y-89068683D01*
X136700740Y-89068683D02*
X136567406Y-89035349D01*
X136567406Y-89035349D02*
X136500740Y-88968683D01*
X136500740Y-88968683D02*
X136467406Y-88902016D01*
X136467406Y-88902016D02*
X136467406Y-88768683D01*
X136467406Y-88768683D02*
X136500740Y-88702016D01*
X136500740Y-88702016D02*
X136567406Y-88635349D01*
X136567406Y-88635349D02*
X136700740Y-88602016D01*
X136700740Y-88602016D02*
X136934073Y-88602016D01*
X136934073Y-88602016D02*
X137067406Y-88635349D01*
X137067406Y-88635349D02*
X137134073Y-88702016D01*
X137134073Y-88702016D02*
X137167406Y-88768683D01*
X137167406Y-89302016D02*
X137167406Y-89735349D01*
X137167406Y-89735349D02*
X136900740Y-89502016D01*
X136900740Y-89502016D02*
X136900740Y-89602016D01*
X136900740Y-89602016D02*
X136867406Y-89668682D01*
X136867406Y-89668682D02*
X136834073Y-89702016D01*
X136834073Y-89702016D02*
X136767406Y-89735349D01*
X136767406Y-89735349D02*
X136600740Y-89735349D01*
X136600740Y-89735349D02*
X136534073Y-89702016D01*
X136534073Y-89702016D02*
X136500740Y-89668682D01*
X136500740Y-89668682D02*
X136467406Y-89602016D01*
X136467406Y-89602016D02*
X136467406Y-89402016D01*
X136467406Y-89402016D02*
X136500740Y-89335349D01*
X136500740Y-89335349D02*
X136534073Y-89302016D01*
X136467406Y-90068683D02*
X136467406Y-90202016D01*
X136467406Y-90202016D02*
X136500740Y-90268683D01*
X136500740Y-90268683D02*
X136534073Y-90302016D01*
X136534073Y-90302016D02*
X136634073Y-90368683D01*
X136634073Y-90368683D02*
X136767406Y-90402016D01*
X136767406Y-90402016D02*
X137034073Y-90402016D01*
X137034073Y-90402016D02*
X137100740Y-90368683D01*
X137100740Y-90368683D02*
X137134073Y-90335349D01*
X137134073Y-90335349D02*
X137167406Y-90268683D01*
X137167406Y-90268683D02*
X137167406Y-90135349D01*
X137167406Y-90135349D02*
X137134073Y-90068683D01*
X137134073Y-90068683D02*
X137100740Y-90035349D01*
X137100740Y-90035349D02*
X137034073Y-90002016D01*
X137034073Y-90002016D02*
X136867406Y-90002016D01*
X136867406Y-90002016D02*
X136800740Y-90035349D01*
X136800740Y-90035349D02*
X136767406Y-90068683D01*
X136767406Y-90068683D02*
X136734073Y-90135349D01*
X136734073Y-90135349D02*
X136734073Y-90268683D01*
X136734073Y-90268683D02*
X136767406Y-90335349D01*
X136767406Y-90335349D02*
X136800740Y-90368683D01*
X136800740Y-90368683D02*
X136867406Y-90402016D01*
X98434073Y-105931315D02*
X98400740Y-105897982D01*
X98400740Y-105897982D02*
X98367406Y-105797982D01*
X98367406Y-105797982D02*
X98367406Y-105731315D01*
X98367406Y-105731315D02*
X98400740Y-105631315D01*
X98400740Y-105631315D02*
X98467406Y-105564649D01*
X98467406Y-105564649D02*
X98534073Y-105531315D01*
X98534073Y-105531315D02*
X98667406Y-105497982D01*
X98667406Y-105497982D02*
X98767406Y-105497982D01*
X98767406Y-105497982D02*
X98900740Y-105531315D01*
X98900740Y-105531315D02*
X98967406Y-105564649D01*
X98967406Y-105564649D02*
X99034073Y-105631315D01*
X99034073Y-105631315D02*
X99067406Y-105731315D01*
X99067406Y-105731315D02*
X99067406Y-105797982D01*
X99067406Y-105797982D02*
X99034073Y-105897982D01*
X99034073Y-105897982D02*
X99000740Y-105931315D01*
X98367406Y-106564649D02*
X98367406Y-106231315D01*
X98367406Y-106231315D02*
X99067406Y-106231315D01*
X98367406Y-106797982D02*
X99067406Y-106797982D01*
X98367406Y-107197982D02*
X98767406Y-106897982D01*
X99067406Y-107197982D02*
X98667406Y-106797982D01*
X132054073Y-85202017D02*
X132087406Y-85135350D01*
X132087406Y-85135350D02*
X132087406Y-85035350D01*
X132087406Y-85035350D02*
X132054073Y-84935350D01*
X132054073Y-84935350D02*
X131987406Y-84868684D01*
X131987406Y-84868684D02*
X131920740Y-84835350D01*
X131920740Y-84835350D02*
X131787406Y-84802017D01*
X131787406Y-84802017D02*
X131687406Y-84802017D01*
X131687406Y-84802017D02*
X131554073Y-84835350D01*
X131554073Y-84835350D02*
X131487406Y-84868684D01*
X131487406Y-84868684D02*
X131420740Y-84935350D01*
X131420740Y-84935350D02*
X131387406Y-85035350D01*
X131387406Y-85035350D02*
X131387406Y-85102017D01*
X131387406Y-85102017D02*
X131420740Y-85202017D01*
X131420740Y-85202017D02*
X131454073Y-85235350D01*
X131454073Y-85235350D02*
X131687406Y-85235350D01*
X131687406Y-85235350D02*
X131687406Y-85102017D01*
X131387406Y-85535350D02*
X132087406Y-85535350D01*
X132087406Y-85535350D02*
X132087406Y-85802017D01*
X132087406Y-85802017D02*
X132054073Y-85868684D01*
X132054073Y-85868684D02*
X132020740Y-85902017D01*
X132020740Y-85902017D02*
X131954073Y-85935350D01*
X131954073Y-85935350D02*
X131854073Y-85935350D01*
X131854073Y-85935350D02*
X131787406Y-85902017D01*
X131787406Y-85902017D02*
X131754073Y-85868684D01*
X131754073Y-85868684D02*
X131720740Y-85802017D01*
X131720740Y-85802017D02*
X131720740Y-85535350D01*
X131387406Y-86235350D02*
X132087406Y-86235350D01*
X132087406Y-86702017D02*
X132087406Y-86835350D01*
X132087406Y-86835350D02*
X132054073Y-86902017D01*
X132054073Y-86902017D02*
X131987406Y-86968683D01*
X131987406Y-86968683D02*
X131854073Y-87002017D01*
X131854073Y-87002017D02*
X131620740Y-87002017D01*
X131620740Y-87002017D02*
X131487406Y-86968683D01*
X131487406Y-86968683D02*
X131420740Y-86902017D01*
X131420740Y-86902017D02*
X131387406Y-86835350D01*
X131387406Y-86835350D02*
X131387406Y-86702017D01*
X131387406Y-86702017D02*
X131420740Y-86635350D01*
X131420740Y-86635350D02*
X131487406Y-86568683D01*
X131487406Y-86568683D02*
X131620740Y-86535350D01*
X131620740Y-86535350D02*
X131854073Y-86535350D01*
X131854073Y-86535350D02*
X131987406Y-86568683D01*
X131987406Y-86568683D02*
X132054073Y-86635350D01*
X132054073Y-86635350D02*
X132087406Y-86702017D01*
X132087406Y-87235350D02*
X132087406Y-87668683D01*
X132087406Y-87668683D02*
X131820740Y-87435350D01*
X131820740Y-87435350D02*
X131820740Y-87535350D01*
X131820740Y-87535350D02*
X131787406Y-87602016D01*
X131787406Y-87602016D02*
X131754073Y-87635350D01*
X131754073Y-87635350D02*
X131687406Y-87668683D01*
X131687406Y-87668683D02*
X131520740Y-87668683D01*
X131520740Y-87668683D02*
X131454073Y-87635350D01*
X131454073Y-87635350D02*
X131420740Y-87602016D01*
X131420740Y-87602016D02*
X131387406Y-87535350D01*
X131387406Y-87535350D02*
X131387406Y-87335350D01*
X131387406Y-87335350D02*
X131420740Y-87268683D01*
X131420740Y-87268683D02*
X131454073Y-87235350D01*
X132087406Y-88302017D02*
X132087406Y-87968683D01*
X132087406Y-87968683D02*
X131754073Y-87935350D01*
X131754073Y-87935350D02*
X131787406Y-87968683D01*
X131787406Y-87968683D02*
X131820740Y-88035350D01*
X131820740Y-88035350D02*
X131820740Y-88202017D01*
X131820740Y-88202017D02*
X131787406Y-88268683D01*
X131787406Y-88268683D02*
X131754073Y-88302017D01*
X131754073Y-88302017D02*
X131687406Y-88335350D01*
X131687406Y-88335350D02*
X131520740Y-88335350D01*
X131520740Y-88335350D02*
X131454073Y-88302017D01*
X131454073Y-88302017D02*
X131420740Y-88268683D01*
X131420740Y-88268683D02*
X131387406Y-88202017D01*
X131387406Y-88202017D02*
X131387406Y-88035350D01*
X131387406Y-88035350D02*
X131420740Y-87968683D01*
X131420740Y-87968683D02*
X131454073Y-87935350D01*
X109194073Y-85202017D02*
X109227406Y-85135350D01*
X109227406Y-85135350D02*
X109227406Y-85035350D01*
X109227406Y-85035350D02*
X109194073Y-84935350D01*
X109194073Y-84935350D02*
X109127406Y-84868684D01*
X109127406Y-84868684D02*
X109060740Y-84835350D01*
X109060740Y-84835350D02*
X108927406Y-84802017D01*
X108927406Y-84802017D02*
X108827406Y-84802017D01*
X108827406Y-84802017D02*
X108694073Y-84835350D01*
X108694073Y-84835350D02*
X108627406Y-84868684D01*
X108627406Y-84868684D02*
X108560740Y-84935350D01*
X108560740Y-84935350D02*
X108527406Y-85035350D01*
X108527406Y-85035350D02*
X108527406Y-85102017D01*
X108527406Y-85102017D02*
X108560740Y-85202017D01*
X108560740Y-85202017D02*
X108594073Y-85235350D01*
X108594073Y-85235350D02*
X108827406Y-85235350D01*
X108827406Y-85235350D02*
X108827406Y-85102017D01*
X108527406Y-85535350D02*
X109227406Y-85535350D01*
X109227406Y-85535350D02*
X109227406Y-85802017D01*
X109227406Y-85802017D02*
X109194073Y-85868684D01*
X109194073Y-85868684D02*
X109160740Y-85902017D01*
X109160740Y-85902017D02*
X109094073Y-85935350D01*
X109094073Y-85935350D02*
X108994073Y-85935350D01*
X108994073Y-85935350D02*
X108927406Y-85902017D01*
X108927406Y-85902017D02*
X108894073Y-85868684D01*
X108894073Y-85868684D02*
X108860740Y-85802017D01*
X108860740Y-85802017D02*
X108860740Y-85535350D01*
X108527406Y-86235350D02*
X109227406Y-86235350D01*
X109227406Y-86702017D02*
X109227406Y-86835350D01*
X109227406Y-86835350D02*
X109194073Y-86902017D01*
X109194073Y-86902017D02*
X109127406Y-86968683D01*
X109127406Y-86968683D02*
X108994073Y-87002017D01*
X108994073Y-87002017D02*
X108760740Y-87002017D01*
X108760740Y-87002017D02*
X108627406Y-86968683D01*
X108627406Y-86968683D02*
X108560740Y-86902017D01*
X108560740Y-86902017D02*
X108527406Y-86835350D01*
X108527406Y-86835350D02*
X108527406Y-86702017D01*
X108527406Y-86702017D02*
X108560740Y-86635350D01*
X108560740Y-86635350D02*
X108627406Y-86568683D01*
X108627406Y-86568683D02*
X108760740Y-86535350D01*
X108760740Y-86535350D02*
X108994073Y-86535350D01*
X108994073Y-86535350D02*
X109127406Y-86568683D01*
X109127406Y-86568683D02*
X109194073Y-86635350D01*
X109194073Y-86635350D02*
X109227406Y-86702017D01*
X108527406Y-87668683D02*
X108527406Y-87268683D01*
X108527406Y-87468683D02*
X109227406Y-87468683D01*
X109227406Y-87468683D02*
X109127406Y-87402016D01*
X109127406Y-87402016D02*
X109060740Y-87335350D01*
X109060740Y-87335350D02*
X109027406Y-87268683D01*
X109227406Y-87902017D02*
X109227406Y-88335350D01*
X109227406Y-88335350D02*
X108960740Y-88102017D01*
X108960740Y-88102017D02*
X108960740Y-88202017D01*
X108960740Y-88202017D02*
X108927406Y-88268683D01*
X108927406Y-88268683D02*
X108894073Y-88302017D01*
X108894073Y-88302017D02*
X108827406Y-88335350D01*
X108827406Y-88335350D02*
X108660740Y-88335350D01*
X108660740Y-88335350D02*
X108594073Y-88302017D01*
X108594073Y-88302017D02*
X108560740Y-88268683D01*
X108560740Y-88268683D02*
X108527406Y-88202017D01*
X108527406Y-88202017D02*
X108527406Y-88002017D01*
X108527406Y-88002017D02*
X108560740Y-87935350D01*
X108560740Y-87935350D02*
X108594073Y-87902017D01*
X109260740Y-89135350D02*
X108360740Y-88535350D01*
X108527406Y-89368683D02*
X109227406Y-89368683D01*
X109227406Y-89368683D02*
X108727406Y-89602017D01*
X108727406Y-89602017D02*
X109227406Y-89835350D01*
X109227406Y-89835350D02*
X108527406Y-89835350D01*
X109227406Y-90068683D02*
X109227406Y-90468683D01*
X108527406Y-90268683D02*
X109227406Y-90268683D01*
X108594073Y-91102016D02*
X108560740Y-91068683D01*
X108560740Y-91068683D02*
X108527406Y-90968683D01*
X108527406Y-90968683D02*
X108527406Y-90902016D01*
X108527406Y-90902016D02*
X108560740Y-90802016D01*
X108560740Y-90802016D02*
X108627406Y-90735350D01*
X108627406Y-90735350D02*
X108694073Y-90702016D01*
X108694073Y-90702016D02*
X108827406Y-90668683D01*
X108827406Y-90668683D02*
X108927406Y-90668683D01*
X108927406Y-90668683D02*
X109060740Y-90702016D01*
X109060740Y-90702016D02*
X109127406Y-90735350D01*
X109127406Y-90735350D02*
X109194073Y-90802016D01*
X109194073Y-90802016D02*
X109227406Y-90902016D01*
X109227406Y-90902016D02*
X109227406Y-90968683D01*
X109227406Y-90968683D02*
X109194073Y-91068683D01*
X109194073Y-91068683D02*
X109160740Y-91102016D01*
X108527406Y-91402016D02*
X109227406Y-91402016D01*
X108527406Y-91802016D02*
X108927406Y-91502016D01*
X109227406Y-91802016D02*
X108827406Y-91402016D01*
X124434073Y-85202017D02*
X124467406Y-85135350D01*
X124467406Y-85135350D02*
X124467406Y-85035350D01*
X124467406Y-85035350D02*
X124434073Y-84935350D01*
X124434073Y-84935350D02*
X124367406Y-84868684D01*
X124367406Y-84868684D02*
X124300740Y-84835350D01*
X124300740Y-84835350D02*
X124167406Y-84802017D01*
X124167406Y-84802017D02*
X124067406Y-84802017D01*
X124067406Y-84802017D02*
X123934073Y-84835350D01*
X123934073Y-84835350D02*
X123867406Y-84868684D01*
X123867406Y-84868684D02*
X123800740Y-84935350D01*
X123800740Y-84935350D02*
X123767406Y-85035350D01*
X123767406Y-85035350D02*
X123767406Y-85102017D01*
X123767406Y-85102017D02*
X123800740Y-85202017D01*
X123800740Y-85202017D02*
X123834073Y-85235350D01*
X123834073Y-85235350D02*
X124067406Y-85235350D01*
X124067406Y-85235350D02*
X124067406Y-85102017D01*
X123767406Y-85535350D02*
X124467406Y-85535350D01*
X124467406Y-85535350D02*
X124467406Y-85802017D01*
X124467406Y-85802017D02*
X124434073Y-85868684D01*
X124434073Y-85868684D02*
X124400740Y-85902017D01*
X124400740Y-85902017D02*
X124334073Y-85935350D01*
X124334073Y-85935350D02*
X124234073Y-85935350D01*
X124234073Y-85935350D02*
X124167406Y-85902017D01*
X124167406Y-85902017D02*
X124134073Y-85868684D01*
X124134073Y-85868684D02*
X124100740Y-85802017D01*
X124100740Y-85802017D02*
X124100740Y-85535350D01*
X123767406Y-86235350D02*
X124467406Y-86235350D01*
X124467406Y-86702017D02*
X124467406Y-86835350D01*
X124467406Y-86835350D02*
X124434073Y-86902017D01*
X124434073Y-86902017D02*
X124367406Y-86968683D01*
X124367406Y-86968683D02*
X124234073Y-87002017D01*
X124234073Y-87002017D02*
X124000740Y-87002017D01*
X124000740Y-87002017D02*
X123867406Y-86968683D01*
X123867406Y-86968683D02*
X123800740Y-86902017D01*
X123800740Y-86902017D02*
X123767406Y-86835350D01*
X123767406Y-86835350D02*
X123767406Y-86702017D01*
X123767406Y-86702017D02*
X123800740Y-86635350D01*
X123800740Y-86635350D02*
X123867406Y-86568683D01*
X123867406Y-86568683D02*
X124000740Y-86535350D01*
X124000740Y-86535350D02*
X124234073Y-86535350D01*
X124234073Y-86535350D02*
X124367406Y-86568683D01*
X124367406Y-86568683D02*
X124434073Y-86635350D01*
X124434073Y-86635350D02*
X124467406Y-86702017D01*
X124400740Y-87268683D02*
X124434073Y-87302016D01*
X124434073Y-87302016D02*
X124467406Y-87368683D01*
X124467406Y-87368683D02*
X124467406Y-87535350D01*
X124467406Y-87535350D02*
X124434073Y-87602016D01*
X124434073Y-87602016D02*
X124400740Y-87635350D01*
X124400740Y-87635350D02*
X124334073Y-87668683D01*
X124334073Y-87668683D02*
X124267406Y-87668683D01*
X124267406Y-87668683D02*
X124167406Y-87635350D01*
X124167406Y-87635350D02*
X123767406Y-87235350D01*
X123767406Y-87235350D02*
X123767406Y-87668683D01*
X124467406Y-88302017D02*
X124467406Y-87968683D01*
X124467406Y-87968683D02*
X124134073Y-87935350D01*
X124134073Y-87935350D02*
X124167406Y-87968683D01*
X124167406Y-87968683D02*
X124200740Y-88035350D01*
X124200740Y-88035350D02*
X124200740Y-88202017D01*
X124200740Y-88202017D02*
X124167406Y-88268683D01*
X124167406Y-88268683D02*
X124134073Y-88302017D01*
X124134073Y-88302017D02*
X124067406Y-88335350D01*
X124067406Y-88335350D02*
X123900740Y-88335350D01*
X123900740Y-88335350D02*
X123834073Y-88302017D01*
X123834073Y-88302017D02*
X123800740Y-88268683D01*
X123800740Y-88268683D02*
X123767406Y-88202017D01*
X123767406Y-88202017D02*
X123767406Y-88035350D01*
X123767406Y-88035350D02*
X123800740Y-87968683D01*
X123800740Y-87968683D02*
X123834073Y-87935350D01*
X119354073Y-85202017D02*
X119387406Y-85135350D01*
X119387406Y-85135350D02*
X119387406Y-85035350D01*
X119387406Y-85035350D02*
X119354073Y-84935350D01*
X119354073Y-84935350D02*
X119287406Y-84868684D01*
X119287406Y-84868684D02*
X119220740Y-84835350D01*
X119220740Y-84835350D02*
X119087406Y-84802017D01*
X119087406Y-84802017D02*
X118987406Y-84802017D01*
X118987406Y-84802017D02*
X118854073Y-84835350D01*
X118854073Y-84835350D02*
X118787406Y-84868684D01*
X118787406Y-84868684D02*
X118720740Y-84935350D01*
X118720740Y-84935350D02*
X118687406Y-85035350D01*
X118687406Y-85035350D02*
X118687406Y-85102017D01*
X118687406Y-85102017D02*
X118720740Y-85202017D01*
X118720740Y-85202017D02*
X118754073Y-85235350D01*
X118754073Y-85235350D02*
X118987406Y-85235350D01*
X118987406Y-85235350D02*
X118987406Y-85102017D01*
X118687406Y-85535350D02*
X119387406Y-85535350D01*
X119387406Y-85535350D02*
X119387406Y-85802017D01*
X119387406Y-85802017D02*
X119354073Y-85868684D01*
X119354073Y-85868684D02*
X119320740Y-85902017D01*
X119320740Y-85902017D02*
X119254073Y-85935350D01*
X119254073Y-85935350D02*
X119154073Y-85935350D01*
X119154073Y-85935350D02*
X119087406Y-85902017D01*
X119087406Y-85902017D02*
X119054073Y-85868684D01*
X119054073Y-85868684D02*
X119020740Y-85802017D01*
X119020740Y-85802017D02*
X119020740Y-85535350D01*
X118687406Y-86235350D02*
X119387406Y-86235350D01*
X119387406Y-86702017D02*
X119387406Y-86835350D01*
X119387406Y-86835350D02*
X119354073Y-86902017D01*
X119354073Y-86902017D02*
X119287406Y-86968683D01*
X119287406Y-86968683D02*
X119154073Y-87002017D01*
X119154073Y-87002017D02*
X118920740Y-87002017D01*
X118920740Y-87002017D02*
X118787406Y-86968683D01*
X118787406Y-86968683D02*
X118720740Y-86902017D01*
X118720740Y-86902017D02*
X118687406Y-86835350D01*
X118687406Y-86835350D02*
X118687406Y-86702017D01*
X118687406Y-86702017D02*
X118720740Y-86635350D01*
X118720740Y-86635350D02*
X118787406Y-86568683D01*
X118787406Y-86568683D02*
X118920740Y-86535350D01*
X118920740Y-86535350D02*
X119154073Y-86535350D01*
X119154073Y-86535350D02*
X119287406Y-86568683D01*
X119287406Y-86568683D02*
X119354073Y-86635350D01*
X119354073Y-86635350D02*
X119387406Y-86702017D01*
X119320740Y-87268683D02*
X119354073Y-87302016D01*
X119354073Y-87302016D02*
X119387406Y-87368683D01*
X119387406Y-87368683D02*
X119387406Y-87535350D01*
X119387406Y-87535350D02*
X119354073Y-87602016D01*
X119354073Y-87602016D02*
X119320740Y-87635350D01*
X119320740Y-87635350D02*
X119254073Y-87668683D01*
X119254073Y-87668683D02*
X119187406Y-87668683D01*
X119187406Y-87668683D02*
X119087406Y-87635350D01*
X119087406Y-87635350D02*
X118687406Y-87235350D01*
X118687406Y-87235350D02*
X118687406Y-87668683D01*
X119387406Y-87902017D02*
X119387406Y-88368683D01*
X119387406Y-88368683D02*
X118687406Y-88068683D01*
X126974073Y-104064649D02*
X127007406Y-103997982D01*
X127007406Y-103997982D02*
X127007406Y-103897982D01*
X127007406Y-103897982D02*
X126974073Y-103797982D01*
X126974073Y-103797982D02*
X126907406Y-103731316D01*
X126907406Y-103731316D02*
X126840740Y-103697982D01*
X126840740Y-103697982D02*
X126707406Y-103664649D01*
X126707406Y-103664649D02*
X126607406Y-103664649D01*
X126607406Y-103664649D02*
X126474073Y-103697982D01*
X126474073Y-103697982D02*
X126407406Y-103731316D01*
X126407406Y-103731316D02*
X126340740Y-103797982D01*
X126340740Y-103797982D02*
X126307406Y-103897982D01*
X126307406Y-103897982D02*
X126307406Y-103964649D01*
X126307406Y-103964649D02*
X126340740Y-104064649D01*
X126340740Y-104064649D02*
X126374073Y-104097982D01*
X126374073Y-104097982D02*
X126607406Y-104097982D01*
X126607406Y-104097982D02*
X126607406Y-103964649D01*
X126307406Y-104397982D02*
X127007406Y-104397982D01*
X127007406Y-104397982D02*
X127007406Y-104664649D01*
X127007406Y-104664649D02*
X126974073Y-104731316D01*
X126974073Y-104731316D02*
X126940740Y-104764649D01*
X126940740Y-104764649D02*
X126874073Y-104797982D01*
X126874073Y-104797982D02*
X126774073Y-104797982D01*
X126774073Y-104797982D02*
X126707406Y-104764649D01*
X126707406Y-104764649D02*
X126674073Y-104731316D01*
X126674073Y-104731316D02*
X126640740Y-104664649D01*
X126640740Y-104664649D02*
X126640740Y-104397982D01*
X126307406Y-105097982D02*
X127007406Y-105097982D01*
X127007406Y-105564649D02*
X127007406Y-105697982D01*
X127007406Y-105697982D02*
X126974073Y-105764649D01*
X126974073Y-105764649D02*
X126907406Y-105831315D01*
X126907406Y-105831315D02*
X126774073Y-105864649D01*
X126774073Y-105864649D02*
X126540740Y-105864649D01*
X126540740Y-105864649D02*
X126407406Y-105831315D01*
X126407406Y-105831315D02*
X126340740Y-105764649D01*
X126340740Y-105764649D02*
X126307406Y-105697982D01*
X126307406Y-105697982D02*
X126307406Y-105564649D01*
X126307406Y-105564649D02*
X126340740Y-105497982D01*
X126340740Y-105497982D02*
X126407406Y-105431315D01*
X126407406Y-105431315D02*
X126540740Y-105397982D01*
X126540740Y-105397982D02*
X126774073Y-105397982D01*
X126774073Y-105397982D02*
X126907406Y-105431315D01*
X126907406Y-105431315D02*
X126974073Y-105497982D01*
X126974073Y-105497982D02*
X127007406Y-105564649D01*
X126307406Y-106531315D02*
X126307406Y-106131315D01*
X126307406Y-106331315D02*
X127007406Y-106331315D01*
X127007406Y-106331315D02*
X126907406Y-106264648D01*
X126907406Y-106264648D02*
X126840740Y-106197982D01*
X126840740Y-106197982D02*
X126807406Y-106131315D01*
X126307406Y-106864649D02*
X126307406Y-106997982D01*
X126307406Y-106997982D02*
X126340740Y-107064649D01*
X126340740Y-107064649D02*
X126374073Y-107097982D01*
X126374073Y-107097982D02*
X126474073Y-107164649D01*
X126474073Y-107164649D02*
X126607406Y-107197982D01*
X126607406Y-107197982D02*
X126874073Y-107197982D01*
X126874073Y-107197982D02*
X126940740Y-107164649D01*
X126940740Y-107164649D02*
X126974073Y-107131315D01*
X126974073Y-107131315D02*
X127007406Y-107064649D01*
X127007406Y-107064649D02*
X127007406Y-106931315D01*
X127007406Y-106931315D02*
X126974073Y-106864649D01*
X126974073Y-106864649D02*
X126940740Y-106831315D01*
X126940740Y-106831315D02*
X126874073Y-106797982D01*
X126874073Y-106797982D02*
X126707406Y-106797982D01*
X126707406Y-106797982D02*
X126640740Y-106831315D01*
X126640740Y-106831315D02*
X126607406Y-106864649D01*
X126607406Y-106864649D02*
X126574073Y-106931315D01*
X126574073Y-106931315D02*
X126574073Y-107064649D01*
X126574073Y-107064649D02*
X126607406Y-107131315D01*
X126607406Y-107131315D02*
X126640740Y-107164649D01*
X126640740Y-107164649D02*
X126707406Y-107197982D01*
X116814073Y-85202017D02*
X116847406Y-85135350D01*
X116847406Y-85135350D02*
X116847406Y-85035350D01*
X116847406Y-85035350D02*
X116814073Y-84935350D01*
X116814073Y-84935350D02*
X116747406Y-84868684D01*
X116747406Y-84868684D02*
X116680740Y-84835350D01*
X116680740Y-84835350D02*
X116547406Y-84802017D01*
X116547406Y-84802017D02*
X116447406Y-84802017D01*
X116447406Y-84802017D02*
X116314073Y-84835350D01*
X116314073Y-84835350D02*
X116247406Y-84868684D01*
X116247406Y-84868684D02*
X116180740Y-84935350D01*
X116180740Y-84935350D02*
X116147406Y-85035350D01*
X116147406Y-85035350D02*
X116147406Y-85102017D01*
X116147406Y-85102017D02*
X116180740Y-85202017D01*
X116180740Y-85202017D02*
X116214073Y-85235350D01*
X116214073Y-85235350D02*
X116447406Y-85235350D01*
X116447406Y-85235350D02*
X116447406Y-85102017D01*
X116147406Y-85535350D02*
X116847406Y-85535350D01*
X116847406Y-85535350D02*
X116847406Y-85802017D01*
X116847406Y-85802017D02*
X116814073Y-85868684D01*
X116814073Y-85868684D02*
X116780740Y-85902017D01*
X116780740Y-85902017D02*
X116714073Y-85935350D01*
X116714073Y-85935350D02*
X116614073Y-85935350D01*
X116614073Y-85935350D02*
X116547406Y-85902017D01*
X116547406Y-85902017D02*
X116514073Y-85868684D01*
X116514073Y-85868684D02*
X116480740Y-85802017D01*
X116480740Y-85802017D02*
X116480740Y-85535350D01*
X116147406Y-86235350D02*
X116847406Y-86235350D01*
X116847406Y-86702017D02*
X116847406Y-86835350D01*
X116847406Y-86835350D02*
X116814073Y-86902017D01*
X116814073Y-86902017D02*
X116747406Y-86968683D01*
X116747406Y-86968683D02*
X116614073Y-87002017D01*
X116614073Y-87002017D02*
X116380740Y-87002017D01*
X116380740Y-87002017D02*
X116247406Y-86968683D01*
X116247406Y-86968683D02*
X116180740Y-86902017D01*
X116180740Y-86902017D02*
X116147406Y-86835350D01*
X116147406Y-86835350D02*
X116147406Y-86702017D01*
X116147406Y-86702017D02*
X116180740Y-86635350D01*
X116180740Y-86635350D02*
X116247406Y-86568683D01*
X116247406Y-86568683D02*
X116380740Y-86535350D01*
X116380740Y-86535350D02*
X116614073Y-86535350D01*
X116614073Y-86535350D02*
X116747406Y-86568683D01*
X116747406Y-86568683D02*
X116814073Y-86635350D01*
X116814073Y-86635350D02*
X116847406Y-86702017D01*
X116147406Y-87668683D02*
X116147406Y-87268683D01*
X116147406Y-87468683D02*
X116847406Y-87468683D01*
X116847406Y-87468683D02*
X116747406Y-87402016D01*
X116747406Y-87402016D02*
X116680740Y-87335350D01*
X116680740Y-87335350D02*
X116647406Y-87268683D01*
X116614073Y-88268683D02*
X116147406Y-88268683D01*
X116880740Y-88102017D02*
X116380740Y-87935350D01*
X116380740Y-87935350D02*
X116380740Y-88368683D01*
X116880740Y-89135350D02*
X115980740Y-88535350D01*
X116147406Y-89368683D02*
X116847406Y-89368683D01*
X116847406Y-89368683D02*
X116347406Y-89602017D01*
X116347406Y-89602017D02*
X116847406Y-89835350D01*
X116847406Y-89835350D02*
X116147406Y-89835350D01*
X116847406Y-90068683D02*
X116847406Y-90468683D01*
X116147406Y-90268683D02*
X116847406Y-90268683D01*
X116147406Y-90702016D02*
X116847406Y-90702016D01*
X116847406Y-90702016D02*
X116347406Y-90935350D01*
X116347406Y-90935350D02*
X116847406Y-91168683D01*
X116847406Y-91168683D02*
X116147406Y-91168683D01*
X116180740Y-91468683D02*
X116147406Y-91568683D01*
X116147406Y-91568683D02*
X116147406Y-91735350D01*
X116147406Y-91735350D02*
X116180740Y-91802016D01*
X116180740Y-91802016D02*
X116214073Y-91835350D01*
X116214073Y-91835350D02*
X116280740Y-91868683D01*
X116280740Y-91868683D02*
X116347406Y-91868683D01*
X116347406Y-91868683D02*
X116414073Y-91835350D01*
X116414073Y-91835350D02*
X116447406Y-91802016D01*
X116447406Y-91802016D02*
X116480740Y-91735350D01*
X116480740Y-91735350D02*
X116514073Y-91602016D01*
X116514073Y-91602016D02*
X116547406Y-91535350D01*
X116547406Y-91535350D02*
X116580740Y-91502016D01*
X116580740Y-91502016D02*
X116647406Y-91468683D01*
X116647406Y-91468683D02*
X116714073Y-91468683D01*
X116714073Y-91468683D02*
X116780740Y-91502016D01*
X116780740Y-91502016D02*
X116814073Y-91535350D01*
X116814073Y-91535350D02*
X116847406Y-91602016D01*
X116847406Y-91602016D02*
X116847406Y-91768683D01*
X116847406Y-91768683D02*
X116814073Y-91868683D01*
X109194073Y-104731316D02*
X109227406Y-104664649D01*
X109227406Y-104664649D02*
X109227406Y-104564649D01*
X109227406Y-104564649D02*
X109194073Y-104464649D01*
X109194073Y-104464649D02*
X109127406Y-104397983D01*
X109127406Y-104397983D02*
X109060740Y-104364649D01*
X109060740Y-104364649D02*
X108927406Y-104331316D01*
X108927406Y-104331316D02*
X108827406Y-104331316D01*
X108827406Y-104331316D02*
X108694073Y-104364649D01*
X108694073Y-104364649D02*
X108627406Y-104397983D01*
X108627406Y-104397983D02*
X108560740Y-104464649D01*
X108560740Y-104464649D02*
X108527406Y-104564649D01*
X108527406Y-104564649D02*
X108527406Y-104631316D01*
X108527406Y-104631316D02*
X108560740Y-104731316D01*
X108560740Y-104731316D02*
X108594073Y-104764649D01*
X108594073Y-104764649D02*
X108827406Y-104764649D01*
X108827406Y-104764649D02*
X108827406Y-104631316D01*
X108527406Y-105064649D02*
X109227406Y-105064649D01*
X109227406Y-105064649D02*
X109227406Y-105331316D01*
X109227406Y-105331316D02*
X109194073Y-105397983D01*
X109194073Y-105397983D02*
X109160740Y-105431316D01*
X109160740Y-105431316D02*
X109094073Y-105464649D01*
X109094073Y-105464649D02*
X108994073Y-105464649D01*
X108994073Y-105464649D02*
X108927406Y-105431316D01*
X108927406Y-105431316D02*
X108894073Y-105397983D01*
X108894073Y-105397983D02*
X108860740Y-105331316D01*
X108860740Y-105331316D02*
X108860740Y-105064649D01*
X108527406Y-105764649D02*
X109227406Y-105764649D01*
X109227406Y-106231316D02*
X109227406Y-106364649D01*
X109227406Y-106364649D02*
X109194073Y-106431316D01*
X109194073Y-106431316D02*
X109127406Y-106497982D01*
X109127406Y-106497982D02*
X108994073Y-106531316D01*
X108994073Y-106531316D02*
X108760740Y-106531316D01*
X108760740Y-106531316D02*
X108627406Y-106497982D01*
X108627406Y-106497982D02*
X108560740Y-106431316D01*
X108560740Y-106431316D02*
X108527406Y-106364649D01*
X108527406Y-106364649D02*
X108527406Y-106231316D01*
X108527406Y-106231316D02*
X108560740Y-106164649D01*
X108560740Y-106164649D02*
X108627406Y-106097982D01*
X108627406Y-106097982D02*
X108760740Y-106064649D01*
X108760740Y-106064649D02*
X108994073Y-106064649D01*
X108994073Y-106064649D02*
X109127406Y-106097982D01*
X109127406Y-106097982D02*
X109194073Y-106164649D01*
X109194073Y-106164649D02*
X109227406Y-106231316D01*
X109160740Y-106797982D02*
X109194073Y-106831315D01*
X109194073Y-106831315D02*
X109227406Y-106897982D01*
X109227406Y-106897982D02*
X109227406Y-107064649D01*
X109227406Y-107064649D02*
X109194073Y-107131315D01*
X109194073Y-107131315D02*
X109160740Y-107164649D01*
X109160740Y-107164649D02*
X109094073Y-107197982D01*
X109094073Y-107197982D02*
X109027406Y-107197982D01*
X109027406Y-107197982D02*
X108927406Y-107164649D01*
X108927406Y-107164649D02*
X108527406Y-106764649D01*
X108527406Y-106764649D02*
X108527406Y-107197982D01*
X111881001Y-85430588D02*
X111928620Y-85335350D01*
X111928620Y-85335350D02*
X111928620Y-85192493D01*
X111928620Y-85192493D02*
X111881001Y-85049636D01*
X111881001Y-85049636D02*
X111785763Y-84954398D01*
X111785763Y-84954398D02*
X111690525Y-84906779D01*
X111690525Y-84906779D02*
X111500049Y-84859160D01*
X111500049Y-84859160D02*
X111357192Y-84859160D01*
X111357192Y-84859160D02*
X111166716Y-84906779D01*
X111166716Y-84906779D02*
X111071478Y-84954398D01*
X111071478Y-84954398D02*
X110976240Y-85049636D01*
X110976240Y-85049636D02*
X110928620Y-85192493D01*
X110928620Y-85192493D02*
X110928620Y-85287731D01*
X110928620Y-85287731D02*
X110976240Y-85430588D01*
X110976240Y-85430588D02*
X111023859Y-85478207D01*
X111023859Y-85478207D02*
X111357192Y-85478207D01*
X111357192Y-85478207D02*
X111357192Y-85287731D01*
X110928620Y-85906779D02*
X111928620Y-85906779D01*
X111928620Y-85906779D02*
X110928620Y-86478207D01*
X110928620Y-86478207D02*
X111928620Y-86478207D01*
X110928620Y-86954398D02*
X111928620Y-86954398D01*
X111928620Y-86954398D02*
X111928620Y-87192493D01*
X111928620Y-87192493D02*
X111881001Y-87335350D01*
X111881001Y-87335350D02*
X111785763Y-87430588D01*
X111785763Y-87430588D02*
X111690525Y-87478207D01*
X111690525Y-87478207D02*
X111500049Y-87525826D01*
X111500049Y-87525826D02*
X111357192Y-87525826D01*
X111357192Y-87525826D02*
X111166716Y-87478207D01*
X111166716Y-87478207D02*
X111071478Y-87430588D01*
X111071478Y-87430588D02*
X110976240Y-87335350D01*
X110976240Y-87335350D02*
X110928620Y-87192493D01*
X110928620Y-87192493D02*
X110928620Y-86954398D01*
X134594073Y-100531316D02*
X134627406Y-100464649D01*
X134627406Y-100464649D02*
X134627406Y-100364649D01*
X134627406Y-100364649D02*
X134594073Y-100264649D01*
X134594073Y-100264649D02*
X134527406Y-100197983D01*
X134527406Y-100197983D02*
X134460740Y-100164649D01*
X134460740Y-100164649D02*
X134327406Y-100131316D01*
X134327406Y-100131316D02*
X134227406Y-100131316D01*
X134227406Y-100131316D02*
X134094073Y-100164649D01*
X134094073Y-100164649D02*
X134027406Y-100197983D01*
X134027406Y-100197983D02*
X133960740Y-100264649D01*
X133960740Y-100264649D02*
X133927406Y-100364649D01*
X133927406Y-100364649D02*
X133927406Y-100431316D01*
X133927406Y-100431316D02*
X133960740Y-100531316D01*
X133960740Y-100531316D02*
X133994073Y-100564649D01*
X133994073Y-100564649D02*
X134227406Y-100564649D01*
X134227406Y-100564649D02*
X134227406Y-100431316D01*
X133927406Y-100864649D02*
X134627406Y-100864649D01*
X134627406Y-100864649D02*
X134627406Y-101131316D01*
X134627406Y-101131316D02*
X134594073Y-101197983D01*
X134594073Y-101197983D02*
X134560740Y-101231316D01*
X134560740Y-101231316D02*
X134494073Y-101264649D01*
X134494073Y-101264649D02*
X134394073Y-101264649D01*
X134394073Y-101264649D02*
X134327406Y-101231316D01*
X134327406Y-101231316D02*
X134294073Y-101197983D01*
X134294073Y-101197983D02*
X134260740Y-101131316D01*
X134260740Y-101131316D02*
X134260740Y-100864649D01*
X133927406Y-101564649D02*
X134627406Y-101564649D01*
X134627406Y-102031316D02*
X134627406Y-102164649D01*
X134627406Y-102164649D02*
X134594073Y-102231316D01*
X134594073Y-102231316D02*
X134527406Y-102297982D01*
X134527406Y-102297982D02*
X134394073Y-102331316D01*
X134394073Y-102331316D02*
X134160740Y-102331316D01*
X134160740Y-102331316D02*
X134027406Y-102297982D01*
X134027406Y-102297982D02*
X133960740Y-102231316D01*
X133960740Y-102231316D02*
X133927406Y-102164649D01*
X133927406Y-102164649D02*
X133927406Y-102031316D01*
X133927406Y-102031316D02*
X133960740Y-101964649D01*
X133960740Y-101964649D02*
X134027406Y-101897982D01*
X134027406Y-101897982D02*
X134160740Y-101864649D01*
X134160740Y-101864649D02*
X134394073Y-101864649D01*
X134394073Y-101864649D02*
X134527406Y-101897982D01*
X134527406Y-101897982D02*
X134594073Y-101964649D01*
X134594073Y-101964649D02*
X134627406Y-102031316D01*
X134627406Y-102564649D02*
X134627406Y-102997982D01*
X134627406Y-102997982D02*
X134360740Y-102764649D01*
X134360740Y-102764649D02*
X134360740Y-102864649D01*
X134360740Y-102864649D02*
X134327406Y-102931315D01*
X134327406Y-102931315D02*
X134294073Y-102964649D01*
X134294073Y-102964649D02*
X134227406Y-102997982D01*
X134227406Y-102997982D02*
X134060740Y-102997982D01*
X134060740Y-102997982D02*
X133994073Y-102964649D01*
X133994073Y-102964649D02*
X133960740Y-102931315D01*
X133960740Y-102931315D02*
X133927406Y-102864649D01*
X133927406Y-102864649D02*
X133927406Y-102664649D01*
X133927406Y-102664649D02*
X133960740Y-102597982D01*
X133960740Y-102597982D02*
X133994073Y-102564649D01*
X134660740Y-103797982D02*
X133760740Y-103197982D01*
X134627406Y-104031315D02*
X134060740Y-104031315D01*
X134060740Y-104031315D02*
X133994073Y-104064649D01*
X133994073Y-104064649D02*
X133960740Y-104097982D01*
X133960740Y-104097982D02*
X133927406Y-104164649D01*
X133927406Y-104164649D02*
X133927406Y-104297982D01*
X133927406Y-104297982D02*
X133960740Y-104364649D01*
X133960740Y-104364649D02*
X133994073Y-104397982D01*
X133994073Y-104397982D02*
X134060740Y-104431315D01*
X134060740Y-104431315D02*
X134627406Y-104431315D01*
X134627406Y-104897982D02*
X134627406Y-104964648D01*
X134627406Y-104964648D02*
X134594073Y-105031315D01*
X134594073Y-105031315D02*
X134560740Y-105064648D01*
X134560740Y-105064648D02*
X134494073Y-105097982D01*
X134494073Y-105097982D02*
X134360740Y-105131315D01*
X134360740Y-105131315D02*
X134194073Y-105131315D01*
X134194073Y-105131315D02*
X134060740Y-105097982D01*
X134060740Y-105097982D02*
X133994073Y-105064648D01*
X133994073Y-105064648D02*
X133960740Y-105031315D01*
X133960740Y-105031315D02*
X133927406Y-104964648D01*
X133927406Y-104964648D02*
X133927406Y-104897982D01*
X133927406Y-104897982D02*
X133960740Y-104831315D01*
X133960740Y-104831315D02*
X133994073Y-104797982D01*
X133994073Y-104797982D02*
X134060740Y-104764648D01*
X134060740Y-104764648D02*
X134194073Y-104731315D01*
X134194073Y-104731315D02*
X134360740Y-104731315D01*
X134360740Y-104731315D02*
X134494073Y-104764648D01*
X134494073Y-104764648D02*
X134560740Y-104797982D01*
X134560740Y-104797982D02*
X134594073Y-104831315D01*
X134594073Y-104831315D02*
X134627406Y-104897982D01*
X133927406Y-105831315D02*
X134260740Y-105597982D01*
X133927406Y-105431315D02*
X134627406Y-105431315D01*
X134627406Y-105431315D02*
X134627406Y-105697982D01*
X134627406Y-105697982D02*
X134594073Y-105764649D01*
X134594073Y-105764649D02*
X134560740Y-105797982D01*
X134560740Y-105797982D02*
X134494073Y-105831315D01*
X134494073Y-105831315D02*
X134394073Y-105831315D01*
X134394073Y-105831315D02*
X134327406Y-105797982D01*
X134327406Y-105797982D02*
X134294073Y-105764649D01*
X134294073Y-105764649D02*
X134260740Y-105697982D01*
X134260740Y-105697982D02*
X134260740Y-105431315D01*
X134627406Y-106064649D02*
X133927406Y-106531315D01*
X134627406Y-106531315D02*
X133927406Y-106064649D01*
X133927406Y-106797982D02*
X134627406Y-106797982D01*
X134627406Y-106797982D02*
X134627406Y-106964649D01*
X134627406Y-106964649D02*
X134594073Y-107064649D01*
X134594073Y-107064649D02*
X134527406Y-107131316D01*
X134527406Y-107131316D02*
X134460740Y-107164649D01*
X134460740Y-107164649D02*
X134327406Y-107197982D01*
X134327406Y-107197982D02*
X134227406Y-107197982D01*
X134227406Y-107197982D02*
X134094073Y-107164649D01*
X134094073Y-107164649D02*
X134027406Y-107131316D01*
X134027406Y-107131316D02*
X133960740Y-107064649D01*
X133960740Y-107064649D02*
X133927406Y-106964649D01*
X133927406Y-106964649D02*
X133927406Y-106797982D01*
X114274073Y-85202017D02*
X114307406Y-85135350D01*
X114307406Y-85135350D02*
X114307406Y-85035350D01*
X114307406Y-85035350D02*
X114274073Y-84935350D01*
X114274073Y-84935350D02*
X114207406Y-84868684D01*
X114207406Y-84868684D02*
X114140740Y-84835350D01*
X114140740Y-84835350D02*
X114007406Y-84802017D01*
X114007406Y-84802017D02*
X113907406Y-84802017D01*
X113907406Y-84802017D02*
X113774073Y-84835350D01*
X113774073Y-84835350D02*
X113707406Y-84868684D01*
X113707406Y-84868684D02*
X113640740Y-84935350D01*
X113640740Y-84935350D02*
X113607406Y-85035350D01*
X113607406Y-85035350D02*
X113607406Y-85102017D01*
X113607406Y-85102017D02*
X113640740Y-85202017D01*
X113640740Y-85202017D02*
X113674073Y-85235350D01*
X113674073Y-85235350D02*
X113907406Y-85235350D01*
X113907406Y-85235350D02*
X113907406Y-85102017D01*
X113607406Y-85535350D02*
X114307406Y-85535350D01*
X114307406Y-85535350D02*
X114307406Y-85802017D01*
X114307406Y-85802017D02*
X114274073Y-85868684D01*
X114274073Y-85868684D02*
X114240740Y-85902017D01*
X114240740Y-85902017D02*
X114174073Y-85935350D01*
X114174073Y-85935350D02*
X114074073Y-85935350D01*
X114074073Y-85935350D02*
X114007406Y-85902017D01*
X114007406Y-85902017D02*
X113974073Y-85868684D01*
X113974073Y-85868684D02*
X113940740Y-85802017D01*
X113940740Y-85802017D02*
X113940740Y-85535350D01*
X113607406Y-86235350D02*
X114307406Y-86235350D01*
X114307406Y-86702017D02*
X114307406Y-86835350D01*
X114307406Y-86835350D02*
X114274073Y-86902017D01*
X114274073Y-86902017D02*
X114207406Y-86968683D01*
X114207406Y-86968683D02*
X114074073Y-87002017D01*
X114074073Y-87002017D02*
X113840740Y-87002017D01*
X113840740Y-87002017D02*
X113707406Y-86968683D01*
X113707406Y-86968683D02*
X113640740Y-86902017D01*
X113640740Y-86902017D02*
X113607406Y-86835350D01*
X113607406Y-86835350D02*
X113607406Y-86702017D01*
X113607406Y-86702017D02*
X113640740Y-86635350D01*
X113640740Y-86635350D02*
X113707406Y-86568683D01*
X113707406Y-86568683D02*
X113840740Y-86535350D01*
X113840740Y-86535350D02*
X114074073Y-86535350D01*
X114074073Y-86535350D02*
X114207406Y-86568683D01*
X114207406Y-86568683D02*
X114274073Y-86635350D01*
X114274073Y-86635350D02*
X114307406Y-86702017D01*
X113607406Y-87668683D02*
X113607406Y-87268683D01*
X113607406Y-87468683D02*
X114307406Y-87468683D01*
X114307406Y-87468683D02*
X114207406Y-87402016D01*
X114207406Y-87402016D02*
X114140740Y-87335350D01*
X114140740Y-87335350D02*
X114107406Y-87268683D01*
X114240740Y-87935350D02*
X114274073Y-87968683D01*
X114274073Y-87968683D02*
X114307406Y-88035350D01*
X114307406Y-88035350D02*
X114307406Y-88202017D01*
X114307406Y-88202017D02*
X114274073Y-88268683D01*
X114274073Y-88268683D02*
X114240740Y-88302017D01*
X114240740Y-88302017D02*
X114174073Y-88335350D01*
X114174073Y-88335350D02*
X114107406Y-88335350D01*
X114107406Y-88335350D02*
X114007406Y-88302017D01*
X114007406Y-88302017D02*
X113607406Y-87902017D01*
X113607406Y-87902017D02*
X113607406Y-88335350D01*
X114340740Y-89135350D02*
X113440740Y-88535350D01*
X113607406Y-89368683D02*
X114307406Y-89368683D01*
X114307406Y-89368683D02*
X113807406Y-89602017D01*
X113807406Y-89602017D02*
X114307406Y-89835350D01*
X114307406Y-89835350D02*
X113607406Y-89835350D01*
X114307406Y-90068683D02*
X114307406Y-90468683D01*
X113607406Y-90268683D02*
X114307406Y-90268683D01*
X113607406Y-90702016D02*
X114307406Y-90702016D01*
X114307406Y-90702016D02*
X114307406Y-90868683D01*
X114307406Y-90868683D02*
X114274073Y-90968683D01*
X114274073Y-90968683D02*
X114207406Y-91035350D01*
X114207406Y-91035350D02*
X114140740Y-91068683D01*
X114140740Y-91068683D02*
X114007406Y-91102016D01*
X114007406Y-91102016D02*
X113907406Y-91102016D01*
X113907406Y-91102016D02*
X113774073Y-91068683D01*
X113774073Y-91068683D02*
X113707406Y-91035350D01*
X113707406Y-91035350D02*
X113640740Y-90968683D01*
X113640740Y-90968683D02*
X113607406Y-90868683D01*
X113607406Y-90868683D02*
X113607406Y-90702016D01*
X113607406Y-91402016D02*
X114307406Y-91402016D01*
X134594073Y-85202017D02*
X134627406Y-85135350D01*
X134627406Y-85135350D02*
X134627406Y-85035350D01*
X134627406Y-85035350D02*
X134594073Y-84935350D01*
X134594073Y-84935350D02*
X134527406Y-84868684D01*
X134527406Y-84868684D02*
X134460740Y-84835350D01*
X134460740Y-84835350D02*
X134327406Y-84802017D01*
X134327406Y-84802017D02*
X134227406Y-84802017D01*
X134227406Y-84802017D02*
X134094073Y-84835350D01*
X134094073Y-84835350D02*
X134027406Y-84868684D01*
X134027406Y-84868684D02*
X133960740Y-84935350D01*
X133960740Y-84935350D02*
X133927406Y-85035350D01*
X133927406Y-85035350D02*
X133927406Y-85102017D01*
X133927406Y-85102017D02*
X133960740Y-85202017D01*
X133960740Y-85202017D02*
X133994073Y-85235350D01*
X133994073Y-85235350D02*
X134227406Y-85235350D01*
X134227406Y-85235350D02*
X134227406Y-85102017D01*
X133927406Y-85535350D02*
X134627406Y-85535350D01*
X134627406Y-85535350D02*
X134627406Y-85802017D01*
X134627406Y-85802017D02*
X134594073Y-85868684D01*
X134594073Y-85868684D02*
X134560740Y-85902017D01*
X134560740Y-85902017D02*
X134494073Y-85935350D01*
X134494073Y-85935350D02*
X134394073Y-85935350D01*
X134394073Y-85935350D02*
X134327406Y-85902017D01*
X134327406Y-85902017D02*
X134294073Y-85868684D01*
X134294073Y-85868684D02*
X134260740Y-85802017D01*
X134260740Y-85802017D02*
X134260740Y-85535350D01*
X133927406Y-86235350D02*
X134627406Y-86235350D01*
X134627406Y-86702017D02*
X134627406Y-86835350D01*
X134627406Y-86835350D02*
X134594073Y-86902017D01*
X134594073Y-86902017D02*
X134527406Y-86968683D01*
X134527406Y-86968683D02*
X134394073Y-87002017D01*
X134394073Y-87002017D02*
X134160740Y-87002017D01*
X134160740Y-87002017D02*
X134027406Y-86968683D01*
X134027406Y-86968683D02*
X133960740Y-86902017D01*
X133960740Y-86902017D02*
X133927406Y-86835350D01*
X133927406Y-86835350D02*
X133927406Y-86702017D01*
X133927406Y-86702017D02*
X133960740Y-86635350D01*
X133960740Y-86635350D02*
X134027406Y-86568683D01*
X134027406Y-86568683D02*
X134160740Y-86535350D01*
X134160740Y-86535350D02*
X134394073Y-86535350D01*
X134394073Y-86535350D02*
X134527406Y-86568683D01*
X134527406Y-86568683D02*
X134594073Y-86635350D01*
X134594073Y-86635350D02*
X134627406Y-86702017D01*
X134627406Y-87235350D02*
X134627406Y-87668683D01*
X134627406Y-87668683D02*
X134360740Y-87435350D01*
X134360740Y-87435350D02*
X134360740Y-87535350D01*
X134360740Y-87535350D02*
X134327406Y-87602016D01*
X134327406Y-87602016D02*
X134294073Y-87635350D01*
X134294073Y-87635350D02*
X134227406Y-87668683D01*
X134227406Y-87668683D02*
X134060740Y-87668683D01*
X134060740Y-87668683D02*
X133994073Y-87635350D01*
X133994073Y-87635350D02*
X133960740Y-87602016D01*
X133960740Y-87602016D02*
X133927406Y-87535350D01*
X133927406Y-87535350D02*
X133927406Y-87335350D01*
X133927406Y-87335350D02*
X133960740Y-87268683D01*
X133960740Y-87268683D02*
X133994073Y-87235350D01*
X134394073Y-88268683D02*
X133927406Y-88268683D01*
X134660740Y-88102017D02*
X134160740Y-87935350D01*
X134160740Y-87935350D02*
X134160740Y-88368683D01*
X96324819Y-82666666D02*
X95848628Y-82999999D01*
X96324819Y-83238094D02*
X95324819Y-83238094D01*
X95324819Y-83238094D02*
X95324819Y-82857142D01*
X95324819Y-82857142D02*
X95372438Y-82761904D01*
X95372438Y-82761904D02*
X95420057Y-82714285D01*
X95420057Y-82714285D02*
X95515295Y-82666666D01*
X95515295Y-82666666D02*
X95658152Y-82666666D01*
X95658152Y-82666666D02*
X95753390Y-82714285D01*
X95753390Y-82714285D02*
X95801009Y-82761904D01*
X95801009Y-82761904D02*
X95848628Y-82857142D01*
X95848628Y-82857142D02*
X95848628Y-83238094D01*
X95420057Y-82285713D02*
X95372438Y-82238094D01*
X95372438Y-82238094D02*
X95324819Y-82142856D01*
X95324819Y-82142856D02*
X95324819Y-81904761D01*
X95324819Y-81904761D02*
X95372438Y-81809523D01*
X95372438Y-81809523D02*
X95420057Y-81761904D01*
X95420057Y-81761904D02*
X95515295Y-81714285D01*
X95515295Y-81714285D02*
X95610533Y-81714285D01*
X95610533Y-81714285D02*
X95753390Y-81761904D01*
X95753390Y-81761904D02*
X96324819Y-82333332D01*
X96324819Y-82333332D02*
X96324819Y-81714285D01*
D12*
%TO.C,U1*%
X71025000Y-89250000D02*
X71975000Y-89250000D01*
X81425000Y-89250000D02*
X80475000Y-89250000D01*
X71025000Y-87885000D02*
X71025000Y-89250000D01*
X81425000Y-87885000D02*
X81425000Y-89250000D01*
X72015000Y-92075000D02*
X71545000Y-92415000D01*
X71545000Y-91735000D01*
X72015000Y-92075000D01*
G36*
X72015000Y-92075000D02*
G01*
X71545000Y-92415000D01*
X71545000Y-91735000D01*
X72015000Y-92075000D01*
G37*
%TO.C,C6*%
X92080000Y-96515000D02*
X92080000Y-94985000D01*
X93920000Y-96515000D02*
X93920000Y-94985000D01*
%TO.C,J2*%
X110090000Y-111110000D02*
X110090000Y-112490000D01*
X108710000Y-111110000D02*
X110090000Y-111110000D01*
X107440000Y-111110000D02*
X94630000Y-111110000D01*
X107440000Y-111110000D02*
X107440000Y-113870000D01*
X94630000Y-111110000D02*
X94630000Y-113870000D01*
X107440000Y-113870000D02*
X94630000Y-113870000D01*
%TO.C,J5*%
X102610000Y-79110000D02*
X101500000Y-79110000D01*
X102610000Y-78000000D02*
X102610000Y-79110000D01*
X102610000Y-77000000D02*
X102610000Y-70890000D01*
X102610000Y-77000000D02*
X100390000Y-77000000D01*
X102610000Y-70890000D02*
X100390000Y-70890000D01*
X100390000Y-77000000D02*
X100390000Y-70890000D01*
%TO.C,J3*%
X117290000Y-113770000D02*
X117290000Y-112390000D01*
X118670000Y-113770000D02*
X117290000Y-113770000D01*
X119940000Y-113770000D02*
X130210000Y-113770000D01*
X119940000Y-113770000D02*
X119940000Y-111010000D01*
X130210000Y-113770000D02*
X130210000Y-111010000D01*
X119940000Y-111010000D02*
X130210000Y-111010000D01*
%TO.C,L1*%
X71200000Y-100700000D02*
X83800000Y-100700000D01*
X71200000Y-103700000D02*
X71200000Y-100700000D01*
X71200000Y-113300000D02*
X71200000Y-110300000D01*
X83800000Y-100700000D02*
X83800000Y-103700000D01*
X83800000Y-110300000D02*
X83800000Y-113300000D01*
X83800000Y-113300000D02*
X71200000Y-113300000D01*
%TO.C,R3*%
X93000000Y-101330000D02*
X93000000Y-101400000D01*
X94370000Y-99960000D02*
G75*
G02*
X91630000Y-99960000I-1370000J0D01*
G01*
X91630000Y-99960000D02*
G75*
G02*
X94370000Y-99960000I1370000J0D01*
G01*
%TO.C,C2*%
X101120000Y-67000000D02*
G75*
G02*
X95880000Y-67000000I-2620000J0D01*
G01*
X95880000Y-67000000D02*
G75*
G02*
X101120000Y-67000000I2620000J0D01*
G01*
%TO.C,D3*%
X86710000Y-103764000D02*
X86710000Y-103920000D01*
X86710000Y-106080000D02*
X86710000Y-106236000D01*
X86710000Y-103764484D02*
G75*
G02*
X89941437Y-103920000I1560000J-1235516D01*
G01*
X87229039Y-103920000D02*
G75*
G02*
X89310961Y-103920000I1040961J-1080000D01*
G01*
X89310961Y-106080000D02*
G75*
G02*
X87229039Y-106080000I-1040961J1080000D01*
G01*
X89941437Y-106080000D02*
G75*
G02*
X86710000Y-106235516I-1671437J1080000D01*
G01*
%TO.C,C4*%
X127620000Y-66500000D02*
G75*
G02*
X122380000Y-66500000I-2620000J0D01*
G01*
X122380000Y-66500000D02*
G75*
G02*
X127620000Y-66500000I2620000J0D01*
G01*
%TO.C,J1*%
X70550000Y-64860000D02*
X85250000Y-64860000D01*
X70550000Y-74060000D02*
X70550000Y-64860000D01*
X79350000Y-74060000D02*
X70550000Y-74060000D01*
X84400000Y-64660000D02*
X85450000Y-64660000D01*
X85250000Y-64860000D02*
X85250000Y-67460000D01*
X85250000Y-71360000D02*
X85250000Y-74060000D01*
X85250000Y-74060000D02*
X83350000Y-74060000D01*
X85450000Y-65710000D02*
X85450000Y-64660000D01*
%TO.C,D1*%
X87530000Y-73220000D02*
X87530000Y-67780000D01*
X87860000Y-73220000D02*
X87530000Y-73220000D01*
X90140000Y-73220000D02*
X90470000Y-73220000D01*
X90470000Y-73220000D02*
X90470000Y-67780000D01*
X87530000Y-72440000D02*
X90470000Y-72440000D01*
X87530000Y-72320000D02*
X90470000Y-72320000D01*
X87530000Y-72200000D02*
X90470000Y-72200000D01*
X87530000Y-67780000D02*
X87860000Y-67780000D01*
X90470000Y-67780000D02*
X90140000Y-67780000D01*
%TO.C,JP1*%
X95560000Y-75650000D02*
X95560000Y-75050000D01*
X96260000Y-74350000D02*
X97660000Y-74350000D01*
X97660000Y-76350000D02*
X96260000Y-76350000D01*
X98360000Y-75050000D02*
X98360000Y-75650000D01*
X95560000Y-75050000D02*
G75*
G02*
X96260000Y-74350000I699999J1D01*
G01*
X96260000Y-76350000D02*
G75*
G02*
X95560000Y-75650000I-1J699999D01*
G01*
X97660000Y-74350000D02*
G75*
G02*
X98360000Y-75050000I0J-700000D01*
G01*
X98360000Y-75650000D02*
G75*
G02*
X97660000Y-76350000I-700000J0D01*
G01*
%TO.C,J6*%
X127610000Y-79110000D02*
X126500000Y-79110000D01*
X127610000Y-78000000D02*
X127610000Y-79110000D01*
X127610000Y-77000000D02*
X127610000Y-70890000D01*
X127610000Y-77000000D02*
X125390000Y-77000000D01*
X127610000Y-70890000D02*
X125390000Y-70890000D01*
X125390000Y-77000000D02*
X125390000Y-70890000D01*
%TO.C,C3*%
X87265000Y-87420000D02*
X85735000Y-87420000D01*
X87265000Y-85580000D02*
X85735000Y-85580000D01*
%TO.C,C5*%
X82920000Y-95670000D02*
X91080000Y-95670000D01*
X82920000Y-95710000D02*
X91080000Y-95710000D01*
X82920000Y-95750000D02*
X91080000Y-95750000D01*
X82921000Y-95630000D02*
X91079000Y-95630000D01*
X82923000Y-95590000D02*
X91077000Y-95590000D01*
X82924000Y-95550000D02*
X91076000Y-95550000D01*
X82926000Y-95510000D02*
X91074000Y-95510000D01*
X82929000Y-95470000D02*
X91071000Y-95470000D01*
X82932000Y-95430000D02*
X91068000Y-95430000D01*
X82935000Y-95390000D02*
X91065000Y-95390000D01*
X82939000Y-95350000D02*
X91061000Y-95350000D01*
X82943000Y-95310000D02*
X91057000Y-95310000D01*
X82948000Y-95270000D02*
X91052000Y-95270000D01*
X82952000Y-95230000D02*
X91048000Y-95230000D01*
X82958000Y-95190000D02*
X91042000Y-95190000D01*
X82963000Y-95150000D02*
X91037000Y-95150000D01*
X82970000Y-95110000D02*
X91030000Y-95110000D01*
X82976000Y-95070000D02*
X91024000Y-95070000D01*
X82983000Y-95029000D02*
X85960000Y-95029000D01*
X82990000Y-94989000D02*
X85960000Y-94989000D01*
X82998000Y-94949000D02*
X85960000Y-94949000D01*
X83006000Y-94909000D02*
X85960000Y-94909000D01*
X83015000Y-94869000D02*
X85960000Y-94869000D01*
X83024000Y-94829000D02*
X85960000Y-94829000D01*
X83033000Y-94789000D02*
X85960000Y-94789000D01*
X83043000Y-94749000D02*
X85960000Y-94749000D01*
X83053000Y-94709000D02*
X85960000Y-94709000D01*
X83064000Y-94669000D02*
X85960000Y-94669000D01*
X83075000Y-94629000D02*
X85960000Y-94629000D01*
X83086000Y-94589000D02*
X85960000Y-94589000D01*
X83098000Y-94549000D02*
X85960000Y-94549000D01*
X83111000Y-94509000D02*
X85960000Y-94509000D01*
X83123000Y-94469000D02*
X85960000Y-94469000D01*
X83137000Y-94429000D02*
X85960000Y-94429000D01*
X83150000Y-94389000D02*
X85960000Y-94389000D01*
X83165000Y-94349000D02*
X85960000Y-94349000D01*
X83179000Y-94309000D02*
X85960000Y-94309000D01*
X83195000Y-94269000D02*
X85960000Y-94269000D01*
X83210000Y-94229000D02*
X85960000Y-94229000D01*
X83226000Y-94189000D02*
X85960000Y-94189000D01*
X83243000Y-94149000D02*
X85960000Y-94149000D01*
X83260000Y-94109000D02*
X85960000Y-94109000D01*
X83278000Y-94069000D02*
X85960000Y-94069000D01*
X83296000Y-94029000D02*
X85960000Y-94029000D01*
X83314000Y-93989000D02*
X85960000Y-93989000D01*
X83334000Y-93949000D02*
X85960000Y-93949000D01*
X83353000Y-93909000D02*
X85960000Y-93909000D01*
X83373000Y-93869000D02*
X85960000Y-93869000D01*
X83394000Y-93829000D02*
X85960000Y-93829000D01*
X83416000Y-93789000D02*
X85960000Y-93789000D01*
X83438000Y-93749000D02*
X85960000Y-93749000D01*
X83460000Y-93709000D02*
X85960000Y-93709000D01*
X83483000Y-93669000D02*
X85960000Y-93669000D01*
X83507000Y-93629000D02*
X85960000Y-93629000D01*
X83531000Y-93589000D02*
X85960000Y-93589000D01*
X83556000Y-93549000D02*
X85960000Y-93549000D01*
X83582000Y-93509000D02*
X85960000Y-93509000D01*
X83608000Y-93469000D02*
X85960000Y-93469000D01*
X83635000Y-93429000D02*
X85960000Y-93429000D01*
X83662000Y-93389000D02*
X85960000Y-93389000D01*
X83691000Y-93349000D02*
X85960000Y-93349000D01*
X83720000Y-93309000D02*
X85960000Y-93309000D01*
X83750000Y-93269000D02*
X85960000Y-93269000D01*
X83780000Y-93229000D02*
X85960000Y-93229000D01*
X83811000Y-93189000D02*
X85960000Y-93189000D01*
X83844000Y-93149000D02*
X85960000Y-93149000D01*
X83876000Y-93109000D02*
X85960000Y-93109000D01*
X83910000Y-93069000D02*
X85960000Y-93069000D01*
X83945000Y-93029000D02*
X85960000Y-93029000D01*
X83981000Y-92989000D02*
X85960000Y-92989000D01*
X84017000Y-92949000D02*
X89983000Y-92949000D01*
X84055000Y-92909000D02*
X89945000Y-92909000D01*
X84093000Y-92869000D02*
X89907000Y-92869000D01*
X84133000Y-92829000D02*
X89867000Y-92829000D01*
X84174000Y-92789000D02*
X89826000Y-92789000D01*
X84216000Y-92749000D02*
X89784000Y-92749000D01*
X84259000Y-92709000D02*
X89741000Y-92709000D01*
X84285000Y-99759698D02*
X85085000Y-99759698D01*
X84303000Y-92669000D02*
X89697000Y-92669000D01*
X84349000Y-92629000D02*
X89651000Y-92629000D01*
X84396000Y-92589000D02*
X89604000Y-92589000D01*
X84444000Y-92549000D02*
X89556000Y-92549000D01*
X84495000Y-92509000D02*
X89505000Y-92509000D01*
X84546000Y-92469000D02*
X89454000Y-92469000D01*
X84600000Y-92429000D02*
X89400000Y-92429000D01*
X84655000Y-92389000D02*
X89345000Y-92389000D01*
X84685000Y-100159698D02*
X84685000Y-99359698D01*
X84713000Y-92349000D02*
X89287000Y-92349000D01*
X84772000Y-92309000D02*
X89228000Y-92309000D01*
X84834000Y-92269000D02*
X89166000Y-92269000D01*
X84898000Y-92229000D02*
X89102000Y-92229000D01*
X84966000Y-92189000D02*
X89034000Y-92189000D01*
X85036000Y-92149000D02*
X88964000Y-92149000D01*
X85110000Y-92109000D02*
X88890000Y-92109000D01*
X85187000Y-92069000D02*
X88813000Y-92069000D01*
X85269000Y-92029000D02*
X88731000Y-92029000D01*
X85355000Y-91989000D02*
X88645000Y-91989000D01*
X85448000Y-91949000D02*
X88552000Y-91949000D01*
X85547000Y-91909000D02*
X88453000Y-91909000D01*
X85654000Y-91869000D02*
X88346000Y-91869000D01*
X85771000Y-91829000D02*
X88229000Y-91829000D01*
X85902000Y-91789000D02*
X88098000Y-91789000D01*
X86052000Y-91749000D02*
X87948000Y-91749000D01*
X86232000Y-91709000D02*
X87768000Y-91709000D01*
X86467000Y-91669000D02*
X87533000Y-91669000D01*
X88040000Y-92989000D02*
X90019000Y-92989000D01*
X88040000Y-93029000D02*
X90055000Y-93029000D01*
X88040000Y-93069000D02*
X90090000Y-93069000D01*
X88040000Y-93109000D02*
X90124000Y-93109000D01*
X88040000Y-93149000D02*
X90156000Y-93149000D01*
X88040000Y-93189000D02*
X90189000Y-93189000D01*
X88040000Y-93229000D02*
X90220000Y-93229000D01*
X88040000Y-93269000D02*
X90250000Y-93269000D01*
X88040000Y-93309000D02*
X90280000Y-93309000D01*
X88040000Y-93349000D02*
X90309000Y-93349000D01*
X88040000Y-93389000D02*
X90338000Y-93389000D01*
X88040000Y-93429000D02*
X90365000Y-93429000D01*
X88040000Y-93469000D02*
X90392000Y-93469000D01*
X88040000Y-93509000D02*
X90418000Y-93509000D01*
X88040000Y-93549000D02*
X90444000Y-93549000D01*
X88040000Y-93589000D02*
X90469000Y-93589000D01*
X88040000Y-93629000D02*
X90493000Y-93629000D01*
X88040000Y-93669000D02*
X90517000Y-93669000D01*
X88040000Y-93709000D02*
X90540000Y-93709000D01*
X88040000Y-93749000D02*
X90562000Y-93749000D01*
X88040000Y-93789000D02*
X90584000Y-93789000D01*
X88040000Y-93829000D02*
X90606000Y-93829000D01*
X88040000Y-93869000D02*
X90627000Y-93869000D01*
X88040000Y-93909000D02*
X90647000Y-93909000D01*
X88040000Y-93949000D02*
X90666000Y-93949000D01*
X88040000Y-93989000D02*
X90686000Y-93989000D01*
X88040000Y-94029000D02*
X90704000Y-94029000D01*
X88040000Y-94069000D02*
X90722000Y-94069000D01*
X88040000Y-94109000D02*
X90740000Y-94109000D01*
X88040000Y-94149000D02*
X90757000Y-94149000D01*
X88040000Y-94189000D02*
X90774000Y-94189000D01*
X88040000Y-94229000D02*
X90790000Y-94229000D01*
X88040000Y-94269000D02*
X90805000Y-94269000D01*
X88040000Y-94309000D02*
X90821000Y-94309000D01*
X88040000Y-94349000D02*
X90835000Y-94349000D01*
X88040000Y-94389000D02*
X90850000Y-94389000D01*
X88040000Y-94429000D02*
X90863000Y-94429000D01*
X88040000Y-94469000D02*
X90877000Y-94469000D01*
X88040000Y-94509000D02*
X90889000Y-94509000D01*
X88040000Y-94549000D02*
X90902000Y-94549000D01*
X88040000Y-94589000D02*
X90914000Y-94589000D01*
X88040000Y-94629000D02*
X90925000Y-94629000D01*
X88040000Y-94669000D02*
X90936000Y-94669000D01*
X88040000Y-94709000D02*
X90947000Y-94709000D01*
X88040000Y-94749000D02*
X90957000Y-94749000D01*
X88040000Y-94789000D02*
X90967000Y-94789000D01*
X88040000Y-94829000D02*
X90976000Y-94829000D01*
X88040000Y-94869000D02*
X90985000Y-94869000D01*
X88040000Y-94909000D02*
X90994000Y-94909000D01*
X88040000Y-94949000D02*
X91002000Y-94949000D01*
X88040000Y-94989000D02*
X91010000Y-94989000D01*
X88040000Y-95029000D02*
X91017000Y-95029000D01*
X91120000Y-95750000D02*
G75*
G02*
X82880000Y-95750000I-4120000J0D01*
G01*
X82880000Y-95750000D02*
G75*
G02*
X91120000Y-95750000I4120000J0D01*
G01*
D11*
%TO.C,D2*%
X74770000Y-96120000D02*
X79230000Y-96120000D01*
X74770000Y-99880000D02*
X79230000Y-99880000D01*
X75980000Y-96130000D02*
X75980000Y-99880000D01*
X79230000Y-96120000D02*
X79230000Y-96550000D01*
X79230000Y-99450000D02*
X79230000Y-99880000D01*
D12*
%TO.C,R1*%
X92230000Y-68706000D02*
X92230000Y-70103000D01*
X92230000Y-70103000D02*
X92357000Y-70230000D01*
X92230000Y-72897000D02*
X92357000Y-72770000D01*
X92230000Y-74294000D02*
X92230000Y-72897000D01*
X92357000Y-70230000D02*
X92357000Y-71500000D01*
X92357000Y-72770000D02*
X92357000Y-71500000D01*
X92611000Y-68325000D02*
X92230000Y-68706000D01*
X92611000Y-74675000D02*
X92230000Y-74294000D01*
X92738000Y-70357000D02*
X94262000Y-71119000D01*
X92738000Y-71881000D02*
X94262000Y-72643000D01*
X92738000Y-73405000D02*
X93500000Y-73786000D01*
X93500000Y-69214000D02*
X93500000Y-68833000D01*
X93500000Y-69214000D02*
X94262000Y-69595000D01*
X93500000Y-74167000D02*
X93500000Y-73786000D01*
X94262000Y-69595000D02*
X92738000Y-70357000D01*
X94262000Y-71119000D02*
X92738000Y-71881000D01*
X94262000Y-72643000D02*
X92738000Y-73405000D01*
X94389000Y-68325000D02*
X94770000Y-68706000D01*
X94389000Y-74675000D02*
X94770000Y-74294000D01*
X94643000Y-70230000D02*
X94643000Y-71500000D01*
X94643000Y-72770000D02*
X94643000Y-71500000D01*
X94770000Y-68706000D02*
X94770000Y-70103000D01*
X94770000Y-70103000D02*
X94643000Y-70230000D01*
X94770000Y-72897000D02*
X94643000Y-72770000D01*
X94770000Y-74294000D02*
X94770000Y-72897000D01*
%TO.C,Driver1*%
X103500000Y-63250000D02*
X103500000Y-79749999D01*
X103500000Y-79749999D02*
X121500000Y-79750000D01*
X109500001Y-63250000D02*
X103500000Y-63250000D01*
X109500001Y-63610000D02*
X109500001Y-63250000D01*
X115500000Y-63250000D02*
X115500000Y-63610000D01*
X115500000Y-63610000D02*
X109500001Y-63610000D01*
X121500000Y-63250001D02*
X115500000Y-63250000D01*
X121500000Y-79750000D02*
X121500000Y-63250001D01*
%TO.C,C1*%
X82669000Y-81033000D02*
X82669000Y-79967000D01*
X82709000Y-81268000D02*
X82709000Y-79732000D01*
X82749000Y-81448000D02*
X82749000Y-79552000D01*
X82789000Y-81598000D02*
X82789000Y-79402000D01*
X82829000Y-81729000D02*
X82829000Y-79271000D01*
X82869000Y-81846000D02*
X82869000Y-79154000D01*
X82909000Y-81953000D02*
X82909000Y-79047000D01*
X82949000Y-82052000D02*
X82949000Y-78948000D01*
X82989000Y-82145000D02*
X82989000Y-78855000D01*
X83029000Y-82231000D02*
X83029000Y-78769000D01*
X83069000Y-82313000D02*
X83069000Y-78687000D01*
X83109000Y-82390000D02*
X83109000Y-78610000D01*
X83149000Y-82464000D02*
X83149000Y-78536000D01*
X83189000Y-82534000D02*
X83189000Y-78466000D01*
X83229000Y-82602000D02*
X83229000Y-78398000D01*
X83269000Y-82666000D02*
X83269000Y-78334000D01*
X83309000Y-82728000D02*
X83309000Y-78272000D01*
X83349000Y-82787000D02*
X83349000Y-78213000D01*
X83389000Y-82845000D02*
X83389000Y-78155000D01*
X83429000Y-82900000D02*
X83429000Y-78100000D01*
X83469000Y-82954000D02*
X83469000Y-78046000D01*
X83509000Y-83005000D02*
X83509000Y-77995000D01*
X83549000Y-83056000D02*
X83549000Y-77944000D01*
X83589000Y-83104000D02*
X83589000Y-77896000D01*
X83629000Y-83151000D02*
X83629000Y-77849000D01*
X83669000Y-83197000D02*
X83669000Y-77803000D01*
X83709000Y-83241000D02*
X83709000Y-77759000D01*
X83749000Y-83284000D02*
X83749000Y-77716000D01*
X83789000Y-83326000D02*
X83789000Y-77674000D01*
X83829000Y-83367000D02*
X83829000Y-77633000D01*
X83869000Y-83407000D02*
X83869000Y-77593000D01*
X83909000Y-83445000D02*
X83909000Y-77555000D01*
X83949000Y-83483000D02*
X83949000Y-77517000D01*
X83989000Y-79460000D02*
X83989000Y-77481000D01*
X83989000Y-83519000D02*
X83989000Y-81540000D01*
X84029000Y-79460000D02*
X84029000Y-77445000D01*
X84029000Y-83555000D02*
X84029000Y-81540000D01*
X84069000Y-79460000D02*
X84069000Y-77410000D01*
X84069000Y-83590000D02*
X84069000Y-81540000D01*
X84109000Y-79460000D02*
X84109000Y-77376000D01*
X84109000Y-83624000D02*
X84109000Y-81540000D01*
X84149000Y-79460000D02*
X84149000Y-77344000D01*
X84149000Y-83656000D02*
X84149000Y-81540000D01*
X84189000Y-79460000D02*
X84189000Y-77311000D01*
X84189000Y-83689000D02*
X84189000Y-81540000D01*
X84229000Y-79460000D02*
X84229000Y-77280000D01*
X84229000Y-83720000D02*
X84229000Y-81540000D01*
X84269000Y-79460000D02*
X84269000Y-77250000D01*
X84269000Y-83750000D02*
X84269000Y-81540000D01*
X84309000Y-79460000D02*
X84309000Y-77220000D01*
X84309000Y-83780000D02*
X84309000Y-81540000D01*
X84349000Y-79460000D02*
X84349000Y-77191000D01*
X84349000Y-83809000D02*
X84349000Y-81540000D01*
X84389000Y-79460000D02*
X84389000Y-77162000D01*
X84389000Y-83838000D02*
X84389000Y-81540000D01*
X84429000Y-79460000D02*
X84429000Y-77135000D01*
X84429000Y-83865000D02*
X84429000Y-81540000D01*
X84469000Y-79460000D02*
X84469000Y-77108000D01*
X84469000Y-83892000D02*
X84469000Y-81540000D01*
X84509000Y-79460000D02*
X84509000Y-77082000D01*
X84509000Y-83918000D02*
X84509000Y-81540000D01*
X84549000Y-79460000D02*
X84549000Y-77056000D01*
X84549000Y-83944000D02*
X84549000Y-81540000D01*
X84589000Y-79460000D02*
X84589000Y-77031000D01*
X84589000Y-83969000D02*
X84589000Y-81540000D01*
X84629000Y-79460000D02*
X84629000Y-77007000D01*
X84629000Y-83993000D02*
X84629000Y-81540000D01*
X84669000Y-79460000D02*
X84669000Y-76983000D01*
X84669000Y-84017000D02*
X84669000Y-81540000D01*
X84709000Y-79460000D02*
X84709000Y-76960000D01*
X84709000Y-84040000D02*
X84709000Y-81540000D01*
X84749000Y-79460000D02*
X84749000Y-76938000D01*
X84749000Y-84062000D02*
X84749000Y-81540000D01*
X84789000Y-79460000D02*
X84789000Y-76916000D01*
X84789000Y-84084000D02*
X84789000Y-81540000D01*
X84829000Y-79460000D02*
X84829000Y-76894000D01*
X84829000Y-84106000D02*
X84829000Y-81540000D01*
X84869000Y-79460000D02*
X84869000Y-76873000D01*
X84869000Y-84127000D02*
X84869000Y-81540000D01*
X84909000Y-79460000D02*
X84909000Y-76853000D01*
X84909000Y-84147000D02*
X84909000Y-81540000D01*
X84949000Y-79460000D02*
X84949000Y-76834000D01*
X84949000Y-84166000D02*
X84949000Y-81540000D01*
X84989000Y-79460000D02*
X84989000Y-76814000D01*
X84989000Y-84186000D02*
X84989000Y-81540000D01*
X85029000Y-79460000D02*
X85029000Y-76796000D01*
X85029000Y-84204000D02*
X85029000Y-81540000D01*
X85069000Y-79460000D02*
X85069000Y-76778000D01*
X85069000Y-84222000D02*
X85069000Y-81540000D01*
X85109000Y-79460000D02*
X85109000Y-76760000D01*
X85109000Y-84240000D02*
X85109000Y-81540000D01*
X85149000Y-79460000D02*
X85149000Y-76743000D01*
X85149000Y-84257000D02*
X85149000Y-81540000D01*
X85189000Y-79460000D02*
X85189000Y-76726000D01*
X85189000Y-84274000D02*
X85189000Y-81540000D01*
X85229000Y-79460000D02*
X85229000Y-76710000D01*
X85229000Y-84290000D02*
X85229000Y-81540000D01*
X85269000Y-79460000D02*
X85269000Y-76695000D01*
X85269000Y-84305000D02*
X85269000Y-81540000D01*
X85309000Y-79460000D02*
X85309000Y-76679000D01*
X85309000Y-84321000D02*
X85309000Y-81540000D01*
X85349000Y-79460000D02*
X85349000Y-76665000D01*
X85349000Y-84335000D02*
X85349000Y-81540000D01*
X85389000Y-79460000D02*
X85389000Y-76650000D01*
X85389000Y-84350000D02*
X85389000Y-81540000D01*
X85429000Y-79460000D02*
X85429000Y-76637000D01*
X85429000Y-84363000D02*
X85429000Y-81540000D01*
X85469000Y-79460000D02*
X85469000Y-76623000D01*
X85469000Y-84377000D02*
X85469000Y-81540000D01*
X85509000Y-79460000D02*
X85509000Y-76611000D01*
X85509000Y-84389000D02*
X85509000Y-81540000D01*
X85549000Y-79460000D02*
X85549000Y-76598000D01*
X85549000Y-84402000D02*
X85549000Y-81540000D01*
X85589000Y-79460000D02*
X85589000Y-76586000D01*
X85589000Y-84414000D02*
X85589000Y-81540000D01*
X85629000Y-79460000D02*
X85629000Y-76575000D01*
X85629000Y-84425000D02*
X85629000Y-81540000D01*
X85669000Y-79460000D02*
X85669000Y-76564000D01*
X85669000Y-84436000D02*
X85669000Y-81540000D01*
X85709000Y-79460000D02*
X85709000Y-76553000D01*
X85709000Y-84447000D02*
X85709000Y-81540000D01*
X85749000Y-79460000D02*
X85749000Y-76543000D01*
X85749000Y-84457000D02*
X85749000Y-81540000D01*
X85789000Y-79460000D02*
X85789000Y-76533000D01*
X85789000Y-84467000D02*
X85789000Y-81540000D01*
X85829000Y-79460000D02*
X85829000Y-76524000D01*
X85829000Y-84476000D02*
X85829000Y-81540000D01*
X85869000Y-79460000D02*
X85869000Y-76515000D01*
X85869000Y-84485000D02*
X85869000Y-81540000D01*
X85909000Y-79460000D02*
X85909000Y-76506000D01*
X85909000Y-84494000D02*
X85909000Y-81540000D01*
X85949000Y-79460000D02*
X85949000Y-76498000D01*
X85949000Y-84502000D02*
X85949000Y-81540000D01*
X85989000Y-79460000D02*
X85989000Y-76490000D01*
X85989000Y-84510000D02*
X85989000Y-81540000D01*
X86029000Y-79460000D02*
X86029000Y-76483000D01*
X86029000Y-84517000D02*
X86029000Y-81540000D01*
X86070000Y-84524000D02*
X86070000Y-76476000D01*
X86110000Y-84530000D02*
X86110000Y-76470000D01*
X86150000Y-84537000D02*
X86150000Y-76463000D01*
X86190000Y-84542000D02*
X86190000Y-76458000D01*
X86230000Y-84548000D02*
X86230000Y-76452000D01*
X86270000Y-84552000D02*
X86270000Y-76448000D01*
X86310000Y-84557000D02*
X86310000Y-76443000D01*
X86350000Y-84561000D02*
X86350000Y-76439000D01*
X86390000Y-84565000D02*
X86390000Y-76435000D01*
X86430000Y-84568000D02*
X86430000Y-76432000D01*
X86470000Y-84571000D02*
X86470000Y-76429000D01*
X86510000Y-84574000D02*
X86510000Y-76426000D01*
X86550000Y-84576000D02*
X86550000Y-76424000D01*
X86590000Y-84577000D02*
X86590000Y-76423000D01*
X86630000Y-84579000D02*
X86630000Y-76421000D01*
X86670000Y-84580000D02*
X86670000Y-76420000D01*
X86710000Y-84580000D02*
X86710000Y-76420000D01*
X86750000Y-84580000D02*
X86750000Y-76420000D01*
X90759698Y-83215000D02*
X90759698Y-82415000D01*
X91159698Y-82815000D02*
X90359698Y-82815000D01*
X90870000Y-80500000D02*
G75*
G02*
X82630000Y-80500000I-4120000J0D01*
G01*
X82630000Y-80500000D02*
G75*
G02*
X90870000Y-80500000I4120000J0D01*
G01*
%TO.C,Driver2*%
X129000000Y-63250000D02*
X129000000Y-79749999D01*
X129000000Y-79749999D02*
X147000000Y-79750000D01*
X135000001Y-63250000D02*
X129000000Y-63250000D01*
X135000001Y-63610000D02*
X135000001Y-63250000D01*
X141000000Y-63250000D02*
X141000000Y-63610000D01*
X141000000Y-63610000D02*
X135000001Y-63610000D01*
X147000000Y-63250001D02*
X141000000Y-63250000D01*
X147000000Y-79750000D02*
X147000000Y-63250001D01*
%TO.C,U2*%
X97583440Y-81800000D02*
X97583440Y-110199999D01*
X97583440Y-110199999D02*
X145503440Y-110200000D01*
X145503440Y-81800001D02*
X97583440Y-81800000D01*
X145503440Y-110200000D02*
X145503440Y-81800001D01*
X145523760Y-87030120D02*
X151416560Y-87030120D01*
X151416560Y-87030120D02*
X151416560Y-105013320D01*
X151416560Y-105013320D02*
X145523760Y-105013320D01*
%TO.C,R2*%
X92230000Y-79706000D02*
X92230000Y-81103000D01*
X92230000Y-81103000D02*
X92357000Y-81230000D01*
X92230000Y-83897000D02*
X92357000Y-83770000D01*
X92230000Y-85294000D02*
X92230000Y-83897000D01*
X92357000Y-81230000D02*
X92357000Y-82500000D01*
X92357000Y-83770000D02*
X92357000Y-82500000D01*
X92611000Y-79325000D02*
X92230000Y-79706000D01*
X92611000Y-85675000D02*
X92230000Y-85294000D01*
X92738000Y-81357000D02*
X94262000Y-82119000D01*
X92738000Y-82881000D02*
X94262000Y-83643000D01*
X92738000Y-84405000D02*
X93500000Y-84786000D01*
X93500000Y-80214000D02*
X93500000Y-79833000D01*
X93500000Y-80214000D02*
X94262000Y-80595000D01*
X93500000Y-85167000D02*
X93500000Y-84786000D01*
X94262000Y-80595000D02*
X92738000Y-81357000D01*
X94262000Y-82119000D02*
X92738000Y-82881000D01*
X94262000Y-83643000D02*
X92738000Y-84405000D01*
X94389000Y-79325000D02*
X94770000Y-79706000D01*
X94389000Y-85675000D02*
X94770000Y-85294000D01*
X94643000Y-81230000D02*
X94643000Y-82500000D01*
X94643000Y-83770000D02*
X94643000Y-82500000D01*
X94770000Y-79706000D02*
X94770000Y-81103000D01*
X94770000Y-81103000D02*
X94643000Y-81230000D01*
X94770000Y-83897000D02*
X94643000Y-83770000D01*
X94770000Y-85294000D02*
X94770000Y-83897000D01*
%TD*%
M02*
