%TF.GenerationSoftware,KiCad,Pcbnew,9.0.2*%
%TF.CreationDate,2025-05-20T20:50:19+05:30*%
%TF.ProjectId,esp32 master,65737033-3220-46d6-9173-7465722e6b69,rev?*%
%TF.SameCoordinates,Original*%
%TF.FileFunction,Soldermask,Top*%
%TF.FilePolarity,Negative*%
%FSLAX46Y46*%
G04 Gerber Fmt 4.6, Leading zero omitted, Abs format (unit mm)*
G04 Created by KiCad (PCBNEW 9.0.2) date 2025-05-20 20:50:19*
%MOMM*%
%LPD*%
G01*
G04 APERTURE LIST*
G04 Aperture macros list*
%AMRoundRect*
0 Rectangle with rounded corners*
0 $1 Rounding radius*
0 $2 $3 $4 $5 $6 $7 $8 $9 X,Y pos of 4 corners*
0 Add a 4 corners polygon primitive as box body*
4,1,4,$2,$3,$4,$5,$6,$7,$8,$9,$2,$3,0*
0 Add four circle primitives for the rounded corners*
1,1,$1+$1,$2,$3*
1,1,$1+$1,$4,$5*
1,1,$1+$1,$6,$7*
1,1,$1+$1,$8,$9*
0 Add four rect primitives between the rounded corners*
20,1,$1+$1,$2,$3,$4,$5,0*
20,1,$1+$1,$4,$5,$6,$7,0*
20,1,$1+$1,$6,$7,$8,$9,0*
20,1,$1+$1,$8,$9,$2,$3,0*%
%AMFreePoly0*
4,1,23,0.500000,-0.750000,0.000000,-0.750000,0.000000,-0.745722,-0.065263,-0.745722,-0.191342,-0.711940,-0.304381,-0.646677,-0.396677,-0.554381,-0.461940,-0.441342,-0.495722,-0.315263,-0.495722,-0.250000,-0.500000,-0.250000,-0.500000,0.250000,-0.495722,0.250000,-0.495722,0.315263,-0.461940,0.441342,-0.396677,0.554381,-0.304381,0.646677,-0.191342,0.711940,-0.065263,0.745722,0.000000,0.745722,
0.000000,0.750000,0.500000,0.750000,0.500000,-0.750000,0.500000,-0.750000,$1*%
%AMFreePoly1*
4,1,23,0.000000,0.745722,0.065263,0.745722,0.191342,0.711940,0.304381,0.646677,0.396677,0.554381,0.461940,0.441342,0.495722,0.315263,0.495722,0.250000,0.500000,0.250000,0.500000,-0.250000,0.495722,-0.250000,0.495722,-0.315263,0.461940,-0.441342,0.396677,-0.554381,0.304381,-0.646677,0.191342,-0.711940,0.065263,-0.745722,0.000000,-0.745722,0.000000,-0.750000,-0.500000,-0.750000,
-0.500000,0.750000,0.000000,0.750000,0.000000,0.745722,0.000000,0.745722,$1*%
G04 Aperture macros list end*
%ADD10C,3.100000*%
%ADD11RoundRect,0.250000X0.300000X-2.050000X0.300000X2.050000X-0.300000X2.050000X-0.300000X-2.050000X0*%
%ADD12RoundRect,0.250002X5.149998X-4.449998X5.149998X4.449998X-5.149998X4.449998X-5.149998X-4.449998X0*%
%ADD13C,1.600000*%
%ADD14R,1.700000X1.700000*%
%ADD15C,1.700000*%
%ADD16R,1.350000X1.350000*%
%ADD17C,1.350000*%
%ADD18R,2.900000X5.400000*%
%ADD19C,1.200000*%
%ADD20R,1.800000X1.800000*%
%ADD21C,1.800000*%
%ADD22R,3.500000X3.500000*%
%ADD23RoundRect,0.750000X-0.750000X-1.000000X0.750000X-1.000000X0.750000X1.000000X-0.750000X1.000000X0*%
%ADD24RoundRect,0.875000X-0.875000X-0.875000X0.875000X-0.875000X0.875000X0.875000X-0.875000X0.875000X0*%
%ADD25RoundRect,0.250000X0.650000X-0.650000X0.650000X0.650000X-0.650000X0.650000X-0.650000X-0.650000X0*%
%ADD26FreePoly0,0.000000*%
%ADD27FreePoly1,0.000000*%
%ADD28R,1.600000X1.600000*%
%ADD29RoundRect,0.250000X-0.650000X-1.020000X0.650000X-1.020000X0.650000X1.020000X-0.650000X1.020000X0*%
%ADD30O,1.600000X1.600000*%
%ADD31O,2.000000X1.500000*%
%ADD32R,1.200000X2.000000*%
%ADD33O,1.200000X2.000000*%
G04 APERTURE END LIST*
%TO.C,JP1*%
G36*
X96810000Y-74600000D02*
G01*
X97110000Y-74600000D01*
X97110000Y-76100000D01*
X96810000Y-76100000D01*
X96810000Y-74600000D01*
G37*
%TD*%
D10*
%TO.C,ST3*%
X149690000Y-65110000D03*
%TD*%
%TO.C,ST2*%
X149250000Y-109980000D03*
%TD*%
%TO.C,ST1*%
X87420000Y-111780000D03*
%TD*%
D11*
%TO.C,U1*%
X72825000Y-92075000D03*
X74525000Y-92075000D03*
X76225000Y-92075000D03*
D12*
X76225000Y-82925000D03*
D11*
X77925000Y-92075000D03*
X79625000Y-92075000D03*
%TD*%
D13*
%TO.C,C6*%
X93000000Y-97000000D03*
X93000000Y-94500000D03*
%TD*%
D14*
%TO.C,J2*%
X108710000Y-112490000D03*
D15*
X106170000Y-112490000D03*
X103630000Y-112490000D03*
X101090000Y-112490000D03*
X98550000Y-112490000D03*
X96010000Y-112490000D03*
%TD*%
D16*
%TO.C,J5*%
X101500000Y-78000000D03*
D17*
X101500000Y-76000000D03*
X101500000Y-74000000D03*
X101500000Y-72000000D03*
%TD*%
D14*
%TO.C,J3*%
X118670000Y-112390000D03*
D15*
X121210000Y-112390000D03*
X123750000Y-112390000D03*
X126290000Y-112390000D03*
X128830000Y-112390000D03*
%TD*%
D18*
%TO.C,L1*%
X72550000Y-107000000D03*
X82450000Y-107000000D03*
%TD*%
D13*
%TO.C,R3*%
X93000000Y-99960000D03*
X93000000Y-102500000D03*
%TD*%
D19*
%TO.C,C2*%
X98500000Y-66000000D03*
X98500000Y-68000000D03*
%TD*%
D20*
%TO.C,D3*%
X87000000Y-105000000D03*
D21*
X89540000Y-105000000D03*
%TD*%
D19*
%TO.C,C4*%
X125000000Y-65500000D03*
X125000000Y-67500000D03*
%TD*%
D22*
%TO.C,J1*%
X84350000Y-69460000D03*
D23*
X78350000Y-69460000D03*
D24*
X81350000Y-74160000D03*
%TD*%
D25*
%TO.C,D1*%
X89000000Y-74310000D03*
D21*
X89000000Y-66690000D03*
%TD*%
D26*
%TO.C,JP1*%
X96310000Y-75350000D03*
D27*
X97610000Y-75350000D03*
%TD*%
D16*
%TO.C,J6*%
X126500000Y-78000000D03*
D17*
X126500000Y-76000000D03*
X126500000Y-74000000D03*
X126500000Y-72000000D03*
%TD*%
D13*
%TO.C,C3*%
X87750000Y-86500000D03*
X85250000Y-86500000D03*
%TD*%
D28*
%TO.C,C5*%
X87000000Y-97500000D03*
D13*
X87000000Y-94000000D03*
%TD*%
D29*
%TO.C,D2*%
X74720000Y-98000000D03*
X79280000Y-98000000D03*
%TD*%
D13*
%TO.C,R1*%
X93500000Y-67690000D03*
D30*
X93500000Y-75310000D03*
%TD*%
D31*
%TO.C,Driver1*%
X105000000Y-64500000D03*
X105000000Y-66500000D03*
X105000000Y-68500000D03*
X105000000Y-70500000D03*
X105000000Y-72500000D03*
X105000000Y-74500000D03*
X105000000Y-76500000D03*
X105000000Y-78500000D03*
X120000000Y-64500000D03*
X120000000Y-66500000D03*
X120000000Y-68500000D03*
X120000000Y-70500000D03*
X120000000Y-72500000D03*
X120000000Y-74500000D03*
X120000000Y-76500000D03*
X120000000Y-78500000D03*
%TD*%
D28*
%TO.C,C1*%
X88500000Y-80500000D03*
D13*
X85000000Y-80500000D03*
%TD*%
D31*
%TO.C,Driver2*%
X130500000Y-64500000D03*
X130500000Y-66500000D03*
X130500000Y-68500000D03*
X130500000Y-70500000D03*
X130500000Y-72500000D03*
X130500000Y-74500000D03*
X130500000Y-76500000D03*
X130500000Y-78500000D03*
X145500000Y-64500000D03*
X145500000Y-66500000D03*
X145500000Y-68500000D03*
X145500000Y-70500000D03*
X145500000Y-72500000D03*
X145500000Y-74500000D03*
X145500000Y-76500000D03*
X145500000Y-78500000D03*
%TD*%
D32*
%TO.C,U2*%
X144403440Y-83300000D03*
D33*
X141863440Y-83300000D03*
X139323440Y-83300000D03*
X136783440Y-83300000D03*
X134243440Y-83300000D03*
X131703440Y-83300000D03*
X129163440Y-83300000D03*
X126623440Y-83300000D03*
X124083440Y-83300000D03*
X121543440Y-83300000D03*
X119003440Y-83300000D03*
X116463440Y-83300000D03*
X113923440Y-83300000D03*
X111383440Y-83300000D03*
X108843440Y-83300000D03*
X106303440Y-83300000D03*
X103763440Y-83300000D03*
X101223440Y-83300000D03*
X98683440Y-83300000D03*
X98686160Y-108696320D03*
X101226160Y-108696320D03*
X103763440Y-108700000D03*
X106303440Y-108700000D03*
X108843440Y-108700000D03*
X111383440Y-108700000D03*
X113923440Y-108700000D03*
X116463440Y-108700000D03*
X119003440Y-108700000D03*
X121543440Y-108700000D03*
X124083440Y-108700000D03*
X126623440Y-108700000D03*
X129163440Y-108700000D03*
X131703440Y-108700000D03*
X134243440Y-108700000D03*
X136783440Y-108700000D03*
X139323440Y-108700000D03*
X141863440Y-108700000D03*
X144403440Y-108700000D03*
%TD*%
D13*
%TO.C,R2*%
X93500000Y-78690000D03*
D30*
X93500000Y-86310000D03*
%TD*%
M02*
